<svg width="69" height="73" viewBox="0 0 69 73" fill="none" xmlns="http://www.w3.org/2000/svg">
<g clip-path="url(#clip0_178_3701)">
<path d="M42.9269 2.37045L53.8092 24.623C59.7235 17.8419 65.8152 10.0733 65.8152 10.0733C66.3475 9.4149 65.697 6.71563 64.2775 3.81884C62.8581 0.922062 61.1429 -1.18469 60.3741 -0.987181C60.0784 -0.921345 51.0886 0.527046 42.9269 2.37045Z" fill="url(#paint0_radial_178_3701)"/>
<path d="M47.1262 31.6676C49.0779 29.8242 51.4436 27.3224 53.8093 24.6232L42.927 2.37061C39.615 3.0948 36.4213 3.95067 33.9373 4.80654L47.1262 31.6676Z" fill="url(#paint1_radial_178_3701)"/>
<path d="M33.9965 4.7407L47.1854 31.6676C49.1371 29.8242 51.5028 27.3224 53.8685 24.6232C54.5782 23.6356 52.9814 18.3687 50.0834 12.5093C47.1854 6.64994 44.1099 2.30477 42.9862 2.43644V2.37061C39.6151 3.0948 36.4213 3.95067 33.9965 4.7407Z" fill="url(#paint2_radial_178_3701)"/>
<path d="M26.7809 17.842C26.7809 19.6195 26.1303 20.4096 24.77 20.2779C23.2323 20.1462 21.458 19.4879 21.458 19.4879C21.458 19.4879 24.1194 25.0839 25.0657 27.059C25.2432 27.454 25.3614 27.7174 25.4206 27.7832C26.426 29.7583 29.2057 35.2885 29.2057 35.2885C29.2057 35.2885 29.738 33.3134 30.4477 31.7992C31.0983 30.4166 32.0446 30.285 33.4049 31.2725C34.9426 32.3917 38.9643 37.7244 44.8195 33.6426C45.4701 33.1818 46.2981 32.5234 47.1852 31.6675C48.3681 30.9433 46.4164 24.3597 42.7495 16.9203C39.0826 9.4808 35.1792 4.08225 33.9963 4.74061C32.8726 5.13563 31.9263 5.53064 31.2166 5.85982C24.9474 9.15162 26.7809 15.8011 26.7809 17.842Z" fill="url(#paint3_radial_178_3701)"/>
<path d="M21.2805 19.5539C21.9903 19.093 24.2968 22.319 26.426 26.6641C28.5551 31.0093 29.738 34.9595 29.0283 35.3545C28.3186 35.8153 26.012 32.5894 23.8828 28.2442C21.7537 23.899 20.5708 20.0147 21.2805 19.5539Z" fill="url(#paint4_radial_178_3701)"/>
<path opacity="0.45" d="M41.8034 23.3721C43.3411 25.808 44.2283 28.7706 44.7014 31.7332C44.0508 32.1941 43.4003 32.6549 42.6906 32.9841C41.9808 33.3133 41.212 33.445 40.4431 33.3133C40.2657 30.3507 39.4377 27.7172 38.0774 25.2155C39.556 24.623 40.2657 24.1621 41.8034 23.3721Z" fill="white"/>
<path d="M23.7646 24.0964C17.3772 26.7299 13.2963 33.5768 10.4575 40.4896C6.19916 51.0892 4.07001 62.6105 2 74.0001H10.8123C11.108 64.9806 11.936 55.961 13.3555 47.534C14.7749 39.107 18.0278 29.89 23.7646 24.0964Z" fill="white"/>
<path d="M24.2968 73.4075C22.7 65.573 21.458 57.8044 20.8665 50.1674C20.1568 41.6087 21.044 31.7333 25.1248 24.4255C19.6245 28.9024 17.3771 36.7369 16.3717 44.2422C15.1297 53.8542 15.4845 63.6638 16.1351 73.4075H24.2968Z" fill="white"/>
<path d="M8.86041 13.3654L9.45184 12.1145L10.0433 13.3654C10.6347 14.5504 11.4627 15.4721 12.5273 16.1305L13.651 16.7889L12.5273 17.4472C11.4627 18.1056 10.6347 19.0273 10.0433 20.2123L9.45184 21.4632L8.86041 20.2123C8.26898 19.0273 7.44098 18.1056 6.3764 17.4472L5.25269 16.7889L6.3764 16.1305C7.38183 15.538 8.26898 14.5504 8.86041 13.3654Z" fill="white"/>
<path d="M16.5491 6.18912L16.904 5.53076L17.2588 6.18912C17.5546 6.84748 18.0277 7.37417 18.6191 7.70335L19.2106 8.09836L18.6191 8.49338C18.0277 8.82256 17.5546 9.34925 17.2588 10.0076L16.904 10.666L16.5491 10.0076C16.2534 9.34925 15.7803 8.82256 15.1888 8.49338L14.5974 8.09836L15.1888 7.70335C15.7803 7.30833 16.2534 6.78165 16.5491 6.18912Z" fill="white"/>
</g>
<defs>
<radialGradient id="paint0_radial_178_3701" cx="0" cy="0" r="1" gradientUnits="userSpaceOnUse" gradientTransform="translate(52.2169 -0.159318) rotate(-116.071) scale(31.4952 29.6002)">
<stop offset="0.1679" stop-color="#EA8928"/>
<stop offset="0.474" stop-color="#EAA628"/>
<stop offset="0.9281" stop-color="#EAA628"/>
</radialGradient>
<radialGradient id="paint1_radial_178_3701" cx="0" cy="0" r="1" gradientUnits="userSpaceOnUse" gradientTransform="translate(23.4914 42.1445) rotate(-116.071) scale(123.577 116.141)">
<stop offset="0.474" stop-color="#EAA628"/>
<stop offset="0.9281" stop-color="#EAA628"/>
</radialGradient>
<radialGradient id="paint2_radial_178_3701" cx="0" cy="0" r="1" gradientUnits="userSpaceOnUse" gradientTransform="translate(39.9015 -1.64434) rotate(-116.071) scale(33.3028 31.299)">
<stop offset="0.0539864" stop-color="#548BEB"/>
<stop offset="0.4648" stop-color="#78A1D6"/>
<stop offset="1" stop-color="#8FAED6"/>
</radialGradient>
<radialGradient id="paint3_radial_178_3701" cx="0" cy="0" r="1" gradientUnits="userSpaceOnUse" gradientTransform="translate(32.7102 3.35084) rotate(-116.071) scale(37.3683 35.12)">
<stop offset="0.1679" stop-color="#EA8928"/>
<stop offset="0.474" stop-color="#EAA628"/>
<stop offset="0.9281" stop-color="#EAA628"/>
</radialGradient>
<radialGradient id="paint4_radial_178_3701" cx="0" cy="0" r="1" gradientUnits="userSpaceOnUse" gradientTransform="translate(20.2382 17.3063) rotate(-116.071) scale(24.0833 22.6343)">
<stop offset="0.0539864" stop-color="#548BEB"/>
<stop offset="0.4648" stop-color="#78A1D6"/>
<stop offset="1" stop-color="#8FAED6"/>
</radialGradient>
<clipPath id="clip0_178_3701">
<rect width="69" height="73" fill="white"/>
</clipPath>
</defs>
</svg>
