<svg width="80" height="73" viewBox="0 0 80 73" fill="none" xmlns="http://www.w3.org/2000/svg">
<g clip-path="url(#clip0_178_1768)">
<path d="M15.5752 29.1865C11.3982 24.086 10.9026 15.9392 14.6548 10.5553C18.4071 5.1005 25.8407 2.62106 32.0708 4.67546C34.4071 5.45471 36.4602 6.72985 38.7256 7.57995C34.2655 8.57172 30.8672 11.122 27.5398 14.239C24.2124 17.356 22.0885 21.9607 22.6549 26.5654C22.7256 26.9196 22.7256 27.2738 22.5133 27.5572C22.2301 27.9114 21.6637 27.9114 21.1681 27.9114C18.2655 27.9114 17.0619 28.1239 15.5752 29.1865Z" fill="url(#paint0_radial_178_1768)"/>
<mask id="mask0_178_1768" style="mask-type:luminance" maskUnits="userSpaceOnUse" x="12" y="3" width="27" height="27">
<path d="M15.5752 29.1865C11.3982 24.086 10.9026 15.9392 14.6548 10.5553C18.4071 5.1005 25.8407 2.62106 32.0708 4.67546C34.4071 5.45471 36.4602 6.72985 38.7256 7.57995C34.2655 8.57172 30.8672 11.122 27.5398 14.239C24.2124 17.356 22.0885 21.9607 22.6549 26.5654C22.7256 26.9196 22.7256 27.2738 22.5133 27.5572C22.2301 27.9114 21.6637 27.9114 21.1681 27.9114C18.2655 27.9114 17.0619 28.1239 15.5752 29.1865Z" fill="white"/>
</mask>
<g mask="url(#mask0_178_1768)">
<path d="M23.3628 24.5111C21.7345 23.8027 20.2478 23.3068 18.761 22.811C17.2743 22.3859 15.8584 22.0317 14.5132 21.89C13.1681 21.8192 11.7522 21.8192 10.2655 22.1025C8.77873 22.3859 7.292 22.7401 5.59289 23.3777L5.45129 23.236C6.65483 22.0317 8.14156 21.1816 9.69908 20.6149C11.2566 20.0481 12.9557 19.7648 14.6548 19.9065C16.3539 20.0481 17.9823 20.6857 19.469 21.465C20.9557 22.2442 22.3716 23.236 23.5044 24.4403L23.3628 24.5111Z" fill="#363636"/>
<path d="M25.0619 20.6148C24 18.9146 22.8672 17.5686 21.5929 16.4352C20.3185 15.3017 18.9734 14.3808 17.5575 13.6015C16.0708 12.8223 14.5132 12.1847 12.8141 11.6888C11.115 11.1929 9.34509 10.7679 7.36279 10.3428V10.1303C9.2743 9.84693 11.1858 9.84692 13.0265 10.0594C14.938 10.3428 16.7787 10.8387 18.4778 11.7596C20.177 12.6806 21.6637 13.8849 22.8672 15.3725C24.0708 16.8602 24.9203 18.6312 25.2743 20.544L25.0619 20.6148Z" fill="#363636"/>
<path d="M27.8937 15.7975C27.3274 13.8848 26.6902 12.3263 25.9114 10.8386C25.1327 9.35096 24.1415 8.07582 23.0796 6.94236C22.0176 5.8089 20.6725 4.74628 19.2566 3.7545C17.8406 2.69189 16.2831 1.70011 14.7964 0.354125L14.8672 0.141602C16.5663 0.779173 18.3362 1.41674 19.9645 2.26684C21.5928 3.11693 23.2212 4.10871 24.4955 5.45469C25.7698 6.80068 26.761 8.43003 27.3982 10.2011C28.0353 11.9721 28.2477 13.8848 28.0353 15.7267L27.8937 15.7975Z" fill="#363636"/>
<path d="M32.2123 11.7596L31.5751 8.71347C31.3627 7.79254 31.2211 7.01328 31.0088 6.09235C30.8672 5.24225 30.7256 4.32131 30.584 3.32954C30.5132 2.33776 30.4424 1.27514 30.6548 0.0708412L30.938 0C31.8583 1.84187 32.6371 3.75459 33.0619 5.73814C33.2742 6.72992 33.2742 7.79254 33.2035 8.85515C33.1327 9.91777 32.8495 10.9095 32.4247 11.8305L32.2123 11.7596Z" fill="#363636"/>
</g>
<path d="M27.6106 23.0942L21.4513 22.3857L9.55752 36.4831C9.55752 36.4831 10.4071 38.9626 10.1239 40.3086C9.84071 41.6546 0 55.752 0 55.752C0 55.752 0.637168 56.5312 1.13274 59.2232C1.62832 61.9151 0.778761 63.8279 3.39823 65.3155C6.0177 66.8032 4.1062 68.4325 9.27434 66.5198C14.4425 64.6071 14.4425 64.6071 14.4425 64.6071C14.4425 64.6071 14.4425 63.5445 16.9204 63.4028C19.3982 63.2611 20.3186 62.6944 22.3717 66.9449C24.4248 71.1954 23.8584 69.4243 23.8584 69.4243C23.8584 69.4243 31.646 67.3699 36.177 61.9152C40.708 56.4604 41.4867 46.6134 40.5664 41.1587C39.7168 35.7039 38.3717 33.0828 36.3186 30.2491C34.1947 27.5572 27.6106 23.0942 27.6106 23.0942Z" fill="url(#paint1_radial_178_1768)"/>
<path d="M21.8761 27.2028C21.8761 27.2028 24.5664 17.9935 32.9203 13.1054C41.9115 7.86319 52.3186 8.2174 60.7434 13.1054C69.1681 17.9935 75.6106 28.1238 73.8407 38.75C72.2124 48.5261 64.708 56.5311 58.3363 57.2395C48.9911 58.2313 41.7699 56.3186 37.5221 48.7386C34.6195 43.4963 36.3894 37.1915 39.4336 34.0744C42.4071 31.0283 47.2212 29.6823 50.4779 31.0991C53.3805 32.3743 53.8761 34.4287 53.8761 34.4287C53.8761 34.4287 47.5044 31.8784 44.9557 35.633C42.4779 39.2459 43.115 41.5128 45.5221 42.5754C47.9292 43.7089 51.7522 42.3629 53.5221 39.8126C55.646 36.7664 54.938 32.4451 52.4602 30.6032C47.3628 26.707 37.2389 29.8948 37.2389 29.8948C37.2389 29.8948 34.3363 27.132 29.0265 27.6279C23.5752 28.0529 23.0088 28.903 23.0088 28.903L21.8761 27.2028Z" fill="url(#paint2_radial_178_1768)"/>
<mask id="mask1_178_1768" style="mask-type:luminance" maskUnits="userSpaceOnUse" x="21" y="9" width="54" height="49">
<path d="M21.8761 27.2028C21.8761 27.2028 24.5664 17.9935 32.9203 13.1054C41.9115 7.86319 52.3186 8.2174 60.7434 13.1054C69.1681 17.9935 75.6106 28.1238 73.8407 38.75C72.2124 48.5261 64.708 56.5311 58.3363 57.2395C48.9911 58.2313 41.7699 56.3186 37.5221 48.7386C34.6195 43.4963 36.3894 37.1915 39.4336 34.0744C42.4071 31.0283 47.2212 29.6823 50.4779 31.0991C53.3805 32.3743 53.8761 34.4287 53.8761 34.4287C53.8761 34.4287 47.5044 31.8784 44.9557 35.633C42.4779 39.2459 43.115 41.5128 45.5221 42.5754C47.9292 43.7089 51.7522 42.3629 53.5221 39.8126C55.646 36.7664 54.938 32.4451 52.4602 30.6032C47.3628 26.707 37.2389 29.8948 37.2389 29.8948C37.2389 29.8948 34.3363 27.132 29.0265 27.6279C23.5752 28.0529 23.0088 28.903 23.0088 28.903L21.8761 27.2028Z" fill="white"/>
</mask>
<g mask="url(#mask1_178_1768)">
<path d="M34.9026 8.57178C36.8849 9.70524 38.5841 11.2637 39.8584 13.0348C41.1327 14.8058 42.0531 16.7894 42.6903 18.8438C43.3274 20.8982 43.7522 23.0234 43.6814 25.1486C43.6814 27.2739 43.1858 29.4699 42.0531 31.241C43.0442 29.3991 43.3274 27.203 43.115 25.1486C42.9734 23.0942 42.4071 21.0398 41.6283 19.198C40.8496 17.2852 39.8584 15.5142 38.5133 13.9557C37.2389 12.3972 35.6814 11.1929 33.9115 10.4136L34.9026 8.57178Z" fill="#363636"/>
<path d="M28.1769 12.8931C34.6902 16.506 38.6548 23.6609 38.5132 30.6742C37.9469 23.6609 33.3451 17.3561 27.2566 14.7349L28.1769 12.8931Z" fill="#363636"/>
<path d="M51.2566 35.8455C51.2566 35.0662 50.9734 34.287 50.4778 33.5077C49.9822 32.7993 49.2743 32.0909 48.4955 31.5242C47.7168 30.9574 46.8672 30.4616 45.9468 30.1074C45.0265 29.7531 44.0353 29.6115 43.0442 29.824C43.9645 29.4698 45.0973 29.4698 46.0884 29.6115C47.1504 29.824 48.1415 30.1782 49.0619 30.6741C49.9822 31.17 50.9026 31.7367 51.6814 32.5868C52.4601 33.3661 53.1681 34.4287 53.3805 35.7038L51.2566 35.8455Z" fill="#363636"/>
<path d="M47.7876 36.6247C46.8672 35.9163 45.4513 35.633 43.9646 35.3496C42.5486 35.0662 41.0619 34.8537 39.646 34.7829C38.2301 34.7829 36.8141 34.9954 35.469 35.5621C34.1239 36.1289 32.9203 36.979 31.646 37.829C32.7787 36.8373 33.9115 35.9163 35.1858 35.1371C36.4602 34.3578 38.0177 33.9328 39.5752 33.7911C41.1327 33.6494 42.6194 33.7203 44.1062 33.8619C45.5221 34.0036 47.2212 34.0036 48.8495 34.9246L47.7876 36.6247Z" fill="#363636"/>
<path d="M46.8672 39.9543C42.1946 39.7418 37.3097 42.4337 34.8318 46.8967C36.6725 42.1504 41.3451 38.4666 46.7964 37.8999L46.8672 39.9543Z" fill="#363636"/>
<path d="M48.5663 42.2212C45.5928 44.0631 43.3273 47.251 42.5486 50.793C41.7698 54.3351 42.407 58.3022 44.4601 61.49C42.1238 58.5147 40.9911 54.4768 41.5574 50.5805C42.053 46.6842 44.1769 42.9296 47.4335 40.4502L48.5663 42.2212Z" fill="#363636"/>
<path d="M51.2566 41.5836C50.407 43.0004 50.1238 44.8423 50.1946 46.755C50.2654 48.5969 50.6194 50.5096 51.2566 52.2806C51.8938 54.0516 52.8141 55.7518 54.0176 57.3103C55.2212 58.798 56.6371 60.144 58.2654 61.2774C56.5663 60.3565 55.0088 59.1522 53.6637 57.6645C52.3185 56.1769 51.1858 54.5475 50.3362 52.7056C49.4867 50.8638 48.9203 48.9511 48.7079 46.8967C48.6371 45.9049 48.5663 44.8423 48.6371 43.7797C48.7079 42.717 48.9911 41.6544 49.4867 40.5918L51.2566 41.5836Z" fill="#363636"/>
<path d="M53.0265 39.3877C54.1592 43.3548 56.8495 46.9677 60.4601 49.2346C64.0707 51.5015 68.6017 52.4225 72.9911 51.6432C68.7433 52.7767 63.9999 52.2808 59.9645 50.1556C55.9291 48.0303 52.6725 44.4174 51.0442 40.0253L53.0265 39.3877Z" fill="#363636"/>
<path d="M54.3008 36.483C56.1415 37.8998 58.3362 38.7499 60.6725 39.1041C63.0088 39.4583 65.4867 39.3167 67.823 38.6791C70.1592 38.0415 72.4247 36.9789 74.407 35.6329C76.4601 34.2869 78.3008 32.5867 79.9292 30.7449C78.3716 32.7284 76.6725 34.4995 74.6902 36.058C72.7079 37.6165 70.5132 38.8916 68.1061 39.6709C65.6991 40.521 63.0796 40.8043 60.5309 40.5918C57.9822 40.3793 55.3628 39.6 53.0973 38.1124L54.3008 36.483Z" fill="#363636"/>
<path d="M54.2301 32.8703C58.761 34.4997 64.1416 34.0038 68.4602 31.5952C72.7787 29.1157 76.0354 24.7236 77.0973 19.6938C76.3894 24.7944 73.4159 29.6116 69.0265 32.5161C64.6371 35.4206 58.9026 36.3415 53.6637 34.9247L54.2301 32.8703Z" fill="#363636"/>
<path d="M52.3185 30.32C53.168 30.32 54.1592 29.8949 55.0795 29.3282C55.5751 29.0449 55.9999 28.7615 56.4955 28.4073C56.9203 28.0531 57.4158 27.7697 57.7698 27.4155C59.4689 25.9987 60.9557 24.2985 62.1592 22.3858C64.5663 18.6312 65.9114 14.0265 65.7698 9.49268C66.2654 14.0974 65.2742 18.8437 63.0795 22.9525C61.9468 25.0069 60.5309 26.9196 58.8318 28.6198C58.407 29.0449 57.9822 29.3991 57.4866 29.8241C56.991 30.1783 56.5663 30.5325 56.0707 30.8867C55.0795 31.5951 53.9468 32.2327 52.4601 32.3744L52.3185 30.32Z" fill="#363636"/>
<path d="M48.7787 29.1156C50.5486 27.9113 51.9645 26.1403 53.0265 24.2276C53.3097 23.7317 53.522 23.2358 53.6636 22.7399C53.876 22.1732 54.0176 21.6773 54.23 21.1106C54.584 20.048 54.7964 18.9145 55.0088 17.781C55.3628 15.5141 55.5043 13.1764 55.3628 10.9094C55.2212 8.57168 54.8672 6.30476 54.3716 4.03784C55.0088 6.30476 55.5751 8.57168 55.8583 10.9094C56.1415 13.2472 56.2123 15.585 55.9999 17.9936C55.9291 19.1979 55.7167 20.3313 55.4336 21.5356C55.292 22.1024 55.1504 22.6691 55.0088 23.2358C54.8672 23.8025 54.6548 24.4401 54.3716 25.0068C53.3805 27.2738 51.9645 29.3282 49.9114 30.8867L48.7787 29.1156Z" fill="#363636"/>
<path d="M44.8849 28.6905C45.876 26.8486 46.6548 24.865 47.0796 22.8106C47.5043 20.7563 47.6459 18.631 47.5043 16.5058C47.1504 12.2553 45.3805 8.14651 42.761 4.67529C45.6636 7.93399 47.7875 11.9719 48.4955 16.3641C48.8495 18.5602 48.9203 20.8271 48.6371 23.094C48.3539 25.3609 47.7167 27.4862 46.7964 29.6114L44.8849 28.6905Z" fill="#363636"/>
<path d="M34.407 31.2408C34.1946 29.9657 33.2743 28.8322 32.1415 27.8404C31.5752 27.3445 30.938 26.8487 30.23 26.4236C29.5929 25.9986 28.8849 25.5027 28.2477 25.0776C27.5398 24.6526 26.9026 24.2984 26.1238 24.015C25.4159 23.7316 24.6371 23.59 23.8584 23.4483C22.3008 23.1649 20.6017 23.0941 19.115 22.5273C20.6725 22.8815 22.3008 22.8107 23.9291 22.9524C24.7079 23.0232 25.5575 23.0941 26.407 23.3066C27.2566 23.5191 28.0353 23.8025 28.7433 24.1567C29.5221 24.5109 30.23 24.8651 30.938 25.2902C31.646 25.7152 32.3539 26.0694 33.0619 26.5653C33.7699 27.0612 34.4778 27.5571 35.0442 28.2655C35.6814 28.9739 36.1769 29.824 36.3893 30.7449L34.407 31.2408Z" fill="#363636"/>
</g>
<path d="M38.8672 23.5193C40.2124 22.9526 41.5575 22.5275 42.761 21.7483C42.5487 23.3068 42.3363 24.8653 42.0531 26.353C41.8407 27.5573 41.6991 28.8324 41.3451 30.0367C40.4956 32.7995 38.6548 35.279 36.177 36.7666C36.6018 36.4833 35.6106 32.7995 35.3982 32.3036C35.0442 31.1702 34.3363 30.1076 34.1239 28.9741C33.7699 26.2113 36.7433 24.4403 38.8672 23.5193Z" fill="url(#paint3_radial_178_1768)"/>
<path d="M22.3009 42.4338C23.1505 41.442 24 40.4502 24.8496 39.4584C25.062 39.1751 25.3451 38.8917 25.6991 38.8208C25.9823 38.75 26.2655 38.8208 26.5487 38.8917C28.177 39.2459 29.8761 39.6001 31.5044 39.9543C31.1505 39.9543 30.7257 40.1668 30.3717 40.1668C30.1593 40.3794 29.9469 40.5919 29.8053 40.8752C29.5929 41.1586 29.3098 41.442 29.0266 41.6545C28.3894 42.1504 27.469 42.3629 26.6195 42.2921C25.7699 42.2212 24.9912 41.9379 24.2124 41.5128C23.646 41.7962 23.0089 42.0795 22.3009 42.4338Z" fill="#27292D"/>
<path d="M29.5929 39.9543C29.1682 40.6627 28.531 41.1586 27.7522 41.3711C26.9735 41.5837 26.1239 41.5837 25.416 41.3003C24.9912 41.1586 24.6372 40.9461 24.354 40.6627C24.6372 39.8126 25.5575 39.175 26.4071 39.175C26.6903 39.175 26.9735 39.1751 27.2567 39.2459C28.0354 39.5293 28.8142 39.6709 29.5929 39.9543Z" fill="url(#paint4_radial_178_1768)"/>
<path d="M26.6195 40.3086C26.8319 40.592 27.1859 40.7337 27.5399 40.7337C27.6814 40.7337 27.7522 40.7337 27.8938 40.6628C27.9646 40.592 28.0354 40.592 28.1062 40.4503C28.2478 40.3086 28.3186 40.0961 28.3186 39.8836C28.3186 39.6711 28.177 39.5294 28.0354 39.3877C27.8938 39.246 27.6814 39.246 27.5399 39.1752C27.2567 39.1043 26.8319 38.8918 26.6195 39.246C26.4071 39.5294 26.4071 40.0253 26.6195 40.3086Z" fill="#27292D"/>
<path d="M28.4602 40.2378C28.4602 40.4503 28.3186 40.592 28.1062 40.592C27.8938 40.592 27.7522 40.4503 27.7522 40.2378C27.7522 40.0252 27.8938 39.8835 28.1062 39.8835C28.3186 39.8835 28.4602 40.0252 28.4602 40.2378Z" fill="white"/>
<path d="M1.06189 58.0897C1.91145 58.6564 2.61941 59.4357 3.04419 60.3566C3.04419 59.294 3.68136 58.3731 4.46012 57.7355C5.23888 57.0979 6.15924 56.602 7.07959 56.0353C7.29198 55.8936 7.57516 55.6103 7.50437 55.3269C8.07074 55.9645 8.14154 56.9563 7.64596 57.6647C7.15039 58.3731 6.23003 58.6564 5.45127 59.0107C4.67251 59.3649 3.75216 59.8607 3.61056 60.7108C3.53977 61.065 3.61056 61.4193 3.68136 61.7735C3.75216 62.1985 3.89375 62.6944 4.10614 63.0486C4.74331 64.0404 6.01764 64.3237 7.15039 64.3237C10.6194 64.3946 13.876 62.5527 16.2123 60.0024C16.3539 60.1441 16.2831 60.4983 16.1415 60.64C15.1504 62.0568 13.7345 63.1194 12.1769 63.757C10.6194 64.4654 8.9203 64.7488 7.22118 64.8196C6.37162 64.8905 5.45127 64.8196 4.8849 64.1821C4.46012 64.3946 3.82295 64.3237 3.39817 64.1112C2.8318 63.8279 2.33623 63.332 1.98224 62.7652C1.98224 62.6944 1.91145 62.6236 1.98224 62.6236C2.47782 62.7652 2.761 63.1903 3.18578 63.4736C3.53977 63.757 4.10614 64.0404 4.53092 63.8279C4.03534 63.4736 3.68136 62.9778 3.46897 62.4819C3.25658 61.9151 3.11499 61.3484 3.04419 60.7817C2.47782 60.215 1.91145 59.6482 1.27428 59.1523C1.13269 58.7273 1.34508 58.5148 1.06189 58.0897Z" fill="#27292D"/>
<path d="M42.1947 64.9613L42.8319 63.8279L43.4691 64.9613C44.0354 66.024 44.9558 66.9449 46.0177 67.5116L47.1505 68.1492L46.0177 68.7868C44.9558 69.3535 44.0354 70.2744 43.4691 71.337L42.8319 72.4705L42.1947 71.337C41.6283 70.2744 40.708 69.3535 39.646 68.7868L38.5133 68.1492L39.646 67.5116C40.708 66.9449 41.5576 66.024 42.1947 64.9613Z" fill="white"/>
<path d="M53.5221 62.2694L53.8761 61.6318L54.2301 62.2694C54.584 62.8361 55.0088 63.332 55.646 63.6862L56.2832 64.0404L55.646 64.3946C55.0796 64.7489 54.584 65.1739 54.2301 65.8115L53.8761 66.449L53.5221 65.8115C53.1681 65.2447 52.7433 64.7489 52.1062 64.3946L51.469 64.0404L52.1062 63.6862C52.7433 63.332 53.2389 62.907 53.5221 62.2694Z" fill="white"/>
<path opacity="0.45" d="M26.9026 30.1074C23.9292 32.6577 21.0265 35.7039 18.8318 38.9626C18.761 38.8917 18.9026 38.9626 18.9026 39.0334C18.8318 39.1042 18.761 39.0334 18.6902 39.0334C17.2035 39.3876 15.7876 40.2377 14.7964 41.442C14.23 42.1504 13.4513 42.7172 12.8141 43.3547C12.4601 42.7172 11.8938 42.2213 11.1858 42.1504C12.1061 40.8044 12.5309 39.1042 12.3185 37.4749C12.2477 36.9082 12.2477 36.1998 11.8938 35.7747C14.7256 32.9411 17.2743 29.8949 19.6814 26.707C21.1681 29.1156 24.5663 30.4616 27.3274 29.7532C27.0442 29.8949 27.115 29.8949 26.9026 30.1074Z" fill="white"/>
</g>
<defs>
<radialGradient id="paint0_radial_178_1768" cx="0" cy="0" r="1" gradientUnits="userSpaceOnUse" gradientTransform="translate(9.61025 24.2565) scale(50.2003 50.232)">
<stop offset="0.0539864" stop-color="#548BEB"/>
<stop offset="0.4648" stop-color="#78A1D6"/>
<stop offset="1" stop-color="#8FAED6"/>
</radialGradient>
<radialGradient id="paint1_radial_178_1768" cx="0" cy="0" r="1" gradientUnits="userSpaceOnUse" gradientTransform="translate(7.93267 68.2486) scale(68.917 68.9605)">
<stop offset="0.1679" stop-color="#EA8928"/>
<stop offset="0.474" stop-color="#EAA628"/>
<stop offset="0.9281" stop-color="#EAA628"/>
</radialGradient>
<radialGradient id="paint2_radial_178_1768" cx="0" cy="0" r="1" gradientUnits="userSpaceOnUse" gradientTransform="translate(47.9711 33.3049) rotate(-178.486) scale(25.1283 25.1442)">
<stop offset="0.0539864" stop-color="#363636"/>
<stop offset="0.4648" stop-color="#78A1D6"/>
<stop offset="1" stop-color="#8FAED6"/>
</radialGradient>
<radialGradient id="paint3_radial_178_1768" cx="0" cy="0" r="1" gradientUnits="userSpaceOnUse" gradientTransform="translate(43.3792 14.2731) scale(40.1731 40.1985)">
<stop offset="0.1679" stop-color="#EA8928"/>
<stop offset="0.474" stop-color="#EAA628"/>
<stop offset="0.9281" stop-color="#EAA628"/>
</radialGradient>
<radialGradient id="paint4_radial_178_1768" cx="0" cy="0" r="1" gradientUnits="userSpaceOnUse" gradientTransform="translate(24.6511 39.4326) scale(12.0655 12.0731)">
<stop offset="0.1679" stop-color="#EA8928"/>
<stop offset="0.474" stop-color="#EAA628"/>
<stop offset="0.9281" stop-color="#EAA628"/>
</radialGradient>
<clipPath id="clip0_178_1768">
<rect width="80" height="72.4706" fill="white"/>
</clipPath>
</defs>
</svg>
