<svg width="46" height="80" viewBox="0 0 46 80" fill="none" xmlns="http://www.w3.org/2000/svg">
<g clip-path="url(#clip0_178_3677)">
<path d="M13.8798 29.4165C14.0708 29.928 14.3255 30.4396 14.3255 31.0152C14.3891 31.7826 14.0708 32.486 13.6251 33.0615C13.1794 33.6371 12.5428 34.0847 11.9061 34.4684C11.2057 34.9161 10.4417 35.2358 9.67765 35.4916C9.61398 35.4916 9.55031 35.5555 9.42297 35.5555C10.3143 36.8985 11.3967 38.2414 12.2244 39.5843C13.0521 39.2646 13.8798 38.8809 14.6438 38.3693C15.5352 37.7938 16.3629 37.0264 16.7449 36.0032C16.9359 35.4276 16.9996 34.7882 16.9996 34.2126C16.9996 33.6371 16.9359 33.1255 16.8086 32.6139C16.6176 31.9744 16.2992 31.4628 15.9809 30.8873C15.7262 30.4396 15.4079 30.0559 14.9622 29.7362C14.5802 29.4165 14.0708 29.2246 13.5615 29.2246C13.7525 29.3525 13.8161 29.2886 13.8798 29.4165Z" fill="url(#paint0_radial_178_3677)"/>
<path d="M21.9021 0C21.5201 0.127898 21.2018 0.447642 21.0108 0.767386C20.8198 1.08713 20.7561 1.47082 20.6924 1.85452C20.6288 2.55795 20.6924 3.26139 20.7561 3.96483C20.8198 4.66827 20.9471 5.30775 21.0744 5.94724C21.1381 6.58673 21.2018 7.22622 21.1381 7.80176C21.0744 8.3773 20.9471 8.95284 20.6924 9.40048C20.5651 9.65628 20.4378 9.84812 20.3104 10.04C20.1831 10.2318 19.9921 10.3597 19.8011 10.4237C19.4191 10.6155 19.037 10.6795 18.464 10.6155C18.2093 10.6155 17.891 10.5516 17.5727 10.4876C17.2543 10.4237 16.8723 10.3597 16.4266 10.3597C15.9809 10.3597 15.5989 10.3597 15.1532 10.4876C14.7076 10.6155 14.2619 10.7434 13.7525 11.0631C13.4978 11.191 13.3068 11.4468 13.1158 11.6387C12.9248 11.8945 12.7338 12.1503 12.6701 12.4061C12.4155 12.9816 12.4155 13.6211 12.4791 14.1966C12.6065 14.7722 12.7975 15.2198 12.9885 15.6035C13.1795 15.9872 13.4342 16.3709 13.6888 16.6906C13.9435 17.0104 14.2619 17.3301 14.4529 17.522C14.6439 17.7138 14.8349 17.9696 14.9622 18.1615C15.0896 18.3533 15.2169 18.5452 15.2806 18.6731C15.3442 18.801 15.3442 18.8649 15.2806 18.8649C15.2806 18.8649 15.2806 18.8649 15.1532 18.9289C14.9622 18.9928 14.6439 19.0568 14.3255 18.9928C13.9435 18.9289 13.4342 18.801 12.7975 18.5452C12.4791 18.4173 12.1608 18.2894 11.7788 18.2254C11.5878 18.1615 11.3968 18.0975 11.1421 18.0975C10.8874 18.0336 10.6964 18.0336 10.4417 17.9696C9.4867 17.9057 8.40433 17.9057 7.25829 18.4812C6.68527 18.801 6.11225 19.2486 5.66656 19.8241C5.22088 20.4636 4.96621 21.1671 4.90254 21.8705C4.83887 22.5739 4.90254 23.2134 5.09354 23.789C5.28455 24.3645 5.53923 24.9401 5.85757 25.3877C6.55793 26.3469 7.38563 26.9864 8.14965 27.4341C8.91368 27.8817 9.55037 28.2014 10.1871 28.4572C11.3968 28.9688 12.5428 29.4165 13.4342 29.9281C13.6889 30.056 13.8799 30.1839 14.0709 30.3118C14.2619 30.4397 14.4529 30.5675 14.6439 30.7594C15.0259 31.0791 15.3442 31.3989 15.5989 31.7186C15.8536 32.0384 16.0446 32.4221 16.2356 32.8058C16.2993 32.9976 16.3629 33.1895 16.3629 33.3813C16.3629 33.4452 16.3629 33.5092 16.3629 33.5092V33.6371C16.3629 33.765 16.3629 33.8289 16.3629 33.9568C16.3629 34.4045 16.2356 34.8521 15.9809 35.2998C15.7263 35.7474 15.4716 36.259 15.0896 36.7066C14.3255 37.6019 13.1158 38.3693 11.9698 39.0727L12.2881 39.5843C12.9885 39.5843 13.6889 39.5204 14.4529 39.3925C15.1532 39.2646 15.8536 38.9448 16.554 38.6251C17.2543 38.2414 17.891 37.7938 18.464 37.2182C19.037 36.6427 19.5464 35.8753 19.8647 35.044C20.1831 34.2126 20.3741 33.1895 20.2467 32.2302C20.1831 31.271 19.8647 30.3757 19.4827 29.5444C19.1007 28.713 18.5914 28.0096 18.0183 27.3701C17.7637 27.0504 17.4453 26.7306 17.0633 26.4748C16.745 26.219 16.4266 25.9632 16.1083 25.7074C14.7712 24.8122 13.4342 24.1727 12.2245 23.6611C11.5878 23.4053 11.0784 23.1495 10.6327 22.9576C10.4417 22.8297 10.2507 22.7658 10.1234 22.7018C10.0597 22.6379 9.99605 22.6379 9.93238 22.5739L9.86871 22.51C9.86871 22.51 9.86871 22.51 9.80505 22.51C9.74138 22.446 9.67771 22.3821 9.67771 22.3821C9.61404 22.3181 9.61404 22.3181 9.61404 22.3181C9.61404 22.3181 9.55037 22.3821 9.4867 22.446C9.42303 22.51 9.35936 22.51 9.35936 22.446C9.35936 22.3821 9.67771 22.2542 10.0597 22.2542C10.1234 22.2542 10.2507 22.2542 10.3144 22.2542C10.4417 22.2542 10.5691 22.2542 10.6964 22.3181C10.9511 22.3821 11.2694 22.446 11.5878 22.51C12.2245 22.7018 13.0522 22.8937 13.9435 22.9576C15.0259 23.0216 15.9809 22.7658 16.936 22.1903C17.4453 21.8705 17.891 21.4229 18.2093 20.8473C18.4003 20.5276 18.5277 20.2078 18.5914 19.8881C18.655 19.6962 18.655 19.5683 18.655 19.3765C18.655 19.1847 18.655 19.0568 18.655 18.8649C18.655 18.2254 18.4003 17.6499 18.2093 17.1383C17.9547 16.6906 17.7 16.307 17.4453 15.9872C17.1906 15.6675 16.8723 15.4117 16.6176 15.1559C16.2993 14.9001 16.1719 14.7722 15.9809 14.5803C15.5989 14.1966 15.3442 13.813 15.2806 13.6211C15.2169 13.4932 15.2169 13.4932 15.2169 13.4293C15.2169 13.3653 15.2169 13.3653 15.2806 13.2374C15.4079 13.0456 15.9173 12.9177 16.3629 12.8537C16.6176 12.8537 16.936 12.8537 17.2543 12.8537C17.5727 12.8537 17.9547 12.8537 18.3367 12.8537C18.7187 12.8537 19.1644 12.7898 19.5464 12.6619C19.9921 12.534 20.4378 12.3421 20.8198 12.0863C21.2018 11.8305 21.5201 11.5108 21.7748 11.1271C22.0295 10.7434 22.2205 10.3597 22.3478 10.04C22.6025 9.27258 22.6662 8.5052 22.6662 7.73781C22.6025 6.20304 22.0931 4.92406 21.7111 3.70903C21.5201 3.06954 21.3928 2.43006 21.3928 1.85452C21.3928 1.27898 21.5201 0.639488 21.9658 0.447642L21.9021 0Z" fill="url(#paint1_radial_178_3677)"/>
<path d="M14.5165 39.3926C17.7636 40.7994 20.2467 43.805 21.0744 47.2583C21.9657 51.1592 20.756 55.1879 19.3553 58.897C17.9546 62.606 16.2992 66.379 16.1718 70.3438C16.1082 73.797 17.2542 77.3142 19.419 80.0001C19.228 77.9537 20.3103 75.9074 21.6474 74.3726C25.7222 69.7683 32.1527 68.2335 38.1376 66.8906C40.6207 66.379 43.1675 65.8034 45.6506 66.2511C43.8678 60.4957 41.7031 54.2926 36.7369 50.9034C36.3549 50.6476 35.9729 50.4557 35.5272 50.4557C35.5909 44.9561 32.4711 39.7763 28.1416 36.4509C23.8121 33.1256 18.4003 31.399 12.9884 30.5676C13.4978 33.7011 14.6438 36.323 14.5165 39.3926Z" fill="url(#paint2_radial_178_3677)"/>
<path d="M4.13853 67.594C3.56551 68.809 3.50185 70.2798 3.94753 71.5588C3.82019 70.8554 4.32954 70.1519 4.83889 69.7043C6.93997 67.7219 9.80507 66.379 10.8238 63.6931C11.9698 60.7515 10.3781 57.3622 8.02234 55.3158C6.23961 53.781 4.2022 52.566 3.94753 50.0081C1.46444 52.6939 2.99249 54.8682 4.52055 57.4901C7.06731 61.7746 6.0486 63.4373 4.13853 67.594Z" fill="url(#paint3_radial_178_3677)"/>
<path d="M28.5237 34.2766C25.7859 34.1487 24.0032 35.2358 22.5388 36.7706C22.1568 35.9393 21.7111 35.2358 21.2017 34.5324C19.992 32.8697 16.1082 30.3118 16.1082 30.3118L12.7338 30.6315L5.60286 38.1775C5.60286 38.1775 6.11222 39.6483 5.92121 40.4157C5.7302 41.1831 0 49.4964 0 49.4964C0 49.4964 0.382013 49.9441 0.636689 51.5428C0.955034 53.1415 0.445682 54.2286 1.97374 55.1239C3.50179 56.0192 2.41942 56.9145 5.41186 55.8274C8.4043 54.6763 8.4043 54.6763 8.4043 54.6763C8.4043 54.6763 11.8424 53.5252 13.0521 56.0831C14.2618 58.5772 18.464 56.3389 21.1381 53.1415C23.8122 49.9441 24.2579 44.1887 23.7485 40.9912C23.6848 40.4157 23.5575 39.968 23.4302 39.4565C24.5125 39.5204 25.5949 39.6483 26.6773 39.4565C29.3514 38.9449 31.1341 36.5788 32.6622 34.3405C31.3251 34.7242 29.9244 34.3405 28.5237 34.2766Z" fill="url(#paint4_linear_178_3677)"/>
<path d="M13.0521 41.6946C13.5615 41.1191 14.0708 40.5436 14.5802 39.968C14.7075 39.8401 14.8349 39.6483 15.0895 39.5843C15.2805 39.5204 15.4079 39.5843 15.5989 39.5843C16.5539 39.7762 17.5089 40.032 18.5277 40.2238C18.3366 40.2238 18.082 40.3517 17.891 40.3517C17.7636 40.4796 17.6363 40.6075 17.5726 40.7354C17.4453 40.8633 17.3179 41.0552 17.1269 41.1831C16.7449 41.5028 16.2356 41.6307 15.7262 41.5667C15.2169 41.5028 14.7712 41.3749 14.3255 41.1191C13.8798 41.3109 13.4341 41.5028 13.0521 41.6946Z" fill="#27292D"/>
<path d="M17.3179 40.2238C17.0632 40.6075 16.6812 40.9272 16.2355 41.0551C15.7898 41.183 15.2805 41.183 14.8348 41.0551C14.5801 40.9911 14.3891 40.8633 14.1981 40.6714C14.3891 40.1598 14.8985 39.8401 15.4078 39.7761C15.5988 39.7761 15.7262 39.7761 15.9172 39.8401C16.4265 39.968 16.8722 40.0959 17.3179 40.2238Z" fill="url(#paint5_radial_178_3677)"/>
<path d="M15.5989 40.4156C15.7262 40.6075 15.9172 40.6714 16.1082 40.6714C16.1719 40.6714 16.2356 40.6714 16.2993 40.6075C16.3629 40.6075 16.4266 40.5435 16.4266 40.4796C16.4903 40.4156 16.5539 40.2877 16.5539 40.1598C16.5539 40.0319 16.4903 39.968 16.3629 39.904C16.2993 39.8401 16.1719 39.7761 16.0446 39.7761C15.8536 39.7122 15.6626 39.5843 15.5352 39.7761C15.4716 39.968 15.4716 40.2238 15.5989 40.4156Z" fill="#27292D"/>
<path d="M16.6812 40.4156C16.6812 40.5435 16.6175 40.6075 16.4902 40.6075C16.3629 40.6075 16.2992 40.4796 16.2992 40.4156C16.2992 40.2877 16.3629 40.2238 16.4902 40.2238C16.5539 40.1598 16.6812 40.2877 16.6812 40.4156Z" fill="white"/>
<path d="M0.636719 50.9032C1.14607 51.2229 1.52808 51.7345 1.78276 52.2461C1.78276 51.6706 2.16477 51.095 2.61046 50.7113C3.05614 50.3276 3.62916 50.0718 4.13851 49.7521C4.26585 49.6882 4.45685 49.4963 4.39318 49.3684C4.71153 49.7521 4.7752 50.3276 4.45685 50.7113C4.20218 51.159 3.62916 51.2869 3.18348 51.4787C2.73779 51.6706 2.22844 51.9903 2.1011 52.438C2.03743 52.6298 2.1011 52.8856 2.16477 53.0774C2.22844 53.3332 2.29211 53.589 2.41945 53.8448C2.80146 54.4204 3.50182 54.6122 4.20218 54.6122C6.23958 54.6122 8.14965 53.589 9.4867 52.0543C9.61404 52.1822 9.4867 52.3101 9.42303 52.438C8.85001 53.2693 8.02231 53.8448 7.13095 54.2925C6.23958 54.6762 5.22088 54.868 4.20218 54.932C3.69283 54.932 3.18348 54.932 2.80146 54.5483C2.54679 54.6762 2.22844 54.6122 1.97377 54.4843C1.65542 54.2925 1.33708 54.0367 1.14607 53.7169V53.653C1.40075 53.7169 1.59175 53.9727 1.84643 54.1646C2.03744 54.3564 2.35578 54.4843 2.61046 54.3564C2.35578 54.1646 2.1011 53.8448 1.97377 53.5251C1.84643 53.2053 1.78276 52.8856 1.71909 52.5019C1.40075 52.1822 1.0824 51.8624 0.700388 51.5427C0.700388 51.2229 0.764057 51.159 0.636719 50.9032Z" fill="#27292D"/>
<path d="M22.2205 28.777C21.7111 28.9049 21.1381 29.0967 20.6924 29.4164C20.0557 29.8641 19.6737 30.5036 19.4827 31.271C19.2917 31.9744 19.2917 32.7418 19.419 33.5092C19.5464 34.3405 19.7374 35.1079 19.992 35.8753C20.0557 35.9392 20.0557 36.0032 20.0557 36.1311C18.464 36.259 16.7449 36.195 15.1532 36.4508C14.8985 35.6195 14.7075 34.6602 14.5802 33.765C14.5165 32.6778 14.5802 31.5907 15.0895 30.6954C15.4079 30.1838 15.8536 29.7362 16.3629 29.3525C16.8086 29.0327 17.2543 28.713 17.7636 28.5212C18.3367 28.2654 18.9733 28.2014 19.61 28.1375C20.1194 28.0735 20.6287 28.0735 21.1381 28.2014C21.6474 28.3293 22.0931 28.5851 22.4115 28.9688C22.4115 28.8409 22.3478 28.713 22.2205 28.777Z" fill="url(#paint6_radial_178_3677)"/>
<path d="M40.2387 4.2207C40.4297 4.6044 40.3661 5.05204 40.175 5.43573C40.0477 5.81942 39.793 6.07522 39.5384 6.33101C39.029 6.84261 38.456 7.2263 37.8193 7.60999C37.2463 7.99368 36.6096 8.24948 36.1002 8.63317C35.5272 8.95292 35.0179 9.33661 34.6359 9.7203C34.1902 10.104 33.8718 10.5516 33.6172 11.0632C33.4898 11.319 33.4261 11.5748 33.3625 11.7667C33.2988 12.0225 33.2988 12.2143 33.3625 12.4062C33.4261 12.7898 33.6808 13.1735 34.0628 13.5572C34.2538 13.7491 34.4448 13.9409 34.6995 14.1967C34.9542 14.4525 35.2089 14.6444 35.4636 15.0281C35.7182 15.3478 35.9729 15.7315 36.1639 16.1152C36.3549 16.4989 36.5459 17.0105 36.5459 17.586C36.5459 17.8418 36.5459 18.1615 36.4823 18.4813C36.4186 18.801 36.2912 19.0568 36.1639 19.3126C35.8456 19.8242 35.3999 20.2719 34.8905 20.5916C34.3812 20.8474 33.9355 20.9753 33.4898 21.0392C33.0441 21.1032 32.5984 21.1032 32.2164 21.1032C31.8344 21.1032 31.3887 21.0392 31.1341 21.0392C30.8157 21.0392 30.561 21.0392 30.3064 21.0392C30.0517 21.0392 29.8607 21.1032 29.7333 21.1032C29.606 21.1671 29.5423 21.2311 29.5423 21.2311C29.5423 21.2311 29.5423 21.2311 29.606 21.2311C29.606 21.2311 29.606 21.2311 29.6697 21.359C29.7333 21.5508 29.9244 21.8706 30.1154 22.0624C30.4337 22.3182 30.8157 22.638 31.3887 22.9577C31.6434 23.1496 31.9618 23.3414 32.2801 23.5333C32.4711 23.6611 32.5984 23.789 32.7895 23.9169C32.9805 24.0448 33.1715 24.2367 33.2988 24.4285C33.9992 25.132 34.5722 25.9633 34.8905 27.2423C35.0179 27.8818 35.0179 28.6492 34.8269 29.3526C34.6359 30.056 34.1902 30.6955 33.6808 31.2071C33.1715 31.7187 32.6621 32.0385 32.0891 32.2942C31.5161 32.55 30.9431 32.6779 30.37 32.7419C29.1603 32.8058 28.2053 32.55 27.3776 32.2303C26.5499 31.9106 25.9132 31.5908 25.3402 31.2711C24.1942 30.6316 23.1118 30.056 22.1567 29.6084C21.9021 29.4805 21.6474 29.4165 21.4564 29.3526C21.2017 29.2887 21.0107 29.2247 20.756 29.1608C20.3103 29.0329 19.8647 28.9689 19.419 29.0329C18.9733 29.0329 18.5913 29.0968 18.2093 29.2247C18.0183 29.2887 17.8273 29.3526 17.6999 29.4805C17.6363 29.4805 17.6363 29.5444 17.5726 29.5444L17.4452 29.6084C17.3816 29.6723 17.2542 29.7363 17.1906 29.8002C16.8722 30.056 16.6176 30.4397 16.3629 30.9513C16.1082 31.399 15.9809 31.9745 15.8535 32.55C15.5988 33.7011 15.7899 35.108 15.9809 36.4509L15.2805 36.387C14.7712 35.8114 14.4528 35.1719 14.1345 34.5325C13.8161 33.893 13.5614 33.1895 13.4341 32.4221C13.3068 31.6548 13.2431 30.8874 13.3704 30.056C13.4978 29.2247 13.7524 28.3934 14.1981 27.562C14.6438 26.7946 15.3442 26.0273 16.1082 25.5157C16.8722 25.0041 17.7636 24.6204 18.655 24.4285C19.5463 24.2367 20.4377 24.1727 21.2654 24.2367C21.7111 24.2367 22.0931 24.3006 22.5388 24.4285C22.9208 24.4925 23.3665 24.6204 23.7485 24.7483C25.2765 25.1959 26.6136 25.8994 27.7596 26.5388C28.3326 26.8586 28.9057 27.1783 29.2877 27.3702C29.4787 27.4341 29.6697 27.562 29.797 27.562C29.8607 27.562 29.9244 27.626 29.988 27.626H30.0517C30.0517 27.626 30.0517 27.626 30.1154 27.626C30.179 27.626 30.2427 27.626 30.3064 27.626C30.37 27.626 30.4337 27.626 30.4337 27.626C30.4337 27.626 30.37 27.7539 30.37 27.8178C30.37 27.8818 30.37 27.9457 30.4337 27.9457C30.4974 27.8818 30.37 27.562 30.179 27.3062C30.1154 27.2423 30.0517 27.1783 29.988 27.1144C29.9244 27.0504 29.797 26.9225 29.7333 26.8586C29.5423 26.6667 29.2877 26.4749 29.033 26.2831C28.5236 25.8994 27.8233 25.3878 27.2503 24.6843C26.5499 23.853 26.1042 22.9577 25.9769 21.8066C25.9132 21.2311 25.9769 20.5916 26.2316 19.9521C26.3589 19.6324 26.5499 19.3126 26.7409 19.0568C26.8682 18.9289 26.9319 18.801 27.0593 18.6731C27.1866 18.5452 27.3139 18.4813 27.4413 18.3534C27.9506 17.9697 28.5236 17.7779 29.033 17.65C29.5423 17.5221 29.988 17.5221 30.4337 17.586C30.8794 17.586 31.2614 17.65 31.5797 17.7139C31.9618 17.7779 32.2164 17.8418 32.4711 17.8418C32.9805 17.9058 33.4898 17.9058 33.6808 17.7779C33.8082 17.7139 33.8082 17.7139 33.8718 17.7139C33.9355 17.65 33.9355 17.65 33.9355 17.5221C33.9992 17.3302 33.8082 16.8186 33.5535 16.4349C33.4261 16.2431 33.2351 15.9873 33.0441 15.7315C32.8531 15.4757 32.5984 15.2199 32.3438 14.9002C32.0891 14.5804 31.8981 14.2607 31.7071 13.813C31.5161 13.4293 31.3887 12.9177 31.3887 12.4701C31.3887 12.0225 31.4524 11.5748 31.5797 11.1272C31.7071 10.7435 31.8981 10.3598 32.0891 9.9761C32.5348 9.27266 33.0441 8.76107 33.6808 8.31343C34.9542 7.41815 36.2276 7.03445 37.4373 6.52286C38.0103 6.26707 38.5833 6.01127 39.0927 5.62758C39.5384 5.30783 39.984 4.79624 39.8567 4.28465L40.2387 4.2207Z" fill="url(#paint7_radial_178_3677)"/>
<path opacity="0.45" d="M15.9172 56.275C19.2917 55.7634 22.2205 53.2054 23.4938 50.008C24.7672 46.8106 24.3852 43.1015 22.8572 40.032C23.4302 46.6827 21.3291 52.4381 15.9172 56.275Z" fill="white"/>
<path opacity="0.45" d="M28.269 38.7531C30.0517 37.8578 31.3888 36.2591 32.3438 34.5325C30.4974 36.4509 27.887 37.4741 25.3402 37.9857C24.8309 38.1136 23.3665 38.1776 23.0482 38.5612C22.6025 39.1368 23.5575 39.3926 24.0032 39.4565C25.4676 39.7123 26.9956 39.3926 28.269 38.7531Z" fill="white"/>
<path d="M41.2575 59.2166C35.782 60.1759 30.3065 61.7746 25.9133 65.1639C21.5201 68.5532 18.3367 73.9888 18.9734 79.4884C17.7637 73.6691 19.1007 67.466 22.1568 62.4141C25.2129 57.3621 29.9244 53.3973 35.1453 50.7114C38.2651 52.7578 39.9205 55.7634 41.2575 59.2166Z" fill="url(#paint8_radial_178_3677)"/>
</g>
<defs>
<radialGradient id="paint0_radial_178_3677" cx="0" cy="0" r="1" gradientUnits="userSpaceOnUse" gradientTransform="translate(9.62439 37.161) rotate(-128.21) scale(16.1094 16.0929)">
<stop offset="0.0539864" stop-color="#548BEB"/>
<stop offset="0.4648" stop-color="#78A1D6"/>
<stop offset="1" stop-color="#8FAED6"/>
</radialGradient>
<radialGradient id="paint1_radial_178_3677" cx="0" cy="0" r="1" gradientUnits="userSpaceOnUse" gradientTransform="translate(17.2914 20.2061) rotate(-128.21) scale(16.1362 16.1198)">
<stop offset="0.0539864" stop-color="#548BEB"/>
<stop offset="0.4648" stop-color="#78A1D6"/>
<stop offset="1" stop-color="#8FAED6"/>
</radialGradient>
<radialGradient id="paint2_radial_178_3677" cx="0" cy="0" r="1" gradientUnits="userSpaceOnUse" gradientTransform="translate(20.1336 71.864) scale(66.3422 66.6339)">
<stop offset="0.1679" stop-color="#EA8928"/>
<stop offset="0.474" stop-color="#EAA628"/>
<stop offset="0.9281" stop-color="#EAA628"/>
</radialGradient>
<radialGradient id="paint3_radial_178_3677" cx="0" cy="0" r="1" gradientUnits="userSpaceOnUse" gradientTransform="translate(5.78756 46.1085) scale(48.8632 49.0781)">
<stop offset="0.0539864" stop-color="#548BEB"/>
<stop offset="0.4648" stop-color="#78A1D6"/>
<stop offset="1" stop-color="#8FAED6"/>
</radialGradient>
<linearGradient id="paint4_linear_178_3677" x1="-1.70142" y1="51.4504" x2="49.1588" y2="27.4819" gradientUnits="userSpaceOnUse">
<stop offset="0.1679" stop-color="#EA8928"/>
<stop offset="0.474" stop-color="#EAA628"/>
<stop offset="0.9281" stop-color="#EAA628"/>
</linearGradient>
<radialGradient id="paint5_radial_178_3677" cx="0" cy="0" r="1" gradientUnits="userSpaceOnUse" gradientTransform="translate(14.4241 39.9141) scale(7.0598 7.09083)">
<stop offset="0.1679" stop-color="#EA8928"/>
<stop offset="0.474" stop-color="#EAA628"/>
<stop offset="0.9281" stop-color="#EAA628"/>
</radialGradient>
<radialGradient id="paint6_radial_178_3677" cx="0" cy="0" r="1" gradientUnits="userSpaceOnUse" gradientTransform="translate(18.8265 36.9412) scale(16.0659 16.1365)">
<stop offset="0.0539864" stop-color="#548BEB"/>
<stop offset="0.4648" stop-color="#78A1D6"/>
<stop offset="1" stop-color="#8FAED6"/>
</radialGradient>
<radialGradient id="paint7_radial_178_3677" cx="0" cy="0" r="1" gradientUnits="userSpaceOnUse" gradientTransform="translate(27.3128 20.3849) scale(16.0927 16.1635)">
<stop offset="0.0539864" stop-color="#548BEB"/>
<stop offset="0.4648" stop-color="#78A1D6"/>
<stop offset="1" stop-color="#8FAED6"/>
</radialGradient>
<radialGradient id="paint8_radial_178_3677" cx="0" cy="0" r="1" gradientUnits="userSpaceOnUse" gradientTransform="translate(29.8725 65.1247) scale(12.9228 12.9796)">
<stop offset="0.1799" stop-color="#EAA628"/>
<stop offset="0.9281" stop-color="#EAA628"/>
</radialGradient>
<clipPath id="clip0_178_3677">
<rect width="45.7143" height="80" fill="white"/>
</clipPath>
</defs>
</svg>
