<svg width="57" height="80" viewBox="0 0 57 80" fill="none" xmlns="http://www.w3.org/2000/svg">
<g clip-path="url(#clip0_178_3599)">
<path d="M21.5092 6.31957C19.3511 4.38061 16.1139 3.87792 13.3084 4.73968C10.5028 5.60144 8.27276 7.68402 6.76208 10.1975C9.27988 10.6284 11.7977 10.4847 14.2435 9.91023C9.13601 10.1975 4.4601 14.0754 3.16523 19.0305C4.89172 18.0969 6.83402 16.9479 7.55339 15.1526C6.69015 19.9641 3.95654 24.4165 0 27.4327C2.80555 27.7917 5.32334 25.8528 7.48145 23.9856C3.74073 27.3609 2.08617 32.9623 3.3091 37.8456C3.52492 34.8294 5.25141 32.1005 6.90596 29.5871C5.89884 32.8187 6.11465 36.4093 7.7692 39.4255C8.56051 38.4201 9.20794 37.3429 9.63957 36.1221C8.99213 37.9892 9.42375 40.0718 9.42375 42.0108C9.42375 46.0323 7.69726 49.982 4.67591 52.711C6.97789 51.921 8.92019 50.1257 9.78344 47.8276C9.13601 48.9048 8.56051 50.4129 8.12889 51.5619C7.48145 53.2136 6.97789 55.009 7.04983 56.8043C7.19371 59.3178 8.48857 61.6158 9.7115 63.842C9.35182 63.4829 9.56763 62.8366 9.78344 62.3339C10.4309 61.0413 11.2222 59.8205 12.1574 58.6715C11.438 61.0413 11.2941 63.9856 12.2293 66.2837C12.517 67.0736 12.9487 67.8636 13.5242 68.5099C14.9629 70.0898 17.193 70.5925 18.9194 71.8851C18.7756 70.7361 18.6317 69.5871 18.5598 68.5099C19.2072 70.2334 20.6459 71.526 22.1566 72.6032C23.6673 73.6804 25.3218 74.5422 26.6167 75.9066C26.6886 74.614 26.8325 73.3214 26.9045 72.0287C28.1274 74.4704 28.559 77.4147 28.3432 80.1436C29.7819 79.6409 31.2207 78.9946 32.2997 77.9892C32.8752 77.4147 33.3788 76.7684 33.7385 76.0503C35.0333 74.0395 36.0405 71.7415 36.0405 69.2998C36.7598 70.377 37.1195 71.5978 36.9756 72.8187C38.7021 70.8797 40.1409 68.6535 41.148 66.2837C41.2199 68.6535 41.6516 71.0952 43.0184 73.0341C42.299 70.018 43.5219 67.0018 44.529 64.0574C45.4642 61.1131 46.1836 57.7379 44.529 55.1526C45.8239 56.158 46.7591 57.5224 47.0468 59.1023C48.6295 57.0198 49.3488 54.4345 49.4208 51.7774C49.4927 49.1921 48.8453 46.6068 48.054 44.1652C49.0611 46.4632 50.7876 47.8995 53.0896 48.9048C51.2911 46.1759 50.284 43.0162 50.1401 39.7127C51.5069 40.5027 53.3054 40.7181 54.816 40.1436C53.737 40.4309 52.8018 39.2819 52.3702 38.2047C51.2192 35.0449 52.0105 31.0952 49.7804 28.5099C50.9314 31.0233 53.737 32.675 56.4706 32.8187C54.7441 31.3824 53.8089 29.1562 53.1615 27.0018C52.586 24.8474 52.2263 22.5494 51.3631 20.4668C50.4998 18.3842 48.9172 16.3734 46.7591 15.7271C47.9101 15.8707 49.0611 15.6553 50.0682 15.2244C49.2049 15.4399 48.5575 14.5781 48.054 13.9318C47.1188 12.6391 46.0397 11.3465 44.6729 10.5566C43.3061 9.76661 41.5077 9.47935 40.0689 10.1257C41.7954 8.1149 44.3852 7.10952 46.9749 6.67864C42.9464 7.18133 39.7812 2.94434 35.7527 2.65709C34.6737 2.58528 33.6665 2.80072 32.6594 3.08797C30.7171 3.66248 28.8468 4.66786 27.2641 5.88869C27.5519 3.51885 28.9187 1.29264 30.861 0C27.408 0.143627 24.0989 2.65709 23.0199 5.9605C23.3076 3.94973 22.3005 1.86715 20.574 0.718133C21.3653 2.44165 21.6531 4.45242 21.5092 6.31957Z" fill="url(#paint0_linear_178_3599)"/>
<path d="M13.74 18.5277C12.7329 19.5331 11.8696 20.8257 11.3661 22.1902C10.5748 20.7539 9.78345 19.1022 9.78345 17.4505C9.78345 16.9478 9.85538 16.4451 10.1431 16.0143C10.4309 15.5834 10.8625 15.2961 11.3661 15.3679C12.8767 15.5834 13.3084 17.1633 13.74 18.5277Z" fill="#27292D"/>
<path d="M39.2058 14.219C39.6374 13.9317 40.1409 13.7163 40.6445 13.8599C40.7884 13.9317 41.0042 14.0754 41.0761 14.1472C41.9394 14.9371 42.299 16.158 42.371 17.307C42.4429 18.456 42.1552 19.6768 41.8674 20.754C41.8674 19.8922 41.2919 19.1023 40.7164 18.456C40.069 17.7378 39.2777 17.1633 38.4864 16.5888C37.9828 16.3016 37.5512 16.0861 36.9757 15.9425C37.6231 15.368 38.4144 14.7217 39.2058 14.219Z" fill="#27292D"/>
<path d="M18.2 17.4506C17.9842 16.5888 16.9052 16.4452 16.4735 17.1633C16.2577 17.4506 16.1138 17.8815 15.97 18.3123C15.3225 20.4667 16.0419 21.1131 14.819 22.8366C13.5961 24.5601 13.1644 25.2782 13.1644 25.2782C13.1644 25.2782 13.3083 23.9856 13.7399 28.5098C14.1715 33.0341 13.9557 32.675 13.7399 34.5421C13.4522 36.4093 13.7399 36.4093 14.2435 37.1992C14.747 38.061 14.4593 38.5637 15.0348 40C15.6822 41.4362 17.5526 43.2315 17.5526 43.2315C17.5526 43.2315 17.4087 46.1759 17.8403 47.0377C18.272 47.9712 19.7826 49.2639 21.653 49.3357C23.5234 49.4075 24.1708 49.6229 25.7534 47.6122C27.336 45.6014 27.1922 44.596 28.7748 44.5242C30.3574 44.4524 31.3645 44.7396 31.3645 44.7396C31.3645 44.7396 34.6736 41.9389 35.8246 39.2818C36.9756 36.6965 39.5653 32.4596 39.5653 32.4596C39.5653 32.4596 37.4072 31.5978 36.8317 30.2333C36.2562 28.7971 37.2633 29.1561 37.2633 29.1561C37.2633 29.1561 37.695 28.5098 36.6878 25.9964C35.6807 23.4829 34.7455 22.6929 34.7455 22.6929C34.7455 22.6929 34.3139 23.4111 33.3787 22.4775C32.4436 21.5439 33.6665 20.1795 33.2349 18.5996C32.8752 17.0197 32.8752 15.9425 31.1487 15.4398C30.0696 15.1526 29.638 14.578 27.1202 17.1633C24.6024 19.7486 21.1494 23.7701 21.1494 23.7701C21.1494 23.7701 19.9265 23.052 18.9194 20.2513C18.6316 18.9587 18.3439 18.0969 18.2 17.4506Z" fill="url(#paint1_linear_178_3599)"/>
<path d="M29.8538 23.9138C29.4222 23.7702 29.0625 23.5547 28.6309 23.4111C28.1993 23.2675 27.7676 23.1956 27.336 23.3393C26.6886 23.6265 26.4008 24.3447 26.185 25.0628C26.0411 25.5655 25.8973 26.0682 25.6815 26.5709C25.4657 27.2172 25.3218 27.7917 25.3218 28.438C25.5376 27.8635 25.6815 27.289 26.0411 26.7863C26.3289 26.2836 26.7605 25.8527 27.336 25.6373C27.6957 25.4937 28.0554 25.4937 28.3431 25.35C28.9906 25.2064 29.4941 24.8474 30.0696 24.5601C30.5732 24.3447 31.1487 24.1292 31.7242 24.201C31.1487 23.9138 30.4293 24.1292 29.8538 23.9138Z" fill="#27292D"/>
<path d="M16.5454 24.56C16.9771 24.3446 17.4806 24.2009 17.9122 24.4164C18.2719 24.6318 18.2719 25.1345 18.2719 25.4936C18.2719 27.2171 17.6964 28.9406 16.7613 30.4487C17.1209 29.0843 17.5526 27.7916 17.6964 26.4272C17.6964 26.3553 17.6964 26.2835 17.6964 26.2835C17.6245 26.2117 17.5526 26.2835 17.4087 26.2835C16.6893 26.3553 16.3296 26.3553 15.8261 26.0681C15.3944 25.7808 14.8909 25.4936 14.3873 25.35C15.1067 25.4936 15.9699 24.8473 16.5454 24.56Z" fill="#27292D"/>
<path d="M15.6103 33.8959C16.1858 33.6087 16.8332 33.465 17.4087 33.3932C18.2719 33.2496 19.0632 33.106 19.9265 33.106C20.6459 33.106 21.4372 33.2496 22.1565 33.3932C22.5882 33.465 23.0198 33.6087 23.3075 33.8959C23.5953 34.1832 23.4514 34.6859 23.3795 35.1167C23.3075 35.404 23.2356 35.6912 23.0198 35.9785C22.804 36.1939 22.5162 36.3376 22.1565 36.2657C21.8688 36.1939 21.7249 35.9785 21.5091 35.8349C21.2214 35.6912 20.8617 35.7631 20.5739 35.8349C20.1423 36.0503 19.7826 36.4094 19.6387 36.8402C19.4229 37.4148 19.6387 38.0611 19.7826 38.6356C19.9265 39.0665 20.0704 39.4973 20.2862 39.9282C20.3581 40.1437 20.502 40.3591 20.6459 40.5027C20.8617 40.79 21.1494 40.9336 21.4372 41.0772C21.9407 41.2927 22.4443 41.5081 22.9478 41.6517C23.5953 41.8672 24.3146 42.1544 24.9621 42.3699C25.3937 42.5135 25.8973 42.6571 26.3289 42.7289C26.8324 42.7289 27.336 42.6571 27.6957 42.3699C27.9115 42.2262 27.9834 42.0108 28.1992 41.7954C28.3431 41.6517 28.487 41.5799 28.6309 41.6517C28.7028 41.6517 28.7028 41.7236 28.7028 41.7954C28.8467 42.2262 28.5589 42.7289 28.1992 43.0162C27.6237 43.4471 26.9044 43.5907 26.185 43.5189C25.4656 43.4471 24.7463 43.2316 24.0988 42.9444C23.0917 42.5853 22.0846 42.2262 21.1494 41.8672C20.9336 41.7954 20.6459 41.7236 20.3581 41.6517C19.8545 41.6517 19.4229 41.939 19.0632 42.2262C18.7036 42.5135 18.3439 42.9444 17.9122 43.1598C17.7684 43.2316 17.6245 43.3034 17.5526 43.2316C17.4087 43.1598 17.4087 43.0162 17.4087 42.8726C17.4806 42.7289 17.5526 42.6571 17.6245 42.5853C18.3439 41.8672 19.4229 41.3645 19.7826 40.3591C19.5668 39.3537 19.2791 38.3483 18.7036 37.4866C18.2 36.8402 17.5526 36.3376 17.2648 35.5476C17.1929 35.404 17.1209 35.2604 17.049 35.2604C16.9051 35.2604 16.9051 35.4758 16.8332 35.5476C16.7613 35.6912 16.6174 35.763 16.4016 35.763C16.2577 35.763 16.1138 35.6912 15.9699 35.6912C15.7541 35.6194 15.6103 35.5476 15.4664 35.3322C15.3225 35.1167 15.3944 34.9013 15.3944 34.6858C15.4664 34.5422 15.5383 34.255 15.6103 33.8959Z" fill="#27292D"/>
<path d="M26.7605 24.7038C26.8325 24.8474 26.9763 24.9192 27.1202 24.9192C27.2641 24.8474 27.2641 24.7038 27.2641 24.5602C27.1921 24.4165 27.0483 24.3447 26.9044 24.3447C26.7605 24.3447 26.6886 24.4884 26.7605 24.7038Z" fill="white"/>
<path d="M16.9052 25.2065C16.9771 25.3501 17.121 25.4219 17.2649 25.4219C17.4087 25.3501 17.4087 25.2065 17.4087 25.0629C17.3368 24.9192 17.1929 24.8474 17.049 24.8474C16.9052 24.9192 16.8332 25.0629 16.9052 25.2065Z" fill="white"/>
<path d="M29.1345 24.3447C28.559 24.9192 27.7677 25.2065 27.0483 25.0629C27.3361 25.2783 27.6958 25.3501 28.0555 25.2065C28.4151 25.0629 28.7029 24.8474 28.9906 24.5602C29.0626 24.5602 29.1345 24.4884 29.1345 24.3447C29.2065 24.3447 29.2065 24.3447 29.1345 24.3447Z" fill="#575457"/>
<path d="M27.6958 62.1185C28.2713 64.9192 29.2784 67.6481 29.9258 70.377C30.5733 73.1777 30.7172 76.1939 29.4942 78.7791C34.3859 72.6032 37.1915 64.3447 35.1773 56.7325C34.5298 54.2908 33.3788 51.9928 32.084 49.7666C31.2926 48.4021 30.2855 45.2423 29.2065 47.6122C27.2642 51.9928 26.8326 57.4506 27.6958 62.1185Z" fill="url(#paint2_linear_178_3599)"/>
<path opacity="0.15" d="M36.1843 43.3752C35.1772 45.8168 36.0404 48.6175 37.2634 50.9874C38.5582 53.2854 40.2128 55.4398 41.0041 57.9532C42.1551 61.7593 41.076 65.9963 42.0831 69.8743C42.0112 68.3662 42.227 66.9299 42.5867 65.4936C43.3061 62.8365 44.7448 60.1795 44.3132 57.4506C43.8096 53.8599 40.3567 51.4182 38.4144 48.3303C36.9037 45.9604 36.3282 43.0161 36.7598 40.1436C35.9685 41.7953 35.6088 43.7342 35.6807 45.5296" fill="#D43217"/>
<path d="M41.22 32.5315C41.1481 35.3322 40.3567 38.0611 40.069 40.8618C39.7813 43.6625 39.9971 46.6787 41.5077 48.9767C42.371 50.3412 43.6659 51.3465 44.7449 52.5674C45.824 53.7882 46.7591 55.2963 46.6872 56.8762C48.5576 52.4956 48.4856 47.3968 46.5433 43.088C45.4643 40.79 43.9536 38.7792 43.3062 36.3376C42.7307 34.1832 42.8745 31.957 42.4429 29.7307C41.8674 27.0018 40.2129 24.4884 37.9109 22.8367C40.3567 25.2065 41.3639 29.2999 41.22 32.5315Z" fill="url(#paint3_linear_178_3599)"/>
<path d="M7.84113 37.4866C7.84113 34.7576 10.2151 32.7469 11.438 30.3052C12.9487 27.1454 12.8048 23.3393 13.5242 19.9641C11.1502 20.1077 8.99212 25.781 8.34469 27.6481C7.1937 31.167 7.84113 33.9677 7.84113 37.4866Z" fill="url(#paint4_linear_178_3599)"/>
<path d="M13.5242 59.8204C13.2364 63.6983 14.6032 67.8635 17.6965 70.1615C16.5455 68.6535 16.7613 66.5709 17.4088 64.7755C18.0562 63.052 19.0633 61.4003 19.495 59.605C20.4301 55.7271 18.4878 51.6337 17.6246 47.8994C17.4807 49.8384 16.5455 50.9874 15.6823 52.7109C14.5313 54.9371 13.74 57.307 13.5242 59.8204Z" fill="url(#paint5_linear_178_3599)"/>
<path d="M23.955 5.67323C24.8183 3.37521 26.8325 1.57988 29.2064 1.00537C28.1993 1.22081 27.4799 2.2262 27.1922 3.23158C26.9044 4.02153 26.7606 4.81148 26.6886 5.60142C26.6167 7.1095 26.7606 9.76659 24.6744 10.0538C22.3724 10.3411 23.5234 6.82225 23.955 5.67323Z" fill="url(#paint6_linear_178_3599)"/>
<path d="M44.5291 21.7595C44.4571 23.7703 44.0255 25.781 44.0255 27.7918C44.0255 31.5979 45.6801 35.404 48.4856 37.9893C49.9243 39.3538 51.8666 40.4309 53.8809 40.2873C52.658 39.9283 51.7228 38.9229 51.2192 37.702C50.7157 36.553 50.6437 35.2604 50.5718 33.9678C50.356 30.4489 50.4279 26.9301 49.4927 23.5548C48.7014 20.8977 46.6872 17.2353 43.7378 16.4453C43.6658 17.1634 44.2413 18.0252 44.3852 18.8152C44.5291 19.8924 44.601 20.8259 44.5291 21.7595Z" fill="url(#paint7_linear_178_3599)"/>
<path d="M19.1353 16.4451C18.7756 17.7378 18.8475 19.174 19.1353 20.5385C19.423 22.3338 19.9985 24.0573 20.9337 25.5654C20.7898 23.7701 21.9408 22.1184 23.3076 20.9694C24.6025 19.7485 26.1851 18.7432 27.1203 17.2351C28.3432 15.3679 29.0626 10.1256 25.4657 10.7719C22.7321 11.2028 19.8546 13.788 19.1353 16.4451Z" fill="url(#paint8_linear_178_3599)"/>
<path d="M38.1985 23.7703C39.1337 24.9911 39.7811 26.4992 40.1408 28.0072C40.4286 29.5871 40.5005 31.167 40.3566 32.7469C40.2128 34.3268 39.8531 35.8349 39.4934 37.343C39.0618 38.8511 38.6301 40.3591 38.6301 41.7954C38.4863 44.8116 39.7811 47.8277 41.9393 49.9103C42.5147 50.413 43.0902 50.9157 43.7377 51.3466C44.3851 51.7774 45.0325 52.2083 45.68 52.711C46.9029 53.7882 47.4065 55.5117 47.1187 57.0916H47.0468C47.2626 55.5835 46.6871 53.9318 45.5361 52.9265C44.9606 52.4238 44.3132 51.9929 43.5938 51.562C42.9464 51.1311 42.2989 50.7002 41.7234 50.1976C39.4215 48.0432 38.1266 44.9552 38.1985 41.7954C38.2705 40.2155 38.7021 38.7074 39.1337 37.1993C39.5653 35.6913 39.925 34.1832 40.0689 32.6033C40.2128 31.0952 40.2128 29.5153 39.925 27.9354C39.7092 26.4992 39.1337 25.0629 38.1985 23.7703Z" fill="#D48517"/>
<path d="M22.2285 9.98201C21.8688 9.4075 21.4372 8.83299 21.0055 8.3303C20.5739 7.82761 20.0704 7.32491 19.5668 6.89403C18.5597 6.03227 17.2648 5.31414 16.0419 5.52958C14.747 5.60139 13.5241 6.31953 12.3012 7.03766C11.0782 7.75579 9.99918 8.54574 8.77625 9.33569C9.8553 8.47393 10.9344 7.54035 12.1573 6.82222C13.3083 6.10409 14.6031 5.31414 16.0419 5.17052C17.4806 5.02689 18.8474 5.81683 19.8546 6.75041C20.7897 7.61217 21.653 8.76118 22.2285 9.98201Z" fill="#D48517"/>
<path d="M27.5519 9.62293C28.1274 8.25847 29.2064 7.03765 30.4294 6.17589C31.6523 5.31413 33.163 4.73962 34.7456 4.596C36.2563 4.45237 37.8389 4.66781 39.2776 5.31413C39.997 5.60138 40.6444 6.03226 41.2919 6.2477C41.9393 6.53496 42.6587 6.67858 43.378 6.39133V6.46314C42.7306 6.82221 41.8674 6.7504 41.2199 6.46314C40.5005 6.2477 39.8531 5.88864 39.1337 5.60138C37.7669 5.02688 36.2563 4.88325 34.7456 4.95506C33.2349 5.09869 31.7962 5.60138 30.5732 6.39133C29.3503 7.25309 28.3432 8.33029 27.5519 9.62293Z" fill="#D48517"/>
<path d="M29.1345 12.4236C29.9258 12.0645 30.7891 11.6336 31.6523 11.2746C32.5156 10.9155 33.3788 10.6283 34.2421 10.341C36.0405 9.83831 37.9108 9.62287 39.7812 9.83831C40.7164 9.98194 41.6516 10.1974 42.5148 10.5564C43.3781 10.9155 44.1694 11.49 44.8887 12.0645C45.6081 12.639 46.2555 13.2854 46.9749 13.788C47.6943 14.2907 48.4856 14.7934 49.3488 14.9371V15.0089C48.4137 14.9371 47.5504 14.5062 46.831 14.0035C46.0397 13.5008 45.3923 12.9263 44.6729 12.3518C43.9536 11.7773 43.2342 11.2746 42.3709 10.9155C41.5077 10.5564 40.6444 10.341 39.7812 10.2692C37.9828 10.0538 36.1844 10.2692 34.3859 10.7001C32.5156 11.131 30.7891 11.8491 29.1345 12.4236Z" fill="#D48517"/>
<path d="M20.8617 12.0645C20.0704 11.7773 19.2791 11.5618 18.4878 11.4182C17.6965 11.2028 16.9052 11.0591 16.0419 10.9873C14.4593 10.8437 12.7328 10.9873 11.2941 11.6336C9.78341 12.2082 8.63241 13.429 7.55336 14.6498L5.82687 16.4451L4.02844 18.2405L7.33755 14.4344C8.4166 13.2135 9.63953 11.9209 11.1502 11.2746C12.7328 10.6283 14.4593 10.4846 16.1139 10.7001C17.7684 10.8437 19.351 11.4182 20.8617 12.0645Z" fill="#D48517"/>
<path d="M13.3802 34.1113C12.445 34.9731 12.0134 36.2657 12.0134 37.4866C11.9415 38.7074 12.2292 40 12.5889 41.149C12.9486 42.3699 13.3083 43.5907 13.4521 44.9551C13.596 46.2478 13.3802 47.684 12.8766 48.8331C12.3731 50.0539 11.6537 51.1311 11.0063 52.2083C10.3589 53.2855 9.85529 54.4345 9.49561 55.5835C9.13592 56.8043 8.92011 58.0251 8.92011 59.3178C8.84817 60.6104 8.99205 61.8313 9.35173 63.0521H9.2798C8.48849 60.6104 8.48849 57.9533 9.20786 55.5117C9.56754 54.2909 10.0711 53.1418 10.7185 51.9928C11.366 50.9156 12.0134 49.8384 12.517 48.6176C13.0205 47.4686 13.2363 46.176 13.0925 44.8833C12.9486 43.5907 12.5889 42.3699 12.3012 41.149C11.9415 39.9282 11.7257 38.6356 11.8695 37.3429C11.8695 36.1939 12.3012 34.9013 13.3802 34.1113Z" fill="#D48517"/>
<path opacity="0.45" d="M16.9052 68.9408C15.2506 65.9965 14.9629 61.8313 15.6822 58.5997C16.1139 56.5889 18.5597 52.0647 17.3368 50.1257C16.9771 51.4184 16.1858 52.8546 15.898 53.6446C15.3226 55.2963 14.7471 56.3017 14.3874 57.9534C13.5961 61.6159 14.4593 66.2119 16.9052 68.9408Z" fill="white"/>
<path opacity="0.45" d="M19.5669 16.6606C18.9914 19.2459 19.5669 21.9748 20.646 24.3447C19.6388 21.8312 19.7108 18.8868 20.8618 16.3734C22.0128 13.7881 24.0989 11.9928 26.6167 10.9156C23.0199 10.6283 20.3582 13.2854 19.5669 16.6606Z" fill="white"/>
<path opacity="0.45" d="M51.0754 39.3537C46.903 36.9838 44.1694 32.3878 44.0255 27.6481C43.9536 25.7091 44.3133 23.7702 44.3852 21.8312C44.4572 20.3232 44.4572 18.3842 43.5939 17.0916C43.3062 18.456 43.5939 20.0359 43.45 21.4722C43.1623 23.9856 42.5868 26.3555 43.0904 28.8689C43.9536 33.3932 46.903 37.4865 51.0754 39.3537Z" fill="white"/>
<path opacity="0.45" d="M16.9771 6.96588C15.3226 6.82226 13.74 7.46858 12.2293 8.25852C10.7906 9.04847 9.35182 9.91023 7.69727 10.3411C9.27988 9.55116 10.6467 8.33034 12.0854 7.25314C13.5242 6.24775 15.3226 5.38599 17.0491 5.60143C18.7036 5.81687 20.1424 7.0377 21.0776 8.47396C21.4372 9.04847 21.7969 9.55116 22.2286 10.0539C20.7898 8.6894 19.1353 7.18132 16.9771 6.96588Z" fill="white"/>
<path opacity="0.45" d="M24.6744 63.3394C25.9693 68.0072 29.4942 72.316 28.8468 77.1275C29.8539 74.6141 29.4223 71.8133 28.559 69.2281C27.6958 66.7146 26.4009 64.2729 25.8254 61.6877C24.9622 57.8816 25.8254 54.3627 26.329 50.6284C23.5953 53.5009 23.7392 59.8923 24.6744 63.3394Z" fill="white"/>
<path opacity="0.45" d="M22.8041 71.0233C23.8831 71.8851 25.2499 72.6032 25.7535 73.8959C25.6096 71.3106 23.8112 69.1562 22.2286 67.0736C20.9337 65.4219 19.3511 63.1957 19.4949 60.9695C18.9914 64.7756 19.6388 68.5099 22.8041 71.0233Z" fill="white"/>
</g>
<defs>
<linearGradient id="paint0_linear_178_3599" x1="-0.11943" y1="39.7048" x2="56.3827" y2="40.2539" gradientUnits="userSpaceOnUse">
<stop stop-color="#E17921"/>
<stop offset="0.474" stop-color="#EAA628"/>
<stop offset="0.9281" stop-color="#EAA628"/>
</linearGradient>
<linearGradient id="paint1_linear_178_3599" x1="21.6921" y1="47.9629" x2="31.0878" y2="9.29641" gradientUnits="userSpaceOnUse">
<stop stop-color="#E17921"/>
<stop offset="0.4909" stop-color="#EAA628"/>
<stop offset="0.9974" stop-color="#FFD282"/>
</linearGradient>
<linearGradient id="paint2_linear_178_3599" x1="28.299" y1="55.2259" x2="43.1681" y2="101.256" gradientUnits="userSpaceOnUse">
<stop stop-color="#E17921"/>
<stop offset="0.474" stop-color="#EAA628"/>
<stop offset="0.9281" stop-color="#EAA628"/>
</linearGradient>
<linearGradient id="paint3_linear_178_3599" x1="41.0545" y1="38.5105" x2="65.0356" y2="62.5712" gradientUnits="userSpaceOnUse">
<stop stop-color="#E17921"/>
<stop offset="0.474" stop-color="#EAA628"/>
<stop offset="0.9281" stop-color="#EAA628"/>
</linearGradient>
<linearGradient id="paint4_linear_178_3599" x1="7.45458" y1="20.3887" x2="15.086" y2="40.2702" gradientUnits="userSpaceOnUse">
<stop stop-color="#E17921"/>
<stop offset="0.474" stop-color="#EAA628"/>
<stop offset="0.9281" stop-color="#EAA628"/>
</linearGradient>
<linearGradient id="paint5_linear_178_3599" x1="13.6784" y1="52.014" x2="27.4871" y2="80.654" gradientUnits="userSpaceOnUse">
<stop stop-color="#E17921"/>
<stop offset="0.474" stop-color="#EAA628"/>
<stop offset="0.9281" stop-color="#EAA628"/>
</linearGradient>
<linearGradient id="paint6_linear_178_3599" x1="26.0114" y1="11.1533" x2="26.7686" y2="-6.91794" gradientUnits="userSpaceOnUse">
<stop stop-color="#E17921"/>
<stop offset="0.474" stop-color="#EAA628"/>
<stop offset="0.9281" stop-color="#EAA628"/>
</linearGradient>
<linearGradient id="paint7_linear_178_3599" x1="38.8114" y1="17.6846" x2="65.3151" y2="50.0615" gradientUnits="userSpaceOnUse">
<stop stop-color="#E17921"/>
<stop offset="0.474" stop-color="#EAA628"/>
<stop offset="0.9281" stop-color="#EAA628"/>
</linearGradient>
<linearGradient id="paint8_linear_178_3599" x1="27.2285" y1="8.0729" x2="3.78634" y2="57.818" gradientUnits="userSpaceOnUse">
<stop stop-color="#E17921"/>
<stop offset="0.474" stop-color="#EAA628"/>
<stop offset="0.9281" stop-color="#EAA628"/>
</linearGradient>
<clipPath id="clip0_178_3599">
<rect width="56.4706" height="80" fill="white"/>
</clipPath>
</defs>
</svg>
