<svg width="78" height="84" viewBox="0 0 78 84" fill="none" xmlns="http://www.w3.org/2000/svg">
<path d="M38.893 81.9999C47.4447 81.9999 54.3772 80.0511 54.3772 77.6472C54.3772 75.2432 47.4447 73.2944 38.893 73.2944C30.3413 73.2944 23.4088 75.2432 23.4088 77.6472C23.4088 80.0511 30.3413 81.9999 38.893 81.9999Z" fill="url(#paint0_radial_178_1896)"/>
<path d="M54.3772 75.9211H23.4088V77.7973H54.3772V75.9211Z" fill="url(#paint1_radial_178_1896)"/>
<path d="M54.3772 75.9962C54.3772 78.3977 47.4557 80.3489 38.893 80.3489C30.3303 80.3489 23.4088 78.3977 23.4088 75.9962C23.4088 73.5947 30.3303 71.6435 38.893 71.6435C47.4557 71.5684 54.3772 73.5196 54.3772 75.9962Z" fill="url(#paint2_radial_178_1896)"/>
<path d="M47.527 75.9961C47.527 77.3469 43.6738 78.4726 38.893 78.4726C34.1121 78.4726 30.2589 77.3469 30.2589 75.9961C30.2589 74.6452 34.1121 73.5195 38.893 73.5195C43.6738 73.5195 47.527 74.6452 47.527 75.9961Z" fill="url(#paint3_radial_178_1896)"/>
<path d="M64.5809 21.1369C63.7247 21.437 63.1538 22.2626 61.7267 22.2626C60.2996 22.2626 57.8021 20.2363 52.3078 17.3095C47.3129 14.6078 30.1161 14.6078 25.1212 17.3095C19.6268 20.2363 17.1294 22.2626 15.7022 22.2626C14.2751 22.2626 13.7043 21.5121 12.848 21.1369C11.9917 20.8367 10.9214 22.0374 11.3495 23.4633C11.7063 24.589 13.0621 25.7898 14.846 25.7898C17.6289 25.7898 17.8429 24.3639 26.0488 21.2119C33.2558 18.4352 44.3159 18.4352 51.5228 21.2119C59.7288 24.3639 59.8715 25.7898 62.7257 25.7898C64.5096 25.7898 65.8653 24.589 66.2221 23.4633C66.5075 22.0374 65.4372 20.8367 64.5809 21.1369Z" fill="url(#paint4_radial_178_1896)"/>
<path d="M40.5342 58.7356L39.8206 20.8369L40.6055 18.8106C41.9613 15.2834 41.9613 11.3059 40.6769 7.77872L40.3915 6.9532L41.2477 2.30029H38.8216H38.6076H36.2528L37.1091 6.9532L36.8237 7.77872C35.5393 11.3059 35.5393 15.2834 36.895 18.8106L37.6799 20.8369L36.9664 58.7356L34.3976 74.4954H38.7503H38.8216H43.1743L40.5342 58.7356Z" fill="url(#paint5_radial_178_1896)"/>
<path d="M27.8329 55.5835H4.21411C4.21411 57.6098 6.64021 61.3621 16.0592 61.3621C24.8359 61.3621 27.8329 57.6098 27.8329 55.5835Z" fill="url(#paint6_radial_178_1896)"/>
<path d="M27.8329 55.5836C27.8329 57.0095 22.5525 58.1352 15.9878 58.1352C9.42308 58.1352 4.21411 57.0095 4.21411 55.5836C4.21411 54.1577 9.49444 53.032 16.0592 53.032C22.6239 53.032 27.8329 54.1577 27.8329 55.5836Z" fill="url(#paint7_radial_178_1896)"/>
<path d="M27.9042 55.5835C27.9042 55.8837 27.6902 56.1088 27.4761 56.2589C27.262 56.409 27.048 56.5591 26.8339 56.7092C26.3344 56.9343 25.8349 57.0844 25.3354 57.2345C24.3364 57.5347 23.3375 57.6848 22.2671 57.8349C20.1978 58.1351 18.1285 58.2852 16.0592 58.2852C13.9899 58.2852 11.9205 58.2101 9.85123 57.985C8.78089 57.8349 7.78191 57.6848 6.78293 57.3846C6.28344 57.2345 5.78395 57.0844 5.28446 56.8593C4.99904 56.7092 4.78497 56.6341 4.5709 56.409C4.35683 56.2589 4.07141 55.9587 4.07141 55.5084C4.07141 55.0581 4.35683 54.758 4.5709 54.6079C4.78497 54.3827 5.07039 54.3077 5.28446 54.1576C5.78395 53.9324 6.28344 53.7823 6.78293 53.6323C7.78191 53.3321 8.85225 53.182 9.85123 53.0319C11.9205 52.8067 13.9899 52.7317 16.0592 52.7317C18.1285 52.7317 20.1978 52.8818 22.2671 53.182C23.2661 53.3321 24.3364 53.5572 25.3354 53.7823C25.8349 53.9324 26.3344 54.0825 26.8339 54.3077C27.048 54.4578 27.3334 54.5328 27.4761 54.758C27.6902 55.0581 27.8329 55.2833 27.9042 55.5835ZM27.8329 55.5835C27.8329 55.2833 27.6188 55.0581 27.4047 54.9081C27.1907 54.758 26.9766 54.6079 26.7625 54.5328C26.2631 54.3077 25.7636 54.1576 25.2641 54.0075C24.2651 53.7073 23.2661 53.5572 22.1958 53.4071C20.1978 53.1069 18.1285 53.0319 16.0592 53.0319C13.9899 53.0319 11.9205 53.182 9.85123 53.4071C8.85225 53.5572 7.78191 53.7073 6.78293 54.0075C6.28344 54.1576 5.78395 54.3077 5.28446 54.5328C5.07039 54.6079 4.78497 54.758 4.64226 54.9081C4.42819 55.0581 4.28548 55.2833 4.28548 55.5835C4.28548 55.8086 4.49955 56.0338 4.64226 56.2589C4.85632 56.409 5.07039 56.5591 5.28446 56.6341C5.78395 56.8593 6.28344 57.0094 6.78293 57.1595C7.78191 57.4596 8.78089 57.6097 9.85123 57.7598C11.9205 58.06 13.9899 58.1351 16.0592 58.1351C18.1285 58.1351 20.1978 58.06 22.2671 57.7598C23.2661 57.6097 24.3364 57.4596 25.3354 57.1595C25.8349 57.0094 26.3344 56.8593 26.8339 56.6341C27.048 56.5591 27.3334 56.409 27.4761 56.2589C27.6188 56.1088 27.8329 55.8837 27.8329 55.5835Z" fill="#FFD78C"/>
<path d="M25.4782 54.9832C24.836 54.5329 23.9797 54.2328 23.1948 54.1577C22.9807 54.683 22.6953 55.2834 22.3385 55.7337C22.9093 55.8838 23.6229 56.259 24.1224 56.4842C24.6219 55.8838 25.05 55.5086 25.4782 54.9832Z" fill="#FFD78C"/>
<path d="M4 55.5835L15.4169 22.4128C15.4883 22.1876 15.7737 22.1876 15.8451 22.4128L27.7615 55.5835" stroke="url(#paint8_radial_178_1896)" stroke-width="0.4886" stroke-miterlimit="10" stroke-linecap="round" stroke-linejoin="round"/>
<path d="M73.9999 55.5835H50.3098C50.3098 57.6098 52.7359 61.3621 62.1549 61.3621C70.9316 61.3621 73.9999 57.6098 73.9999 55.5835Z" fill="url(#paint9_radial_178_1896)"/>
<path d="M73.9999 55.5836C73.9999 57.0095 68.7196 58.1352 62.1549 58.1352C55.5901 58.1352 50.3098 57.0095 50.3098 55.5836C50.3098 54.1577 55.6615 53.032 62.1549 53.032C68.6482 53.032 73.9999 54.1577 73.9999 55.5836Z" fill="url(#paint10_radial_178_1896)"/>
<path d="M73.9999 55.5835C73.9999 55.8837 73.7859 56.1088 73.5718 56.2589C73.3577 56.409 73.1437 56.5591 72.9296 56.7092C72.4301 56.9343 71.9306 57.0844 71.4311 57.2345C70.4321 57.5347 69.4332 57.6848 68.3628 57.8349C66.2935 58.1351 64.2242 58.2852 62.1549 58.2852C60.0856 58.2852 58.0162 58.2101 55.9469 57.985C54.8766 57.8349 53.8776 57.6848 52.8786 57.3846C52.3791 57.2345 51.8797 57.0844 51.3802 56.8593C51.0947 56.7092 50.8807 56.6341 50.6666 56.409C50.4525 56.2589 50.1671 55.9587 50.1671 55.5084C50.1671 55.0581 50.4525 54.758 50.6666 54.6079C50.8807 54.3827 51.1661 54.3077 51.3802 54.1576C51.8797 53.9324 52.3791 53.7823 52.8786 53.6323C53.8776 53.3321 54.9479 53.182 55.9469 53.0319C58.0162 52.8067 60.0856 52.7317 62.1549 52.7317C64.2242 52.7317 66.2935 52.8818 68.3628 53.182C69.3618 53.3321 70.4321 53.5572 71.4311 53.7823C71.9306 53.9324 72.4301 54.0825 72.9296 54.3077C73.1437 54.4578 73.4291 54.5328 73.5718 54.758C73.7859 55.0581 73.9999 55.2833 73.9999 55.5835ZM73.9286 55.5835C73.9286 55.2833 73.7145 55.0581 73.5004 54.9081C73.2864 54.758 73.0723 54.6079 72.8582 54.5328C72.3588 54.3077 71.8593 54.1576 71.3598 54.0075C70.3608 53.7073 69.3618 53.5572 68.2915 53.4071C66.2222 53.1069 64.1528 53.0319 62.0835 53.0319C60.0142 53.0319 57.9449 53.182 55.8756 53.4071C54.8766 53.5572 53.8063 53.7073 52.8073 54.0075C52.3078 54.1576 51.8083 54.3077 51.3088 54.5328C51.0947 54.6079 50.8093 54.758 50.6666 54.9081C50.4525 55.0581 50.3098 55.2833 50.3098 55.5835C50.3098 55.8086 50.5239 56.0338 50.6666 56.2589C50.8807 56.409 51.0947 56.5591 51.3088 56.6341C51.8083 56.8593 52.3078 57.0094 52.8073 57.1595C53.8063 57.4596 54.8052 57.6097 55.8756 57.7598C57.9449 58.06 60.0142 58.1351 62.0835 58.1351C64.1528 58.1351 66.2222 58.06 68.2915 57.7598C69.2905 57.6097 70.3608 57.4596 71.3598 57.1595C71.8593 57.0094 72.3588 56.8593 72.8582 56.6341C73.0723 56.5591 73.3577 56.409 73.5004 56.2589C73.7859 56.1088 73.9286 55.8837 73.9286 55.5835Z" fill="#FFD78C"/>
<path d="M71.6453 54.9832C71.0031 54.5329 70.1468 54.2328 69.3619 54.1577C69.1478 54.683 68.8624 55.2834 68.5056 55.7337C69.0765 55.8838 69.79 56.259 70.2895 56.4842C70.789 55.8838 71.1458 55.5086 71.6453 54.9832Z" fill="#FFD78C"/>
<path d="M50.1671 55.5835L61.584 22.4128C61.6554 22.1876 61.9408 22.1876 62.0122 22.4128L73.9286 55.5835" stroke="url(#paint11_radial_178_1896)" stroke-width="0.4886" stroke-miterlimit="10" stroke-linecap="round" stroke-linejoin="round"/>
<path d="M38.6788 2.60038C40.0582 2.60038 41.1763 2.46598 41.1763 2.30019C41.1763 2.1344 40.0582 2 38.6788 2C37.2995 2 36.1814 2.1344 36.1814 2.30019C36.1814 2.46598 37.2995 2.60038 38.6788 2.60038Z" fill="#FFD78C"/>
<path d="M38.3221 23.6885L37.7512 58.2101H39.0356L38.3221 23.6885Z" fill="#FFD78C"/>
<path d="M36.1815 12.8068C36.1102 11.1558 36.6097 8.75431 37.5373 7.47852C36.8951 11.6811 36.8237 15.6586 38.4649 20.0864C38.3936 19.9363 36.3242 18.1352 36.1815 12.8068Z" fill="#FFD78C"/>
<path d="M52.9501 74.8706C53.1641 75.2458 53.4496 75.6211 53.3782 76.0714C53.3069 76.6717 52.736 77.3472 52.2365 77.6473C49.5964 79.0732 46.6708 79.5986 43.6738 79.8237C45.6718 79.5986 47.7411 79.1483 49.525 78.0976C50.0958 77.7974 50.6667 77.3472 51.0235 76.7468C51.2375 76.3715 51.3802 75.8462 51.0235 75.546C51.737 75.2458 52.3079 75.0957 52.9501 74.8706Z" fill="#FFD78C"/>
<defs>
<radialGradient id="paint0_radial_178_1896" cx="0" cy="0" r="1" gradientUnits="userSpaceOnUse" gradientTransform="translate(40.8064 91.1219) scale(58.6494 40.1496)">
<stop offset="0.474" stop-color="#EAA628"/>
<stop offset="0.9281" stop-color="#EAA628"/>
</radialGradient>
<radialGradient id="paint1_radial_178_1896" cx="0" cy="0" r="1" gradientUnits="userSpaceOnUse" gradientTransform="translate(40.8179 79.7359) rotate(27.6262) scale(41.4506 29.8248)">
<stop offset="0.474" stop-color="#EAA628"/>
<stop offset="0.9281" stop-color="#EAA628"/>
</radialGradient>
<radialGradient id="paint2_radial_178_1896" cx="0" cy="0" r="1" gradientUnits="userSpaceOnUse" gradientTransform="translate(27.2395 70.005) scale(62.1808 42.5671)">
<stop stop-color="#E17921"/>
<stop offset="0.474" stop-color="#EAA628"/>
<stop offset="0.9281" stop-color="#EAA628"/>
</radialGradient>
<radialGradient id="paint3_radial_178_1896" cx="0" cy="0" r="1" gradientUnits="userSpaceOnUse" gradientTransform="translate(32.3928 72.6374) scale(34.719 23.7676)">
<stop offset="0.474" stop-color="#EAA628"/>
<stop offset="0.9281" stop-color="#EAA628"/>
</radialGradient>
<radialGradient id="paint4_radial_178_1896" cx="0" cy="0" r="1" gradientUnits="userSpaceOnUse" gradientTransform="translate(38.6939 20.4856) scale(19.7513 20.7731)">
<stop offset="0.474" stop-color="#EAA628"/>
<stop offset="0.9281" stop-color="#EAA628"/>
</radialGradient>
<radialGradient id="paint5_radial_178_1896" cx="0" cy="0" r="1" gradientUnits="userSpaceOnUse" gradientTransform="translate(35.3359 -10.8605) scale(163.309 171.757)">
<stop offset="0.474" stop-color="#EAA628"/>
<stop offset="0.9281" stop-color="#EAA628"/>
</radialGradient>
<radialGradient id="paint6_radial_178_1896" cx="0" cy="0" r="1" gradientUnits="userSpaceOnUse" gradientTransform="translate(7.12999 54.5254) scale(43.4943 45.7441)">
<stop offset="0.474" stop-color="#EAA628"/>
<stop offset="0.9281" stop-color="#EAA628"/>
</radialGradient>
<radialGradient id="paint7_radial_178_1896" cx="0" cy="0" r="1" gradientUnits="userSpaceOnUse" gradientTransform="translate(7.12728 52.0555) scale(43.0973 45.3267)">
<stop stop-color="#E17921"/>
<stop offset="0.474" stop-color="#EAA628"/>
<stop offset="0.9281" stop-color="#EAA628"/>
</radialGradient>
<radialGradient id="paint8_radial_178_1896" cx="0" cy="0" r="1" gradientUnits="userSpaceOnUse" gradientTransform="translate(15.9011 38.9204) scale(14.175 14.9082)">
<stop offset="0.2571" stop-color="#78A1D6"/>
<stop offset="0.5264" stop-color="#8FAED6"/>
<stop offset="1" stop-color="#B2D2FF"/>
</radialGradient>
<radialGradient id="paint9_radial_178_1896" cx="0" cy="0" r="1" gradientUnits="userSpaceOnUse" gradientTransform="translate(53.2521 54.5254) scale(43.4944 45.7443)">
<stop offset="0.474" stop-color="#EAA628"/>
<stop offset="0.9281" stop-color="#EAA628"/>
</radialGradient>
<radialGradient id="paint10_radial_178_1896" cx="0" cy="0" r="1" gradientUnits="userSpaceOnUse" gradientTransform="translate(53.2495 52.0555) scale(43.0973 45.3267)">
<stop stop-color="#E17921"/>
<stop offset="0.474" stop-color="#EAA628"/>
<stop offset="0.9281" stop-color="#EAA628"/>
</radialGradient>
<radialGradient id="paint11_radial_178_1896" cx="0" cy="0" r="1" gradientUnits="userSpaceOnUse" gradientTransform="translate(62.0233 38.9204) scale(14.175 14.9082)">
<stop offset="0.2571" stop-color="#78A1D6"/>
<stop offset="0.5264" stop-color="#8FAED6"/>
<stop offset="1" stop-color="#B2D2FF"/>
</radialGradient>
</defs>
</svg>
