<svg width="80" height="53" viewBox="0 0 80 53" fill="none" xmlns="http://www.w3.org/2000/svg">
<g clip-path="url(#clip0_178_3720)">
<path d="M37.5217 24.2925C37.5217 24.342 37.5217 24.342 37.5713 24.3915C37.6208 24.441 37.6704 24.441 37.6704 24.441C38.6121 24.6884 39.5043 25.2326 40.1487 25.9747C40.2974 25.2821 40.2478 24.5894 40.0496 23.9462C39.9009 23.5009 39.653 23.1051 39.5539 22.6104C39.4052 21.8188 39.7026 21.0766 39.9009 20.3345C39.1078 20.5324 38.513 20.7303 38.0669 21.4724C37.5713 22.3135 37.373 23.303 37.5217 24.2925Z" fill="url(#paint0_linear_178_3720)"/>
<g opacity="0.3">
<path d="M39.5043 20.5819C39.1574 21.324 38.9591 22.2146 39.2069 23.0557C39.3556 23.4515 39.5539 23.8473 39.7026 24.2431C39.8513 24.6389 40 25.0347 40.0496 25.48C40 25.0347 39.8017 24.6389 39.653 24.2431C39.4548 23.8473 39.3061 23.4515 39.1078 23.0557C38.8104 22.2146 39.0087 21.2745 39.3556 20.4829L39.5043 20.5819Z" fill="#D43217"/>
</g>
<g opacity="0.3">
<path d="M38.9096 20.5324C38.6122 21.1261 38.3643 21.7693 38.1661 22.4125C37.9678 23.0557 37.8191 23.6988 37.8687 24.3915C37.8191 23.6988 37.9182 23.0557 38.0669 22.4125C38.2652 21.7693 38.513 21.1261 38.7609 20.4829L38.9096 20.5324Z" fill="#D43217"/>
</g>
<g opacity="0.3">
<path d="M39.1078 20.6314C38.513 21.9178 38.4139 23.4021 38.8104 24.7379C38.3643 23.4021 38.4139 21.8683 38.9591 20.5325L39.1078 20.6314Z" fill="#D43217"/>
</g>
<path d="M26.7658 26.2716C26.3197 28.1517 25.4771 29.9328 24.2379 31.4171C23.6431 30.4276 23.544 29.1907 23.3953 28.0527C23.2466 26.9148 23.0483 25.6779 22.2552 24.7873C22.7013 24.1936 23.1474 23.5999 23.5935 23.0062C24.4362 21.9177 25.2788 20.6808 25.1301 19.345C25.9232 19.7408 26.7658 20.0376 27.6084 20.285C27.1127 20.1366 27.2614 22.6104 27.2614 22.9567C27.2119 24.0947 27.0632 25.1831 26.7658 26.2716Z" fill="url(#paint1_linear_178_3720)"/>
<g opacity="0.3">
<path d="M26.8154 20.0376C26.9145 21.9177 26.8154 23.8472 26.3693 25.7273C26.1214 26.6674 25.824 27.5579 25.4275 28.399C25.031 29.2401 24.4362 30.0317 24.1884 30.9718C24.4362 30.0317 24.9814 29.2401 25.3779 28.399C25.7745 27.5579 26.0719 26.6179 26.2701 25.7273C26.6667 23.8967 26.7658 21.9672 26.6171 20.0871L26.8154 20.0376Z" fill="#D43217"/>
</g>
<g opacity="0.3">
<path d="M25.7745 19.4438C25.6258 20.5818 25.378 21.6703 24.9319 22.7587C24.4858 23.7483 23.7919 24.7378 22.8005 25.3315C23.7423 24.6883 24.4362 23.7483 24.8328 22.7093C25.2293 21.6703 25.4276 20.5323 25.5762 19.4438H25.7745Z" fill="#D43217"/>
</g>
<g opacity="0.3">
<path d="M26.2702 19.7407C26.2207 20.3839 26.1711 21.0271 26.072 21.6208C25.9728 22.264 25.7746 22.8577 25.5267 23.4514C25.0311 24.6388 24.2876 25.6778 23.3458 26.5684C24.2876 25.6778 24.9815 24.5894 25.4276 23.4514C25.6754 22.8577 25.8241 22.264 25.9233 21.6208C26.0224 20.9776 26.072 20.3839 26.072 19.7407H26.2702Z" fill="#D43217"/>
</g>
<g opacity="0.3">
<path d="M26.518 20.2849C26.6667 21.7692 26.4189 23.3029 25.9232 24.7377C25.6754 25.4304 25.3284 26.1231 24.9319 26.7663C24.5354 27.4094 24.0893 28.0032 23.7423 28.6958C24.0397 28.0032 24.4858 27.4094 24.8823 26.7663C25.2789 26.1231 25.5763 25.4304 25.8241 24.7377C26.3198 23.3524 26.4685 21.8187 26.3198 20.3344L26.518 20.2849Z" fill="#D43217"/>
</g>
<path d="M35.1425 24.4411C35.0929 26.3707 34.3494 28.2508 33.1102 29.735C31.8711 31.2193 30.1363 32.2583 28.2527 32.6541C28.4014 31.9615 28.0545 31.2688 28.0049 30.5267C27.9553 29.7845 28.3023 29.0918 28.3519 28.3497C28.451 27.3602 28.104 26.4202 27.9553 25.4801C27.8066 24.5401 27.8562 23.4021 28.5501 22.7589C29.6406 21.7694 31.5241 22.3631 32.7137 21.522C32.8624 21.4231 33.0111 21.3241 33.1598 21.2747C33.2589 21.2747 33.4076 21.2747 33.5068 21.2747C34.0024 21.3241 34.4485 21.2747 34.9442 21.3241C35.3903 21.3736 35.2912 21.3241 35.1425 21.7694C34.9442 22.561 35.192 23.5505 35.1425 24.4411Z" fill="url(#paint2_linear_178_3720)"/>
<g opacity="0.3">
<path d="M34.9938 21.3736C34.2999 22.2642 34.2007 23.4021 34.1512 24.4906C34.1512 25.0348 34.1016 25.6285 34.052 26.1728C33.9529 26.717 33.8042 27.2612 33.5564 27.8055C33.0607 28.8445 32.3668 29.735 31.4746 30.4277C30.5824 31.1204 29.5911 31.6646 28.5502 32.1099C29.5911 31.6646 30.5824 31.1204 31.425 30.4277C32.2676 29.735 33.0111 28.8445 33.4572 27.8055C33.7051 27.3107 33.8538 26.7665 33.9033 26.2222C33.9529 25.678 33.9529 25.1338 34.0025 24.5401C34.0025 23.4516 34.1016 22.2147 34.7955 21.2747L34.9938 21.3736Z" fill="#D43217"/>
<path d="M34.2007 21.1262C33.6554 22.2147 32.6145 23.0063 31.4745 23.2537C30.8797 23.3526 30.2849 23.3526 29.7397 23.4021C30.3345 23.3526 30.9293 23.3526 31.4745 23.2042C32.6145 22.9568 33.5563 22.1157 34.052 21.1262H34.2007Z" fill="#D43217"/>
<path d="M34.4485 21.1757C33.9033 22.4126 32.912 23.4021 31.6728 23.9463C30.4336 24.4906 29.0954 24.5895 27.9058 25.2327C29.0458 24.5401 30.4336 24.4411 31.6232 23.8969C32.8128 23.3526 33.7546 22.3631 34.2502 21.1262L34.4485 21.1757Z" fill="#D43217"/>
<path d="M35.2911 21.4231C34.6963 22.4621 34.6467 23.6495 34.5972 24.8369C34.5476 26.0243 34.2998 27.2118 33.8041 28.3002C33.3084 29.3887 32.5649 30.3782 31.5736 31.0214C30.5823 31.6646 29.4918 32.1594 28.3518 32.4562C29.4918 32.1099 30.5823 31.6151 31.5736 30.9719C32.5649 30.3287 33.3084 29.3392 33.7545 28.2508C34.2006 27.1623 34.4485 25.9749 34.498 24.7874C34.5476 23.6 34.5972 22.3631 35.192 21.2747L35.2911 21.4231Z" fill="#D43217"/>
<path d="M34.6963 21.3241C34.3494 21.9673 34.0024 22.6105 33.6059 23.2537C33.2093 23.8474 32.7137 24.4411 32.1189 24.8864C30.9293 25.777 29.4919 26.1728 28.1536 26.7665C29.4919 26.1233 30.9293 25.7275 32.0693 24.8369C32.6641 24.3916 33.1102 23.7979 33.5067 23.2042C33.9033 22.6105 34.2502 21.9178 34.5476 21.2747L34.6963 21.3241Z" fill="#D43217"/>
<path d="M34.845 21.3737C34.1015 22.0664 33.8041 23.0559 33.6059 24.0454C33.5067 24.5402 33.4076 25.0349 33.2589 25.5297C33.1102 26.0244 32.9119 26.5192 32.6641 26.9645C32.1189 27.855 31.425 28.5972 30.5823 29.2404C29.7397 29.8341 28.8971 30.3783 28.0049 30.9225C28.8475 30.3783 29.7397 29.8341 30.5328 29.2404C31.3258 28.5972 32.0198 27.855 32.565 26.9645C33.1102 26.0739 33.2589 25.0844 33.4572 24.0949C33.6554 23.1054 33.9033 22.0664 34.6963 21.3242L34.845 21.3737Z" fill="#D43217"/>
<path d="M34.7955 21.4726C34.2007 22.0168 33.9529 22.8084 33.6059 23.5011C33.259 24.2432 32.8129 24.9359 32.3172 25.5296C31.772 26.1233 31.1772 26.6675 30.5328 27.1128C30.1859 27.3602 29.8389 27.5581 29.4919 27.7065C29.2937 27.8055 29.145 27.9044 28.9467 27.9539C29.145 27.855 29.2937 27.8055 29.4919 27.7065C29.8389 27.5086 30.1859 27.3107 30.5328 27.0633C31.1772 26.6181 31.772 26.0738 32.2677 25.4306C32.7633 24.8369 33.2094 24.1443 33.5068 23.4021C33.8538 22.66 34.1016 21.8684 34.6964 21.2747L34.7955 21.4726Z" fill="#D43217"/>
</g>
<path d="M26.0223 0C27.0136 1.78113 26.7658 4.1065 25.4771 5.64025C24.8327 6.38239 24.0397 6.92662 23.2466 7.56981C21.6109 8.95514 20.2726 10.6868 19.3804 12.6164C19.083 13.2595 18.8352 13.9522 18.9839 14.6449C19.4796 14.0512 20.3718 14.1996 21.1153 14.2985C22.1066 14.3975 23.0979 14.2491 24.0397 13.9027C27.9554 12.4184 30.9789 9.44989 35.1425 9.35094C34.2999 9.00461 34.2008 7.91614 34.0025 7.02558C33.4077 3.95807 30.8302 1.33585 27.7076 0.643187C27.0632 0.494759 26.5675 0.346331 26.0223 0Z" fill="url(#paint3_linear_178_3720)"/>
<g opacity="0.3">
<path d="M34.1512 9.10361C33.8539 8.16357 33.606 7.17405 33.2591 6.23401C32.9121 5.29397 32.5156 4.35393 31.9208 3.56231C31.326 2.7707 30.5329 2.12751 29.6407 1.63275C28.7485 1.18747 27.7572 0.890615 26.7659 0.742188C27.7572 0.890615 28.7485 1.13799 29.6407 1.58328C30.5329 2.02856 31.3755 2.67175 31.9703 3.46336C32.5651 4.25498 33.0112 5.19502 33.3582 6.13506C33.7052 7.0751 33.953 8.06462 34.2504 9.00466L34.1512 9.10361Z" fill="#D43217"/>
<path d="M33.5564 9.25192C33.3582 8.36135 33.1103 7.42131 32.7634 6.58022C32.4164 5.68966 32.0695 4.84857 31.5738 4.05695C31.0781 3.26534 30.3346 2.67163 29.492 2.22634C28.6989 1.73159 27.7572 1.48421 26.8154 1.38525C27.7572 1.48421 28.6989 1.73159 29.5416 2.12739C30.3842 2.5232 31.1277 3.16639 31.6729 3.958C32.1686 4.74961 32.5651 5.64018 32.9121 6.48127C33.259 7.37184 33.5069 8.2624 33.7547 9.20244L33.5564 9.25192Z" fill="#D43217"/>
<path d="M32.8129 9.20258C32.7138 8.80677 32.6146 8.46044 32.5155 8.06463C32.3668 7.66883 32.2677 7.32249 32.119 6.92669C31.8216 6.18455 31.4746 5.49189 31.0285 4.79922C30.5824 4.15604 30.0372 3.56233 29.3928 3.06757C28.7485 2.62228 28.005 2.27595 27.2119 2.177C28.005 2.27595 28.798 2.57281 29.4424 3.01809C30.0868 3.46337 30.6816 4.05709 31.1277 4.70027C31.5737 5.34346 31.9703 6.0856 32.2677 6.82773C32.4164 7.17407 32.5651 7.56987 32.7138 7.96568C32.8625 8.36149 32.9616 8.7573 33.0607 9.1531L32.8129 9.20258Z" fill="#D43217"/>
<path d="M25.1798 12.9628C24.7337 13.0123 24.3371 12.9628 23.9406 12.8639C23.5441 12.7649 23.1475 12.6165 22.751 12.5175C22.3545 12.3691 22.0075 12.2207 21.5614 12.1712C21.1649 12.1217 20.7188 12.1217 20.3718 12.2702C20.7188 12.0722 21.1649 12.0722 21.5614 12.1217C21.9579 12.1712 22.3545 12.2702 22.751 12.4186C23.1475 12.567 23.5441 12.666 23.9406 12.7649C24.3371 12.8639 24.7337 12.9133 25.1302 12.8144L25.1798 12.9628Z" fill="#D43217"/>
<path d="M25.9728 12.4184C25.031 12.4184 24.0893 12.1216 23.2962 11.5773C22.8997 11.3299 22.5527 10.9836 22.1066 10.7857C21.6605 10.5878 21.2144 10.5383 20.7188 10.5878C21.1648 10.4889 21.6605 10.5383 22.1066 10.7362C22.5527 10.9341 22.8997 11.231 23.2962 11.4784C24.0893 11.9731 24.9815 12.2205 25.9232 12.2205L25.9728 12.4184Z" fill="#D43217"/>
<path d="M32.1686 9.44987C32.0199 8.7572 31.8216 8.06454 31.5738 7.37188C31.3259 6.72869 30.979 6.03603 30.5329 5.54127L29.7398 4.79913C29.492 4.55175 29.1946 4.30437 28.8972 4.10647C28.3024 3.66119 27.658 3.31486 26.9641 3.26538C27.7076 3.31486 28.352 3.66119 28.9468 4.057C29.2442 4.2549 29.5416 4.50228 29.7894 4.74966L30.5825 5.4918C31.0781 6.03603 31.4251 6.67922 31.6729 7.37188C31.9207 8.06454 32.119 8.7572 32.3173 9.44987H32.1686Z" fill="#D43217"/>
<path d="M27.6085 11.3299C27.0633 11.1815 26.6667 10.8352 26.3198 10.4888L25.1797 9.49932L24.5849 9.00456C24.3867 8.85613 24.1884 8.65823 23.9902 8.5098C23.5936 8.21294 23.1475 7.91609 22.6023 7.96556C23.098 7.91609 23.5936 8.16347 23.9902 8.46032C24.1884 8.60875 24.3867 8.75718 24.5849 8.95508L25.1797 9.44984L26.3693 10.3899C26.7659 10.6867 27.1624 11.0825 27.6085 11.132V11.3299Z" fill="#D43217"/>
<path d="M31.4747 9.40036C31.1277 8.21293 30.4834 7.07499 29.6407 6.18442C29.4425 5.98652 29.1946 5.73914 28.9468 5.54124L28.1537 4.997C27.6581 4.65067 27.1129 4.30434 26.5676 3.95801C27.1129 4.30434 27.6581 4.60119 28.1537 4.94753L28.9468 5.49176C29.1946 5.68966 29.4425 5.88757 29.6903 6.08547C30.5825 6.97604 31.2764 8.06451 31.6234 9.3014L31.4747 9.40036Z" fill="#D43217"/>
<path d="M28.1537 11.0333C27.7076 10.7859 27.3111 10.4395 27.0137 10.0932C26.6667 9.69741 26.4189 9.3016 26.1215 8.90579C25.8241 8.50999 25.5267 8.11418 25.1797 7.76785C24.7832 7.42152 24.3866 7.12466 23.9406 6.92676C24.3866 7.07519 24.8327 7.37204 25.1797 7.71837C25.5267 8.0647 25.8736 8.46051 26.171 8.85632C26.7658 9.64793 27.3606 10.4395 28.2528 10.8848L28.1537 11.0333Z" fill="#D43217"/>
<path d="M29.0955 10.687C28.5502 10.5385 28.1537 10.1427 27.8067 9.69743C27.4598 9.25215 27.2119 8.80687 26.9641 8.36158C26.6667 7.9163 26.4189 7.47102 26.1215 7.02574C25.8241 6.62993 25.4276 6.23412 24.8823 6.08569C25.4276 6.18465 25.8241 6.58045 26.171 6.97626C26.518 7.37207 26.7658 7.86682 27.0632 8.31211C27.3606 8.75739 27.6085 9.20267 27.9554 9.59848C28.3024 9.99429 28.6989 10.3406 29.1946 10.489L29.0955 10.687Z" fill="#D43217"/>
<path d="M30.285 10.3405C29.9876 10.291 29.7398 10.0931 29.5415 9.8952C29.3433 9.6973 29.1946 9.44992 29.0459 9.25202L28.5998 8.55935C28.4511 8.31197 28.3024 8.06459 28.2032 7.81722C27.9554 7.32246 27.7076 6.8277 27.3606 6.38241C27.0137 5.93713 26.6171 5.54132 26.1215 5.29395C26.6171 5.54132 27.0137 5.88766 27.3606 6.33294C27.7076 6.77822 27.9554 7.27298 28.2528 7.71826C28.4015 7.96564 28.5006 8.21302 28.6493 8.41093L29.145 9.05411C29.4424 9.4994 29.7894 9.94468 30.3346 10.0436L30.285 10.3405Z" fill="#D43217"/>
<path d="M30.8799 9.74675L30.0373 8.31194C29.7399 7.81719 29.492 7.32243 29.0955 6.92662C28.699 6.53081 28.2529 6.18448 27.8068 5.88763L26.4685 4.84863L27.8068 5.83815C28.2529 6.18448 28.699 6.48134 29.1451 6.87714C29.5416 7.27295 29.839 7.76771 30.1364 8.21299L30.979 9.64779L30.8799 9.74675Z" fill="#D43217"/>
<path d="M26.9642 11.7753C26.0224 11.4785 25.1302 10.9342 24.4363 10.2911C24.0893 9.94473 23.7919 9.54892 23.445 9.20259C23.7919 9.54892 24.0893 9.94473 24.4363 10.2416C25.1798 10.8848 26.0224 11.3795 26.9642 11.6269V11.7753Z" fill="#D43217"/>
<path d="M26.2702 12.0721C25.378 11.8248 24.6345 11.2805 23.9406 10.7363C23.5936 10.4889 23.1971 10.1921 22.8501 9.99415L22.2553 9.64782C22.0571 9.54887 21.8588 9.44991 21.611 9.49939C21.8092 9.44991 22.0571 9.49939 22.2553 9.59834L22.8501 9.8952C23.2466 10.0931 23.6432 10.3405 23.9901 10.5879C24.7336 11.0826 25.4771 11.6269 26.3198 11.8248L26.2702 12.0721Z" fill="#D43217"/>
<path d="M24.3371 13.5564C23.5936 13.21 22.751 13.1111 21.9084 13.1606C21.0657 13.21 20.2727 13.4079 19.4301 13.6058C20.2231 13.4079 21.0657 13.1606 21.9084 13.1111C22.751 13.0121 23.6432 13.1111 24.3867 13.4574L24.3371 13.5564Z" fill="#D43217"/>
</g>
<path d="M18.4882 15.7829C14.969 16.9703 11.1028 16.8219 7.43494 16.1787C4.95663 15.7334 2.37918 15.0902 0 15.9313C0 16.3271 0.247832 16.6735 0.594796 16.8714C0.94176 17.0693 1.28872 17.1682 1.68525 17.2672C3.17224 17.7125 4.5601 18.5041 5.65056 19.5431C6.09665 19.9389 6.49319 20.3842 6.98885 20.681C7.43494 20.9284 7.93061 21.0274 8.42627 21.1263C10.9046 21.5221 13.4325 21.5716 15.9108 21.1758C15.2664 21.5716 14.6716 22.0169 14.2751 22.6601C13.8786 23.3032 13.6803 24.0454 13.8786 24.7875C13.9281 25.0349 14.0273 25.2823 14.0768 25.5297C14.1264 26.3707 13.1351 26.8655 12.6394 27.6076C12.3916 27.954 12.2924 28.3993 12.0942 28.7951C11.7472 29.5372 11.0533 30.1309 10.2602 30.4278C9.66543 30.6257 8.9715 30.6752 8.3767 30.8236C7.73234 30.972 7.13755 31.3678 6.88971 31.9615C8.42627 32.5552 10.0124 32.951 11.6481 33.1984C12.4907 33.3468 13.3829 33.3963 14.176 33.1984C14.8203 33.05 15.4151 32.7037 16.0099 32.3573C16.803 31.8626 17.5465 31.3678 18.2404 30.7246C19.1326 29.933 19.8761 28.9435 20.3717 27.9045C21.1152 26.4202 21.4126 24.837 21.9083 23.2538C22.404 21.6705 23.0483 20.1368 24.2875 19.0483C23.4449 18.8504 22.7014 18.4051 22.057 17.8114C21.9083 17.663 21.71 17.4651 21.6109 17.2672C21.2639 16.723 21.9579 15.0408 21.5613 15.0408C20.7187 15.0902 19.0335 15.585 18.4882 15.7829Z" fill="url(#paint4_linear_178_3720)"/>
<path d="M27.1623 11.2311C29.3928 9.74684 32.119 8.95523 34.8451 9.05418C36.8278 9.10365 38.7608 9.59841 40.6939 10.1426C43.2218 10.8353 45.7993 11.6764 47.9306 13.1607C48.4263 13.507 48.8724 13.9028 49.2193 14.3976C49.5663 14.8923 49.715 15.5355 49.5167 16.0798C49.3185 16.6735 48.8228 17.1187 48.3271 17.4651C45.7497 19.2957 42.6766 20.4336 39.5539 20.9779C36.4312 21.5221 33.2094 21.4726 30.0372 21.1263C28.3023 20.9284 26.518 20.6315 24.8823 19.9389C24.337 19.6915 23.7918 19.3946 23.197 19.3452C21.9083 19.1967 20.7683 20.1368 19.8265 21.0273C20.3717 20.3842 20.4709 19.3946 20.0743 18.603C19.6778 17.8609 18.7856 17.3661 17.943 17.4651C19.0335 17.1682 19.5291 16.525 20.223 15.6839C20.7187 15.0902 21.3631 14.9913 22.057 14.6944C23.9405 13.9523 25.4275 12.3691 27.1623 11.2311Z" fill="url(#paint5_radial_178_3720)"/>
<g opacity="0.4">
<path d="M23.2962 18.9986C22.5031 19.5428 22.0075 20.4334 21.611 21.324C21.2144 22.2145 20.917 23.1546 20.5701 24.0946C19.8761 25.9252 19.0831 27.8053 17.8439 29.3885C16.6048 30.9223 14.8699 32.2087 12.8873 32.5055C11.896 32.654 10.9046 32.5055 9.91331 32.3076C8.92198 32.1097 7.98022 31.9118 6.93933 31.9613C7.93066 31.9118 8.92198 32.1097 9.91331 32.3076C10.9046 32.5055 11.896 32.654 12.8873 32.4561C14.8699 32.1097 16.5552 30.8728 17.7944 29.3391C19.0335 27.7558 19.777 25.9252 20.4709 24.0946C20.8179 23.1546 21.1153 22.2145 21.5118 21.324C21.9084 20.4334 22.404 19.4934 23.2466 18.8997L23.2962 18.9986Z" fill="#D43217"/>
<path d="M22.5031 18.4049C21.7596 18.9986 21.1649 19.7407 20.7188 20.5818C20.2727 21.4229 19.9257 22.3135 19.6283 23.2535C19.0335 25.0841 18.5874 27.0137 17.4969 28.6464C16.4561 30.2791 14.6717 31.417 12.7386 31.6149C11.7968 31.7139 10.8055 31.6149 9.86374 31.6149C8.92198 31.5654 7.93065 31.5654 6.98889 31.9118C7.88108 31.5654 8.87241 31.5654 9.86374 31.6149C10.8055 31.6149 11.7968 31.7139 12.7386 31.6149C14.6717 31.417 16.4065 30.2791 17.4474 28.6464C18.4883 27.0137 18.9344 25.1336 19.4796 23.2535C19.777 22.3135 20.124 21.4229 20.5701 20.5818C21.0162 19.7407 21.6109 18.9491 22.404 18.3059L22.5031 18.4049Z" fill="#D43217"/>
<path d="M21.6109 18.0586C19.9753 18.8997 18.8848 20.5324 18.2404 22.264C17.8935 23.1546 17.6952 24.0452 17.4969 24.9357C17.2987 25.8263 17.0013 26.7663 16.5552 27.5579C16.1091 28.3496 15.6134 29.1906 14.9195 29.7844C14.2256 30.4275 13.2838 30.7244 12.3916 30.8234C11.4499 30.9223 10.5081 30.9223 9.6159 30.9718C9.1698 31.0213 8.67414 31.0707 8.22804 31.1697C7.78195 31.2686 7.33585 31.516 7.03845 31.8129C7.38542 31.4665 7.78195 31.2686 8.22804 31.1202C8.67414 30.9718 9.12024 30.9223 9.6159 30.9223C10.5577 30.8728 11.4994 30.8234 12.3916 30.7244C13.3334 30.6254 14.2256 30.2791 14.9195 29.6359C15.6134 28.9927 16.1091 28.2011 16.5552 27.4095C17.0013 26.6179 17.2987 25.7273 17.4969 24.7873C17.6952 23.8967 17.8935 22.9567 18.2404 22.1156C18.8848 20.3839 19.9753 18.7018 21.6605 17.7617L21.6109 18.0586Z" fill="#D43217"/>
<path d="M21.0657 17.9595C19.43 18.5038 18.0422 19.8396 17.3978 21.4228C16.7039 23.0556 16.5552 24.8862 15.7126 26.4199C14.8699 27.9537 13.4821 29.24 11.8464 29.9327C11.0533 30.279 10.1611 30.4769 9.31851 30.7243C8.92198 30.8727 8.47588 31.0212 8.07935 31.1201C7.68282 31.2686 7.23672 31.4665 6.98889 31.8623C7.23672 31.4665 7.63325 31.2686 8.07935 31.1201C8.47588 30.9717 8.92198 30.8233 9.31851 30.6748C10.1611 30.4275 11.0533 30.2296 11.8464 29.8832C13.4325 29.1411 14.8204 27.9042 15.6134 26.321C16.4561 24.7872 16.6048 22.9566 17.2491 21.3239C17.8935 19.6417 19.3309 18.3059 21.0162 17.7122L21.0657 17.9595Z" fill="#D43217"/>
<path d="M20.2726 16.129C18.7856 16.9701 17.0508 17.4154 15.3655 17.6133C13.6803 17.8112 11.9455 17.6628 10.2602 17.4154C8.57495 17.168 6.8897 16.7722 5.25401 16.3764C4.41138 16.1785 3.56876 15.9806 2.72613 15.9311C1.8835 15.8816 1.04088 15.8816 0.148682 16.0301C0.991309 15.8816 1.83394 15.8322 2.72613 15.9311C3.56876 15.9806 4.41138 16.1785 5.25401 16.3764C6.93926 16.7722 8.57495 17.168 10.2602 17.3659C11.9455 17.6133 13.6803 17.7123 15.3655 17.5143C17.0508 17.3164 18.736 16.8712 20.1735 16.0301L20.2726 16.129Z" fill="#D43217"/>
<path d="M19.8265 17.3164C19.083 17.7617 18.2404 18.0091 17.4473 18.2564C16.6047 18.5038 15.8116 18.6523 14.969 18.7512C13.2837 18.9491 11.5985 19.147 9.91323 18.8502C8.22798 18.5533 6.64186 18.0091 5.05573 17.3659C4.26267 17.069 3.51918 16.6732 2.72612 16.4258C3.51918 16.7227 4.31224 17.069 5.1053 17.3659C6.69142 18.0091 8.27754 18.5533 9.9628 18.8007C11.6481 19.0975 13.3333 18.8996 15.0186 18.6523C15.8612 18.5038 16.6542 18.3554 17.4969 18.108C18.2899 17.8606 19.1326 17.6133 19.8265 17.168V17.3164Z" fill="#D43217"/>
<path d="M20.0743 17.6627C18.7856 18.9986 17.1004 19.8397 15.3655 20.285C13.6307 20.7302 11.7472 20.8292 9.96281 20.3344C9.07062 20.0871 8.27756 19.6912 7.4845 19.246C6.69144 18.8007 5.89838 18.3554 5.10532 17.9101C3.56876 17.0195 1.88351 16.129 0.0991211 16.03C1.93307 16.129 3.61833 16.9701 5.15488 17.8606C5.94794 18.3059 6.741 18.7512 7.53407 19.1965C8.32713 19.5923 9.12019 20.0376 10.0124 20.2355C11.7472 20.6808 13.6307 20.5818 15.316 20.1365C17.0508 19.6418 18.6865 18.8007 19.9256 17.5143L20.0743 17.6627Z" fill="#D43217"/>
<path d="M18.9343 19.1965C18.29 19.8397 17.5465 20.285 16.7038 20.5818C15.9108 20.9281 15.0681 21.126 14.176 21.2745C13.3333 21.4229 12.4411 21.5219 11.5985 21.4724C10.7063 21.4724 9.86369 21.3239 9.02106 21.0766C7.33581 20.5818 5.94795 19.4439 4.60966 18.3554C3.27137 17.3164 1.78438 16.2774 0.0495605 16.03C1.78438 16.2774 3.27137 17.2669 4.65923 18.3059C6.04708 19.3449 7.38537 20.4829 9.07063 20.9776C9.91325 21.225 10.7559 21.3734 11.5985 21.3734C12.4411 21.3734 13.3333 21.2745 14.176 21.126C15.0186 20.9776 15.8612 20.7302 16.6543 20.4334C17.4473 20.0871 18.1908 19.6912 18.7856 19.0481L18.9343 19.1965Z" fill="#D43217"/>
</g>
<path opacity="0.1" d="M33.0608 21.0767C29.3433 21.2251 25.6258 20.0872 22.6519 17.8608C26.865 18.0587 30.979 18.1081 34.9443 16.6733C34.7956 18.3555 34.1512 19.8398 33.0608 21.0767Z" fill="white"/>
<path d="M38.4139 18.4545C36.3321 18.8008 34.3495 19.4935 32.5155 20.5325C33.0607 20.8788 33.7547 21.0272 34.399 21.0272C34.9938 20.9778 35.5886 20.8293 36.1338 20.582C36.9765 20.2356 37.7695 19.8398 38.513 19.3451C38.7113 19.1966 39.4548 18.8503 39.4548 18.5534C39.5044 18.2071 38.6122 18.4545 38.4139 18.4545Z" fill="#FFD78C"/>
<path opacity="0.38" d="M26.1709 12.9627C25.9727 13.0122 25.7744 13.1606 25.7249 13.3585C25.8736 13.5069 26.1214 13.5069 26.3196 13.5069C26.617 13.4575 26.9144 13.3585 27.1623 13.1606C27.2614 13.1111 27.3605 13.0122 27.311 12.9132C27.2614 12.8638 27.2118 12.8638 27.1623 12.8143C26.7657 12.7153 26.3196 12.8143 26.0223 13.0617" fill="#FFD78C"/>
<path opacity="0.38" d="M34.4485 10.2909C34.4485 10.3899 34.5477 10.4888 34.6468 10.5383C34.7459 10.5878 34.8946 10.5383 34.9938 10.5383C35.0929 10.5383 35.2416 10.4888 35.3407 10.4393C35.3903 10.3899 35.4894 10.3899 35.539 10.3404C35.5886 10.2909 35.6381 10.192 35.6381 10.1425C35.539 9.74668 34.4485 9.84563 34.4485 10.2909Z" fill="#FFD78C"/>
<path opacity="0.38" d="M27.7075 11.6267C27.7075 11.6761 27.7571 11.7256 27.8067 11.7256C27.8562 11.7256 27.9058 11.7256 27.9554 11.7256C28.0049 11.7256 28.0545 11.7256 28.104 11.6761C28.1536 11.6761 28.1536 11.6267 28.2032 11.6267C28.2032 11.6267 28.2527 11.5772 28.2527 11.5277C28.2032 11.3793 27.7075 11.4288 27.7075 11.6267Z" fill="#FFD78C"/>
<path opacity="0.38" d="M30.3345 12.2204C30.3345 12.2699 30.384 12.3194 30.4336 12.3194C30.4832 12.3194 30.5327 12.3194 30.5823 12.3194C30.6319 12.3194 30.6814 12.3194 30.731 12.2699C30.7806 12.2699 30.7806 12.2699 30.8301 12.2204C30.8301 12.2204 30.8797 12.1709 30.8797 12.1215C30.7806 11.973 30.3345 12.0225 30.3345 12.2204Z" fill="#FFD78C"/>
<path opacity="0.38" d="M29.5911 11.5773C29.5911 11.6268 29.6406 11.6763 29.6902 11.6763C29.7398 11.6763 29.7893 11.6763 29.8389 11.6763C29.8885 11.6763 29.938 11.6763 29.9876 11.6268C30.0372 11.6268 30.0372 11.5773 30.0867 11.5773C30.0867 11.5773 30.1363 11.5279 30.1363 11.4784C30.0867 11.33 29.5911 11.3794 29.5911 11.5773Z" fill="#FFD78C"/>
<path opacity="0.38" d="M32.8624 10.1918C32.8624 10.2413 32.912 10.2908 32.9616 10.2908C33.0111 10.2908 33.0607 10.2908 33.1103 10.2908C33.1598 10.2908 33.2094 10.2908 33.259 10.2413C33.3085 10.2413 33.3085 10.1918 33.3581 10.1918C33.3581 10.1918 33.4077 10.1424 33.4077 10.0929C33.3581 9.94447 32.8624 9.99394 32.8624 10.1918Z" fill="#FFD78C"/>
<path opacity="0.38" d="M37.1747 10.6867C37.1747 10.7362 37.2242 10.7857 37.2738 10.7857C37.3234 10.7857 37.3729 10.7857 37.4225 10.7857C37.4721 10.7857 37.5216 10.7857 37.5712 10.7362C37.6208 10.7362 37.6208 10.7362 37.6703 10.6867C37.6703 10.6867 37.7199 10.6372 37.7199 10.5878C37.6703 10.4393 37.1747 10.4888 37.1747 10.6867Z" fill="#FFD78C"/>
<path opacity="0.38" d="M28.8475 11.9237V11.9732C28.8475 11.9732 28.8971 11.9732 28.8971 12.0226H28.9467H28.9962C28.9962 12.0226 29.0458 12.0226 29.0458 11.9732C29.0458 11.9237 28.8971 11.8247 28.8475 11.9237Z" fill="#FFD78C"/>
<path opacity="0.38" d="M28.104 12.9626V13.0121C28.104 13.0121 28.1536 13.0121 28.1536 13.0616H28.2031H28.2527C28.2527 13.0616 28.3023 13.0616 28.3023 13.0121C28.3023 12.9626 28.1536 12.9132 28.104 12.9626Z" fill="#FFD78C"/>
<path opacity="0.38" d="M30.5328 10.5383V10.5878C30.5328 10.5878 30.5824 10.5878 30.5824 10.6373H30.632H30.6815C30.6815 10.6373 30.7311 10.6373 30.7311 10.5878C30.7807 10.5383 30.5824 10.4888 30.5328 10.5383Z" fill="#FFD78C"/>
<path opacity="0.38" d="M34.0024 9.59825V9.64772C34.0024 9.64772 34.052 9.64772 34.052 9.6972H34.1016H34.1511C34.1511 9.6972 34.2007 9.6972 34.2007 9.64772C34.2503 9.59825 34.052 9.4993 34.0024 9.59825Z" fill="#FFD78C"/>
<path opacity="0.38" d="M33.1102 11.1815V11.231C33.1102 11.231 33.1598 11.231 33.1598 11.2805H33.2094H33.2589C33.2589 11.2805 33.3085 11.2805 33.3085 11.231C33.3085 11.1815 33.1598 11.0825 33.1102 11.1815Z" fill="#FFD78C"/>
<path opacity="0.38" d="M31.5737 10.093C31.5737 10.1424 31.6233 10.1919 31.6729 10.1919C31.7224 10.1919 31.772 10.1919 31.8216 10.1919C31.8711 10.1919 31.9207 10.1919 31.9703 10.1424C32.0198 10.1424 32.0198 10.093 32.0694 10.093C32.0694 10.093 32.119 10.0435 32.119 9.99402C32.0198 9.84559 31.5737 9.89507 31.5737 10.093Z" fill="#FFD78C"/>
<path opacity="0.38" d="M35.985 9.84565C35.985 9.89513 36.0346 9.94461 36.0842 9.94461C36.1337 9.94461 36.1833 9.94461 36.2329 9.94461C36.2824 9.94461 36.332 9.94461 36.3816 9.89513C36.4311 9.89513 36.4311 9.84565 36.4807 9.84565C36.4807 9.84565 36.5303 9.79618 36.5303 9.7467C36.4807 9.59828 35.985 9.64775 35.985 9.84565Z" fill="#FFD78C"/>
<path opacity="0.38" d="M35.8364 10.934C35.8364 10.9835 35.8364 10.9835 35.8859 10.9835C35.9355 10.9835 35.9355 10.9835 35.9851 10.9835C36.0346 10.9835 36.0346 10.9835 36.0842 10.9835C36.0842 10.9835 36.1338 10.9835 36.1338 10.934V10.8845C36.0842 10.7856 35.8364 10.835 35.8364 10.934Z" fill="#FFD78C"/>
<path opacity="0.38" d="M31.5242 11.2309C31.5242 11.2804 31.5737 11.3299 31.6233 11.3299C31.6729 11.3299 31.7224 11.3299 31.772 11.3299C31.8216 11.3299 31.8711 11.3299 31.9207 11.2804C31.9703 11.2804 31.9703 11.2309 32.0198 11.2309C32.0198 11.2309 32.0694 11.1814 32.0694 11.132C32.0198 10.9835 31.5242 11.033 31.5242 11.2309Z" fill="#FFD78C"/>
<path opacity="0.38" d="M29.0953 10.7858C29.0953 10.8847 29.1449 10.9342 29.244 10.9342C29.2936 10.9342 29.3927 10.9342 29.4919 10.9342C29.591 10.9342 29.6406 10.8847 29.7397 10.8847C29.7893 10.8847 29.8388 10.8352 29.8884 10.8352C29.938 10.7858 29.938 10.7363 29.938 10.6868C29.7893 10.39 29.0953 10.4889 29.0953 10.7858Z" fill="#FFD78C"/>
<path opacity="0.42" d="M43.2714 11.6763C41.4375 12.27 40.1487 13.9027 40.2974 15.5354C40.3966 17.1681 41.1401 18.9493 43.0236 19.3451C43.9158 19.543 45.601 18.6029 46.3445 18.2071C47.4845 17.5639 48.575 16.7723 49.1698 15.7333C49.3185 15.486 49.4176 15.2386 49.3681 14.9912C49.3185 14.5954 48.9715 14.2985 48.6246 14.0512C47.7324 13.408 46.7906 12.8143 45.7993 12.3195C45.4028 12.1216 44.9567 11.9237 44.461 11.7753C43.9653 11.6763 43.7671 11.5279 43.2714 11.6763Z" fill="url(#paint6_linear_178_3720)"/>
<path d="M45.3532 15.8817C46.0923 15.8817 46.6915 15.2836 46.6915 14.5458C46.6915 13.808 46.0923 13.21 45.3532 13.21C44.6141 13.21 44.0149 13.808 44.0149 14.5458C44.0149 15.2836 44.6141 15.8817 45.3532 15.8817Z" fill="#ECDAB4"/>
<path d="M46.6419 14.5459C46.6419 15.288 46.0471 15.8323 45.3532 15.8323C44.6592 15.8323 44.0645 15.2386 44.0645 14.5459C44.0645 13.8532 44.6592 13.2595 45.3532 13.2595C46.0471 13.2595 46.6419 13.8532 46.6419 14.5459Z" fill="#ECDBB6"/>
<path d="M45.3532 15.8323C46.0649 15.8323 46.6419 15.2563 46.6419 14.5459C46.6419 13.8355 46.0649 13.2595 45.3532 13.2595C44.6414 13.2595 44.0645 13.8355 44.0645 14.5459C44.0645 15.2563 44.6414 15.8323 45.3532 15.8323Z" fill="#EDDCB7"/>
<path d="M46.5923 14.5459C46.5923 15.2386 45.9975 15.8323 45.3036 15.8323C44.6097 15.8323 44.0149 15.2386 44.0149 14.5459C44.0149 13.8532 44.6097 13.2595 45.3036 13.2595C46.0471 13.2595 46.5923 13.8532 46.5923 14.5459Z" fill="#EDDDB9"/>
<path d="M46.5923 14.5459C46.5923 15.2386 46.0471 15.8323 45.3036 15.8323C44.6097 15.8323 44.0149 15.288 44.0149 14.5459C44.0149 13.8038 44.5601 13.2595 45.3036 13.2595C46.0471 13.2595 46.5923 13.8532 46.5923 14.5459Z" fill="#EEDDBB"/>
<path d="M45.3532 15.7826C46.0375 15.7826 46.5923 15.2289 46.5923 14.5457C46.5923 13.8626 46.0375 13.3088 45.3532 13.3088C44.6688 13.3088 44.114 13.8626 44.114 14.5457C44.114 15.2289 44.6688 15.7826 45.3532 15.7826Z" fill="#EEDEBD"/>
<path d="M46.5923 14.5457C46.5923 15.2384 46.0471 15.7826 45.3532 15.7826C44.6592 15.7826 44.114 15.2384 44.114 14.5457C44.114 13.8531 44.6592 13.3088 45.3532 13.3088C46.0471 13.3088 46.5923 13.8531 46.5923 14.5457Z" fill="#EFDFBE"/>
<path d="M46.5923 14.5457C46.5923 15.2384 46.0471 15.7826 45.3532 15.7826C44.6592 15.7826 44.114 15.2384 44.114 14.5457C44.114 13.8531 44.6592 13.3088 45.3532 13.3088C45.9975 13.3088 46.5923 13.8531 46.5923 14.5457Z" fill="#EFE0C0"/>
<path d="M45.3532 15.7826C46.0375 15.7826 46.5923 15.2289 46.5923 14.5457C46.5923 13.8626 46.0375 13.3088 45.3532 13.3088C44.6688 13.3088 44.114 13.8626 44.114 14.5457C44.114 15.2289 44.6688 15.7826 45.3532 15.7826Z" fill="#F0E1C2"/>
<path d="M46.5428 14.4963C46.5428 15.1889 45.9975 15.6837 45.3532 15.6837C44.6592 15.6837 44.1636 15.1394 44.1636 14.4963C44.1636 13.8036 44.7088 13.3088 45.3532 13.3088C45.9975 13.3088 46.5428 13.8531 46.5428 14.4963Z" fill="#F0E2C4"/>
<path d="M45.3532 15.6837C46.0102 15.6837 46.5428 15.1521 46.5428 14.4963C46.5428 13.8405 46.0102 13.3088 45.3532 13.3088C44.6962 13.3088 44.1636 13.8405 44.1636 14.4963C44.1636 15.1521 44.6962 15.6837 45.3532 15.6837Z" fill="#F0E3C5"/>
<path d="M46.5428 14.4963C46.5428 15.1394 45.9975 15.6837 45.3532 15.6837C44.7088 15.6837 44.1636 15.1394 44.1636 14.4963C44.1636 13.8531 44.7088 13.3088 45.3532 13.3088C45.9975 13.3088 46.5428 13.8531 46.5428 14.4963Z" fill="#F1E3C7"/>
<path d="M46.4932 14.4963C46.4932 15.1394 45.948 15.6837 45.3036 15.6837C44.6592 15.6837 44.114 15.1394 44.114 14.4963C44.114 13.8531 44.6592 13.3088 45.3036 13.3088C45.948 13.3088 46.4932 13.8531 46.4932 14.4963Z" fill="#F1E4C9"/>
<path d="M46.4932 14.4963C46.4932 15.1394 45.948 15.6837 45.3036 15.6837C44.6592 15.6837 44.114 15.1394 44.114 14.4963C44.114 13.8531 44.6592 13.3088 45.3036 13.3088C45.9975 13.3583 46.4932 13.8531 46.4932 14.4963Z" fill="#F2E5CB"/>
<path d="M46.4932 14.4963C46.4932 15.1395 45.9975 15.6343 45.3532 15.6343C44.7088 15.6343 44.2131 15.1395 44.2131 14.4963C44.2131 13.8532 44.7088 13.3584 45.3532 13.3584C45.9975 13.3584 46.4932 13.8532 46.4932 14.4963Z" fill="#F2E6CC"/>
<path d="M45.3532 15.6343C45.9828 15.6343 46.4932 15.1248 46.4932 14.4963C46.4932 13.8679 45.9828 13.3584 45.3532 13.3584C44.7235 13.3584 44.2131 13.8679 44.2131 14.4963C44.2131 15.1248 44.7235 15.6343 45.3532 15.6343Z" fill="#F3E7CE"/>
<path d="M46.4932 14.4963C46.4932 15.1395 45.9975 15.6343 45.3532 15.6343C44.7088 15.6343 44.2131 15.1395 44.2131 14.4963C44.2131 13.8532 44.7088 13.3584 45.3532 13.3584C45.948 13.3584 46.4932 13.8532 46.4932 14.4963Z" fill="#F3E8D0"/>
<path d="M46.4436 14.4963C46.4436 15.0901 45.948 15.6343 45.3036 15.6343C44.7088 15.6343 44.1636 15.1395 44.1636 14.4963C44.1636 13.9026 44.6592 13.3584 45.3036 13.3584C45.948 13.3584 46.4436 13.8532 46.4436 14.4963Z" fill="#F4E9D2"/>
<path d="M46.4436 14.4964C46.4436 15.0901 45.9479 15.5849 45.3532 15.5849C44.7584 15.5849 44.2627 15.0901 44.2627 14.4964C44.2627 13.9027 44.7584 13.408 45.3532 13.408C45.9479 13.408 46.4436 13.8532 46.4436 14.4964Z" fill="#F4E9D3"/>
<path d="M46.4436 14.4964C46.4436 15.0901 45.9479 15.5849 45.3532 15.5849C44.7584 15.5849 44.2627 15.0901 44.2627 14.4964C44.2627 13.9027 44.7584 13.408 45.3532 13.408C45.9479 13.408 46.4436 13.8532 46.4436 14.4964Z" fill="#F4EAD5"/>
<path d="M46.4436 14.4964C46.4436 15.0901 45.9479 15.5849 45.3532 15.5849C44.7584 15.5849 44.2627 15.0901 44.2627 14.4964C44.2627 13.9027 44.7584 13.408 45.3532 13.408C45.9479 13.408 46.4436 13.8532 46.4436 14.4964Z" fill="#F5EBD7"/>
<path d="M46.3941 14.4469C46.3941 15.0406 45.8984 15.5353 45.3036 15.5353C44.7088 15.5353 44.2131 15.0406 44.2131 14.4469C44.2131 13.8532 44.7088 13.3584 45.3036 13.3584C45.8984 13.3584 46.3941 13.9026 46.3941 14.4469Z" fill="#F5ECD9"/>
<path d="M45.3532 15.4859C45.9281 15.4859 46.3941 15.0208 46.3941 14.447C46.3941 13.8731 45.9281 13.408 45.3532 13.408C44.7783 13.408 44.3123 13.8731 44.3123 14.447C44.3123 15.0208 44.7783 15.4859 45.3532 15.4859Z" fill="#F6EDDA"/>
<path d="M46.3941 14.447C46.3941 15.0407 45.948 15.4859 45.3532 15.4859C44.7584 15.4859 44.3123 15.0407 44.3123 14.447C44.3123 13.8532 44.7584 13.408 45.3532 13.408C45.8984 13.408 46.3941 13.9027 46.3941 14.447Z" fill="#F6EEDC"/>
<path d="M46.3941 14.447C46.3941 15.0407 45.948 15.4859 45.3532 15.4859C44.7584 15.4859 44.3123 15.0407 44.3123 14.447C44.3123 13.8532 44.7584 13.408 45.3532 13.408C45.8984 13.408 46.3941 13.9027 46.3941 14.447Z" fill="#F7EFDE"/>
<path d="M45.3532 15.4859C45.9281 15.4859 46.3941 15.0208 46.3941 14.447C46.3941 13.8731 45.9281 13.408 45.3532 13.408C44.7783 13.408 44.3123 13.8731 44.3123 14.447C44.3123 15.0208 44.7783 15.4859 45.3532 15.4859Z" fill="#F7F0E0"/>
<path d="M46.3445 14.447C46.3445 14.9912 45.8984 15.4859 45.3036 15.4859C44.7584 15.4859 44.2627 15.0407 44.2627 14.447C44.2627 13.9027 44.7088 13.408 45.3036 13.408C45.8984 13.4574 46.3445 13.9027 46.3445 14.447Z" fill="#F7F0E1"/>
<path d="M46.3445 14.4468C46.3445 14.991 45.8984 15.4363 45.3532 15.4363C44.808 15.4363 44.3619 14.991 44.3619 14.4468C44.3619 13.9026 44.808 13.4573 45.3532 13.4573C45.8984 13.4573 46.3445 13.9026 46.3445 14.4468Z" fill="#F8F1E3"/>
<path d="M45.3532 15.4363C45.9007 15.4363 46.3445 14.9933 46.3445 14.4468C46.3445 13.9003 45.9007 13.4573 45.3532 13.4573C44.8057 13.4573 44.3619 13.9003 44.3619 14.4468C44.3619 14.9933 44.8057 15.4363 45.3532 15.4363Z" fill="#F8F2E5"/>
<path d="M46.3445 14.4468C46.3445 14.991 45.8984 15.4363 45.3532 15.4363C44.808 15.4363 44.3619 14.991 44.3619 14.4468C44.3619 13.9026 44.808 13.4573 45.3532 13.4573C45.8984 13.4573 46.3445 13.9026 46.3445 14.4468Z" fill="#F9F3E7"/>
<path d="M46.295 14.4468C46.295 14.991 45.8489 15.4363 45.3036 15.4363C44.7584 15.4363 44.3123 14.991 44.3123 14.4468C44.3123 13.9026 44.7584 13.4573 45.3036 13.4573C45.8984 13.4573 46.295 13.9026 46.295 14.4468Z" fill="#F9F4E8"/>
<path d="M46.295 14.447C46.295 14.9912 45.8489 15.387 45.3532 15.387C44.808 15.387 44.4114 14.9417 44.4114 14.447C44.4114 13.9027 44.8575 13.5069 45.3532 13.5069C45.8984 13.4575 46.295 13.9027 46.295 14.447Z" fill="#FAF5EA"/>
<path d="M46.295 14.447C46.295 14.9912 45.8489 15.387 45.3532 15.387C44.808 15.387 44.4114 14.9417 44.4114 14.447C44.4114 13.9027 44.8575 13.5069 45.3532 13.5069C45.8489 13.4575 46.295 13.9027 46.295 14.447Z" fill="#FAF6EC"/>
<path d="M46.295 14.3973C46.295 14.8921 45.8984 15.3374 45.3532 15.3374C44.8575 15.3374 44.4114 14.9416 44.4114 14.3973C44.4114 13.9026 44.808 13.4573 45.3532 13.4573C45.8489 13.5068 46.295 13.9026 46.295 14.3973Z" fill="#FBF6EE"/>
<path d="M46.295 14.3973C46.295 14.8921 45.8984 15.3374 45.3532 15.3374C44.8575 15.3374 44.4114 14.9416 44.4114 14.3973C44.4114 13.9026 44.808 13.4573 45.3532 13.4573C45.8489 13.5068 46.295 13.9026 46.295 14.3973Z" fill="#FBF7EF"/>
<path d="M45.3532 15.288C45.8459 15.288 46.2454 14.8892 46.2454 14.3974C46.2454 13.9056 45.8459 13.5068 45.3532 13.5068C44.8604 13.5068 44.461 13.9056 44.461 14.3974C44.461 14.8892 44.8604 15.288 45.3532 15.288Z" fill="#FBF8F1"/>
<path d="M46.2454 14.3974C46.2454 14.8922 45.8489 15.288 45.3532 15.288C44.8575 15.288 44.461 14.8922 44.461 14.3974C44.461 13.9026 44.8575 13.5068 45.3532 13.5068C45.8489 13.5068 46.2454 13.9026 46.2454 14.3974Z" fill="#FCF9F3"/>
<path d="M46.2454 14.3974C46.2454 14.8922 45.8489 15.288 45.3532 15.288C44.8575 15.288 44.461 14.8922 44.461 14.3974C44.461 13.9026 44.8575 13.5068 45.3532 13.5068C45.8489 13.5068 46.2454 13.9026 46.2454 14.3974Z" fill="#FCFAF5"/>
<path d="M45.3532 15.288C45.8459 15.288 46.2454 14.8892 46.2454 14.3974C46.2454 13.9056 45.8459 13.5068 45.3532 13.5068C44.8604 13.5068 44.461 13.9056 44.461 14.3974C44.461 14.8892 44.8604 15.288 45.3532 15.288Z" fill="#FDFBF6"/>
<path d="M46.1958 14.3973C46.1958 14.892 45.7993 15.2384 45.3532 15.2384C44.8575 15.2384 44.5106 14.8426 44.5106 14.3973C44.5106 13.9025 44.9071 13.5562 45.3532 13.5562C45.8488 13.5067 46.1958 13.9025 46.1958 14.3973Z" fill="#FDFCF8"/>
<path d="M46.1958 14.3975C46.1958 14.8922 45.7993 15.2386 45.3532 15.2386C44.8575 15.2386 44.5106 14.8428 44.5106 14.3975C44.5106 13.9027 44.9071 13.5564 45.3532 13.5564C45.7993 13.5564 46.1958 13.9027 46.1958 14.3975Z" fill="#FEFCFA"/>
<path d="M45.3532 15.2386C45.8186 15.2386 46.1958 14.862 46.1958 14.3975C46.1958 13.933 45.8186 13.5564 45.3532 13.5564C44.8878 13.5564 44.5106 13.933 44.5106 14.3975C44.5106 14.862 44.8878 15.2386 45.3532 15.2386Z" fill="#FEFDFC"/>
<path d="M46.1958 14.3975C46.1958 14.8428 45.7993 15.2386 45.3532 15.2386C44.9071 15.2386 44.5106 14.8428 44.5106 14.3975C44.5106 13.9522 44.9071 13.5564 45.3532 13.5564C45.7993 13.5564 46.1958 13.9027 46.1958 14.3975Z" fill="#FFFEFD"/>
<path d="M45.3532 15.2386C45.8186 15.2386 46.1958 14.862 46.1958 14.3975C46.1958 13.933 45.8186 13.5564 45.3532 13.5564C44.8878 13.5564 44.5106 13.933 44.5106 14.3975C44.5106 14.862 44.8878 15.2386 45.3532 15.2386Z" fill="white"/>
<path d="M46.1958 14.2983C46.2454 14.6942 45.948 14.991 45.5515 15.0405C45.1549 15.09 44.808 14.7931 44.7584 14.4468C44.7088 14.051 45.0062 13.7541 45.4028 13.7046C45.7993 13.6552 46.1958 13.952 46.1958 14.2983Z" fill="#130F0E"/>
<path d="M45.9975 14.1501C45.9975 14.249 45.8984 14.348 45.7993 14.348C45.7001 14.348 45.601 14.249 45.601 14.1501C45.601 14.0511 45.7001 13.9521 45.7993 13.9521C45.8984 13.9521 45.9975 14.0511 45.9975 14.1501Z" fill="white"/>
<path opacity="0.1" d="M44.3618 17.1186C44.2627 17.1186 44.114 17.1186 44.0149 17.1681C43.9157 17.267 43.8661 17.4155 43.8661 17.5639C43.9157 17.8113 44.114 18.0587 44.3618 18.1576C44.6096 18.2566 44.907 18.2566 45.1549 18.2071C45.5514 18.1576 48.0793 16.7228 47.4349 16.2281C47.2862 16.1291 46.3445 16.8712 46.0966 16.9702C45.5018 17.1186 44.907 17.1681 44.3618 17.1186Z" fill="white"/>
<path opacity="0.42" d="M41.4374 14.1005C41.14 14.6448 41.0409 15.2879 41.0409 15.8817C41.0409 16.129 41.0905 16.3764 41.2392 16.5743C41.3879 16.7722 41.6357 16.9206 41.8835 16.8712C42.1314 16.8217 42.3296 16.5743 42.3792 16.3269C42.4287 16.0796 42.4287 15.8322 42.4287 15.5848C42.4783 14.9911 42.627 14.3974 42.8748 13.8531C43.0235 13.6058 43.9157 12.6162 43.8166 12.4183C43.5688 11.7257 41.6357 13.8037 41.4374 14.1005Z" fill="url(#paint7_linear_178_3720)"/>
<path opacity="0.42" d="M46.0471 12.2701C43.7175 11.3795 41.2887 10.5384 38.9096 9.79631C38.0174 9.54893 37.1747 9.30155 36.233 9.15312C33.1103 8.65836 29.8389 9.54893 27.4102 11.4785C26.4189 12.2701 25.378 12.9628 24.4362 13.7544C23.4944 14.546 21.1153 15.4366 19.8761 15.5355C24.4362 17.1682 26.8154 14.6449 30.2355 13.7049C35.4895 12.3196 41.6853 12.3691 47.435 13.0617C47.2863 13.0617 46.1958 12.3196 46.0471 12.2701Z" fill="url(#paint8_linear_178_3720)"/>
<path d="M42.4784 43.4398C42.4784 43.4892 42.4784 43.4892 42.4288 43.5387C42.3792 43.5882 42.3297 43.5882 42.3297 43.5882C41.3879 43.8356 40.4957 44.3798 39.8514 45.1219C39.7027 44.4293 39.7522 43.7366 39.9505 43.0934C40.0992 42.6481 40.347 42.2523 40.4461 41.7576C40.5948 40.966 40.2974 40.2238 40.0992 39.4817C40.8922 39.6796 41.487 39.8775 41.9331 40.6196C42.4288 41.4607 42.6766 42.4997 42.4784 43.4398Z" fill="url(#paint9_linear_178_3720)"/>
<g opacity="0.3">
<path d="M40.7436 39.6301C41.0905 40.4217 41.2392 41.3618 40.9418 42.2029C40.7436 42.5987 40.5949 42.9945 40.3966 43.3903C40.1983 43.7861 40.0496 44.1819 40.0001 44.6272C40.0496 44.1819 40.1983 43.7861 40.347 43.3903C40.4957 42.9945 40.694 42.5987 40.8427 42.2029C41.0905 41.4113 40.8923 40.5207 40.4957 39.7786L40.7436 39.6301Z" fill="#8FAED6"/>
</g>
<g opacity="0.3">
<path d="M41.3384 39.5806C41.5862 40.2238 41.834 40.8669 41.9827 41.5101C42.1314 42.1533 42.2305 42.846 42.181 43.5386C42.181 42.846 42.0323 42.2028 41.834 41.5596C41.6357 40.9164 41.3384 40.3227 41.041 39.729L41.3384 39.5806Z" fill="#8FAED6"/>
</g>
<g opacity="0.3">
<path d="M41.14 39.6797C41.6357 41.0155 41.6853 42.5493 41.2392 43.8851C41.5861 42.4998 41.4374 41.0155 40.8427 39.7786L41.14 39.6797Z" fill="#8FAED6"/>
</g>
<path d="M53.2342 45.4188C53.6803 47.2989 54.523 49.08 55.7621 50.5643C56.3569 49.5748 56.456 48.3379 56.6047 47.1999C56.7534 46.062 56.9517 44.8251 57.7448 43.9345C57.2987 43.3408 56.8526 42.7471 56.4065 42.1534C55.5638 41.0649 54.7212 39.828 54.8699 38.4922C54.0769 38.888 53.2342 39.1848 52.3916 39.4322C52.8873 39.2838 52.7386 41.7576 52.7386 42.1039C52.8377 43.2419 52.9864 44.3303 53.2342 45.4188Z" fill="url(#paint10_linear_178_3720)"/>
<g opacity="0.3">
<path d="M53.3829 39.2343C53.2342 41.1144 53.2838 43.0439 53.7299 44.8745C53.9282 45.8146 54.2256 46.7052 54.6221 47.5462C55.0186 48.4368 55.5638 49.1789 55.8117 50.119C55.5638 49.1789 54.969 48.4368 54.5725 47.5462C54.176 46.7052 53.8786 45.7651 53.6308 44.8745C53.1847 43.0439 53.0855 41.1144 53.1847 39.1848L53.3829 39.2343Z" fill="#8FAED6"/>
</g>
<g opacity="0.3">
<path d="M54.4238 38.5417C54.5725 39.6796 54.7212 40.7681 55.1673 41.8071C55.5638 42.8461 56.2577 43.8356 57.1995 44.4293C56.2577 43.8356 55.5142 42.8461 55.0682 41.8071C54.6221 40.7681 54.3742 39.6301 54.2255 38.4922L54.4238 38.5417Z" fill="#8FAED6"/>
</g>
<g opacity="0.3">
<path d="M53.9777 38.8879C54.0273 39.5311 54.0273 40.1743 54.1264 40.768C54.2256 41.4112 54.3743 42.0049 54.6221 42.5986C55.0682 43.7861 55.8117 44.8745 56.7039 45.7156C55.7621 44.8745 55.0186 43.7861 54.523 42.5986C54.2751 42.0049 54.1264 41.4112 53.9777 40.768C53.8786 40.1248 53.829 39.4817 53.7795 38.8879H53.9777Z" fill="#8FAED6"/>
</g>
<g opacity="0.3">
<path d="M53.7299 39.4323C53.5812 40.9166 53.7299 42.4008 54.2256 43.8356C54.4734 44.5283 54.7708 45.221 55.1673 45.8642C55.5638 46.5073 56.0099 47.1011 56.3073 47.7937C56.0099 47.1011 55.5638 46.5073 55.1177 45.8642C54.7212 45.221 54.3743 44.5778 54.1264 43.8356C53.6308 42.4008 53.3829 40.9166 53.5316 39.3828L53.7299 39.4323Z" fill="#8FAED6"/>
</g>
<path d="M44.8576 43.5883C44.9071 45.5179 45.6506 47.398 46.8898 48.8823C48.1289 50.3665 49.8638 51.4055 51.7473 51.8013C51.5986 51.1087 51.9455 50.416 51.9951 49.6739C52.0447 48.9317 51.6977 48.2391 51.6481 47.4969C51.549 46.5074 51.896 45.5674 52.0447 44.6273C52.1934 43.6873 52.1438 42.5493 51.4499 41.9062C50.3594 40.9166 48.4759 41.5103 47.2863 40.6693C47.1376 40.5703 46.9889 40.4714 46.8402 40.4219C46.7411 40.4219 46.5924 40.4219 46.4932 40.4219C45.9976 40.4714 45.5515 40.4219 45.0558 40.4714C44.6097 40.5208 44.7089 40.4714 44.8576 40.9166C45.0558 41.7082 44.8576 42.6978 44.8576 43.5883Z" fill="url(#paint11_linear_178_3720)"/>
<g opacity="0.3">
<path d="M45.1549 40.3726C45.8489 41.3126 45.948 42.5 45.948 43.638C45.948 44.1822 45.948 44.7759 46.0471 45.3201C46.0967 45.8644 46.2454 46.4086 46.4932 46.9034C46.9393 47.9424 47.6828 48.7835 48.5254 49.5256C49.3681 50.2183 50.3594 50.7625 51.4003 51.2078C50.3594 50.7625 49.3681 50.2677 48.4759 49.5256C47.5837 48.8329 46.8402 47.9424 46.3941 46.9034C46.1463 46.4086 45.9976 45.8644 45.8984 45.2707C45.7993 44.7264 45.7993 44.1327 45.7993 43.5885C45.7497 42.5 45.6506 41.3126 44.9567 40.4715L45.1549 40.3726Z" fill="#8FAED6"/>
<path d="M45.9976 40.1746C46.4932 41.2136 47.435 42.0052 48.575 42.2526C49.1203 42.401 49.715 42.401 50.3098 42.4505C49.715 42.4505 49.1203 42.4505 48.575 42.302C47.435 42.0546 46.3941 41.263 45.8489 40.1746H45.9976Z" fill="#8FAED6"/>
<path d="M45.7497 40.2734C46.2454 41.4609 47.1871 42.4999 48.3767 43.0441C49.5663 43.5883 50.9542 43.7367 52.0942 44.3799C50.9046 43.7367 49.5663 43.6378 48.3272 43.0936C47.088 42.5493 46.0967 41.5598 45.5515 40.3229L45.7497 40.2734Z" fill="#8FAED6"/>
<path d="M44.9071 40.4714C45.5019 41.5599 45.5019 42.7968 45.601 43.9842C45.6506 45.1716 45.8489 46.3591 46.3445 47.4475C46.7906 48.536 47.5341 49.5255 48.5255 50.1687C49.5168 50.8119 50.6072 51.3067 51.7473 51.653C50.6072 51.3067 49.5168 50.8614 48.5255 50.2182C47.5341 49.575 46.7411 48.5855 46.295 47.497C45.7993 46.4085 45.601 45.2211 45.5019 44.0337C45.4028 42.8463 45.3532 41.6589 44.808 40.6199L44.9071 40.4714Z" fill="#8FAED6"/>
<path d="M45.4523 40.3726C45.7993 41.0157 46.0967 41.6589 46.4932 42.3021C46.8898 42.8958 47.3359 43.4895 47.9307 43.9348C49.0707 44.8254 50.5577 45.2212 51.8464 45.8644C50.5081 45.2707 49.0707 44.8749 47.8811 43.9843C47.2863 43.539 46.7906 42.9948 46.3941 42.3516C45.9976 41.7579 45.6506 41.0652 45.3036 40.422L45.4523 40.3726Z" fill="#8FAED6"/>
<path d="M45.3037 40.4219C46.0967 41.164 46.3446 42.203 46.5428 43.1925C46.7411 44.182 46.8898 45.221 47.435 46.0621C47.9307 46.9527 48.6246 47.6948 49.4672 48.338C50.3099 48.9317 51.1525 49.476 51.9951 50.0202C51.1029 49.476 50.2603 48.9317 49.4177 48.338C48.6246 47.6948 47.8811 46.9527 47.3359 46.0621C47.0881 45.6168 46.8898 45.1221 46.7411 44.6273C46.5924 44.1326 46.4933 43.6378 46.3941 43.143C46.1959 42.1535 45.8985 41.1145 45.155 40.4714L45.3037 40.4219Z" fill="#8FAED6"/>
<path d="M45.3532 40.521C45.948 41.1147 46.1958 41.9063 46.5428 42.6485C46.8898 43.3906 47.2863 44.0833 47.782 44.677C48.2776 45.3202 48.8724 45.8644 49.5168 46.3097C49.8638 46.5571 50.2107 46.755 50.5577 46.9529C50.2107 46.755 49.8638 46.5571 49.5168 46.3591C48.8724 45.9139 48.2281 45.3696 47.7324 44.7759C47.1872 44.1822 46.7411 43.4895 46.4437 42.7474C46.0967 42.0053 45.8489 41.2631 45.2541 40.7189L45.3532 40.521Z" fill="#8FAED6"/>
</g>
<path d="M54.0273 19.1472C53.036 20.9283 53.2838 23.2537 54.5725 24.7875C55.2169 25.5296 56.01 26.0738 56.803 26.717C58.4387 28.1024 59.777 29.834 60.6692 31.7636C60.9666 32.4068 61.2144 33.0994 61.0657 33.7921C60.5701 33.1984 59.6779 33.3468 58.9344 33.4457C57.943 33.5447 56.9517 33.3963 56.01 33.0499C52.0942 31.5657 49.0707 28.5971 44.9071 28.4982C45.7497 28.1518 45.8489 27.0634 46.0471 26.1728C46.6915 23.0558 49.2689 20.3841 52.3916 19.6915C52.9368 19.642 53.4325 19.4935 54.0273 19.1472Z" fill="url(#paint12_linear_178_3720)"/>
<g opacity="0.3">
<path d="M45.7002 28.2012C45.9976 27.2612 46.295 26.2716 46.5924 25.3316C46.9394 24.3916 47.3359 23.4515 47.9802 22.6599C48.575 21.8683 49.4177 21.2251 50.3099 20.7798C51.2021 20.3345 52.1934 20.0871 53.1847 19.9387C52.1934 20.0871 51.2021 20.384 50.3099 20.8293C49.4177 21.2746 48.6246 21.9178 48.0298 22.7094C47.435 23.501 47.0385 24.441 46.6915 25.3811C46.3941 26.3211 46.0967 27.3106 45.7993 28.2507L45.7002 28.2012Z" fill="#8FAED6"/>
<path d="M46.295 28.3497C46.4932 27.4096 46.7906 26.5191 47.1376 25.6285C47.4846 24.7379 47.8315 23.8968 48.3768 23.1052C48.922 22.3136 49.6655 21.7199 50.5081 21.2746C51.3507 20.8788 52.2925 20.6314 53.2343 20.5325C52.2925 20.6314 51.4003 20.8788 50.5577 21.3241C49.7151 21.7694 48.9716 22.3631 48.4759 23.1547C47.9802 23.9463 47.6333 24.8369 47.2863 25.678C46.9889 26.5685 46.6915 27.4591 46.4932 28.3497H46.295Z" fill="#8FAED6"/>
<path d="M47.0385 28.3496C47.1376 27.9538 47.2368 27.558 47.3855 27.1622C47.5342 26.7664 47.6829 26.4201 47.8316 26.0243C48.129 25.2821 48.5255 24.5895 48.9716 23.8968C49.4177 23.2536 50.0125 22.6599 50.6569 22.2146C51.3012 21.7693 52.0943 21.4725 52.8873 21.3735C52.0943 21.4725 51.3508 21.8188 50.7064 22.2641C50.0621 22.7094 49.5168 23.3031 49.0707 23.9958C48.6246 24.6389 48.2777 25.3811 47.9803 26.1232C47.8316 26.4696 47.6829 26.8654 47.5837 27.2612C47.435 27.657 47.3855 28.0033 47.2863 28.3991L47.0385 28.3496Z" fill="#8FAED6"/>
<path d="M54.8699 31.9615C55.2665 32.0109 55.663 31.9615 56.0595 31.912C56.4561 31.813 56.8526 31.7141 57.2491 31.5657C57.6457 31.4172 58.0422 31.3183 58.4387 31.2688C58.8352 31.2193 59.2813 31.2688 59.6283 31.4172C59.2318 31.2688 58.8352 31.2688 58.4387 31.3183C58.0422 31.3677 57.6457 31.5162 57.2491 31.6646C56.8526 31.813 56.4561 31.9615 56.0595 32.0109C55.663 32.1099 55.2665 32.1594 54.8204 32.1099L54.8699 31.9615Z" fill="#8FAED6"/>
<path d="M54.0769 31.3676C54.9691 31.417 55.9109 31.1697 56.7039 30.6254C57.1005 30.3781 57.4474 30.0812 57.8935 29.8833C58.3396 29.6854 58.8353 29.6854 59.2814 29.7349C58.8353 29.6359 58.3396 29.7349 57.8935 29.9328C57.4474 30.1307 57.1005 30.4275 56.7039 30.7244C55.9109 31.2686 54.9691 31.5655 54.0273 31.5655L54.0769 31.3676Z" fill="#8FAED6"/>
<path d="M47.6829 28.5475C47.8811 27.8549 48.0298 27.1622 48.3272 26.4695C48.5751 25.7769 48.922 25.1337 49.4177 24.5895L50.2107 23.8473C50.4586 23.5999 50.756 23.402 51.0534 23.1547C51.6482 22.7588 52.2925 22.4125 53.036 22.363C52.2925 22.4125 51.6482 22.7588 51.1029 23.2041C50.8055 23.402 50.5577 23.6494 50.2603 23.8968L49.5168 24.6389C49.0212 25.1832 48.7238 25.8263 48.4759 26.4695C48.2281 27.1622 48.0794 27.8549 47.8811 28.5475H47.6829Z" fill="#8FAED6"/>
<path d="M52.3421 30.3286C52.7882 30.2296 53.1847 29.8833 53.5813 29.5864L54.7709 28.6464L55.3656 28.1516C55.5639 28.0032 55.7622 27.8053 55.9604 27.6569C56.357 27.36 56.8526 27.1126 57.3483 27.1621C56.8526 27.1126 56.357 27.4095 55.9604 27.7063C55.7622 27.8548 55.5639 28.0527 55.3656 28.2011L54.7709 28.6958L53.6308 29.6854C53.2343 30.0317 52.8873 30.378 52.3421 30.5265V30.3286Z" fill="#8FAED6"/>
<path d="M48.3768 28.4979C48.7237 27.261 49.4177 26.1726 50.3099 25.282C50.5577 25.0841 50.756 24.8367 51.0534 24.6883L51.8464 24.1441C52.3916 23.7977 52.9369 23.5009 53.4325 23.1545C52.8873 23.5009 52.3421 23.8472 51.8464 24.1935L51.0534 24.7378C50.8055 24.9357 50.5577 25.1336 50.3594 25.381C49.4672 26.2715 48.8229 27.4095 48.5255 28.5969L48.3768 28.4979Z" fill="#8FAED6"/>
<path d="M51.7969 30.0318C52.6891 29.5865 53.2839 28.7949 53.8787 28.0033C54.1761 27.6075 54.4735 27.2117 54.87 26.8653C55.2169 26.519 55.663 26.2222 56.1091 26.0737C55.663 26.2716 55.2665 26.5685 54.9196 26.9148C54.5726 27.2612 54.2752 27.657 53.9778 28.0528C53.6804 28.4486 53.383 28.8444 53.0856 29.2402C52.7386 29.636 52.3917 29.9328 51.9456 30.1802L51.7969 30.0318Z" fill="#8FAED6"/>
<path d="M50.9047 29.636C51.4003 29.4876 51.7969 29.1413 52.1438 28.7455C52.4908 28.3496 52.7386 27.9044 53.036 27.4591C53.3334 27.0138 53.5812 26.5685 53.9282 26.1232C54.2752 25.7274 54.6717 25.3316 55.2169 25.2327C54.6717 25.3316 54.2752 25.7274 53.9778 26.1727C53.6804 26.618 53.4325 27.0633 53.1351 27.5086C52.8377 27.9538 52.5899 28.3991 52.2925 28.8444C51.9951 29.2897 51.549 29.6855 51.0038 29.8339L50.9047 29.636Z" fill="#8FAED6"/>
<path d="M49.7151 29.339C50.2108 29.2401 50.5577 28.7948 50.9047 28.3495L51.4003 27.7063C51.549 27.459 51.6977 27.2611 51.7969 27.0137C52.0447 26.5189 52.3421 26.0736 52.6891 25.6283C53.036 25.1831 53.4326 24.7873 53.9282 24.5894C53.4326 24.8367 53.036 25.2325 52.6891 25.6778C52.3421 26.1231 52.0943 26.6179 51.8464 27.1126C51.6977 27.36 51.5986 27.6074 51.4499 27.8548L51.0038 28.5474C50.8551 28.7948 50.7064 28.9927 50.5081 29.1906C50.3099 29.3885 50.0621 29.5864 49.7647 29.6359L49.7151 29.339Z" fill="#8FAED6"/>
<path d="M48.9716 28.8443L49.8142 27.4095C50.1116 26.9148 50.409 26.42 50.8055 26.0737C51.202 25.6779 51.6481 25.381 52.1438 25.0347L53.4821 24.0452L52.1438 25.0842C51.6977 25.4305 51.2516 25.7273 50.8551 26.1232C50.4585 26.519 50.2107 27.0137 49.9133 27.5085L49.0707 28.9433L48.9716 28.8443Z" fill="#8FAED6"/>
<path d="M52.9865 30.7739C53.9282 30.5265 54.7708 30.0317 55.5143 29.3886C55.8613 29.0917 56.1587 28.6959 56.5057 28.3496C56.8526 28.0032 57.2987 27.7064 57.7448 27.6074C57.2492 27.7558 56.8526 28.0032 56.5057 28.3496C56.1587 28.6959 55.9109 29.0917 55.5143 29.438C54.8204 30.1307 53.9282 30.6255 52.9865 30.9223V30.7739Z" fill="#8FAED6"/>
<path d="M53.6804 31.0214C54.523 30.8235 55.2665 30.3287 56.01 29.7845C56.3569 29.5371 56.7535 29.2897 57.15 29.0918L57.7448 28.795C57.9431 28.696 58.1909 28.5971 58.3892 28.696C58.1909 28.6465 57.9431 28.7455 57.7448 28.8444L57.15 29.1908C56.7535 29.3887 56.4065 29.6361 56.0595 29.9329C55.3656 30.4771 54.6221 31.0214 53.7299 31.2688L53.6804 31.0214Z" fill="#8FAED6"/>
<path d="M55.6135 32.555C56.4065 32.2086 57.2987 32.1592 58.0918 32.2086C58.9344 32.3076 59.7275 32.5055 60.5701 32.7034C59.777 32.5055 58.9344 32.3076 58.0918 32.2581C57.2492 32.2086 56.4065 32.3076 55.663 32.6539L55.6135 32.555Z" fill="#8FAED6"/>
</g>
<path d="M61.5614 34.9301C65.0806 36.1175 68.9468 35.9691 72.6147 35.3259C75.093 34.8807 77.6704 34.2375 80.0496 35.0786C80.0496 35.4744 79.8018 35.8207 79.4548 36.0186C79.1079 36.2165 78.7609 36.3155 78.3644 36.4144C76.8774 36.8597 75.4895 37.6513 74.3991 38.6903C73.953 39.0861 73.5564 39.5314 73.0608 39.8282C72.6147 40.0756 72.119 40.1746 71.6234 40.2735C69.145 40.6693 66.6172 40.7188 64.1388 40.323C64.7832 40.7188 65.378 41.1641 65.7745 41.8073C66.1711 42.4505 66.3693 43.1926 66.1711 43.9347C66.1215 44.1821 66.0224 44.4295 65.9728 44.6769C65.9232 45.518 66.9146 46.0127 67.4102 46.7549C67.6581 47.1012 67.7572 47.5465 67.9555 47.9423C68.3024 48.6844 68.9963 49.2781 69.7894 49.575C70.3842 49.7729 71.0781 49.8224 71.6729 49.9708C72.3173 50.1192 72.9121 50.515 73.1599 51.1087C71.6234 51.7025 70.0372 52.0983 68.4016 52.3456C67.5589 52.4941 66.6667 52.5435 65.8737 52.3456C65.2293 52.1972 64.6345 51.8509 64.0397 51.5045C63.2467 51.0098 62.5032 50.515 61.8092 49.8718C60.917 49.0802 60.1735 48.0907 59.6779 47.0517C58.9344 45.5674 58.637 43.9842 58.1413 42.401C57.6457 40.8178 57.0013 39.284 55.7621 38.1955C56.6048 37.9976 57.3483 37.5523 57.9926 36.9586C58.1413 36.8102 58.3396 36.6123 58.4387 36.4144C58.7857 35.8702 58.0918 34.188 58.4883 34.188C59.2814 34.2869 61.0162 34.7322 61.5614 34.9301Z" fill="url(#paint13_linear_178_3720)"/>
<path d="M52.8873 30.4277C50.6568 28.9434 47.9307 28.1518 45.2045 28.2507C43.2219 28.3002 41.2888 28.7949 39.3557 29.3392C36.8278 30.0318 34.2504 30.8729 32.119 32.3572C31.6234 32.7035 31.1773 33.0994 30.8303 33.5941C30.4833 34.0889 30.3346 34.7321 30.5329 35.2763C30.7312 35.87 31.2268 36.3153 31.7225 36.6616C34.2999 38.4922 37.373 39.6302 40.4957 40.1744C43.6184 40.7186 46.8402 40.6692 50.0125 40.3228C51.7473 40.1249 53.5317 39.8281 55.1673 39.1354C55.7126 38.888 56.2578 38.5912 56.8526 38.5417C58.1413 38.3933 59.2813 39.3333 60.2231 40.2239C59.6779 39.5807 59.5787 38.5912 59.9753 37.7996C60.3718 37.0574 61.264 36.5627 62.1066 36.6616C61.0162 36.3648 60.5205 35.7216 59.8266 34.8805C59.3309 34.2868 58.6866 34.1878 57.9926 33.891C56.0595 33.0993 54.6221 31.5656 52.8873 30.4277Z" fill="url(#paint14_radial_178_3720)"/>
<g opacity="0.4">
<path d="M56.8526 37.9976C57.6952 38.5913 58.1909 39.5313 58.5874 40.4219C58.9344 41.3619 59.2814 42.302 59.6283 43.1925C60.3222 45.0231 61.1153 46.9032 62.3049 48.437C63.5441 49.9707 65.2293 51.2571 67.212 51.5539C68.2033 51.7519 69.1946 51.554 70.1859 51.4055C69.1946 51.6034 68.2033 51.7519 67.212 51.6034C65.2293 51.3066 63.4945 50.0202 62.2553 48.4864C61.0162 46.9032 60.2231 45.0726 59.5292 43.1925C59.1822 42.2525 58.8353 41.3124 58.4883 40.4219C58.0918 39.5313 57.5961 38.6407 56.803 38.0965L56.8526 37.9976Z" fill="#8FAED6"/>
<path d="M57.6456 37.4534C58.4387 38.0471 59.0335 38.8387 59.4796 39.7293C59.9257 40.5704 60.2727 41.5104 60.5701 42.401C61.1648 44.2316 61.5614 46.1611 62.6023 47.7938C63.5936 49.4265 65.378 50.5645 67.3111 50.8119C68.2528 50.9108 69.2442 50.8613 70.1859 50.8119C71.1277 50.8119 72.119 50.8119 73.0608 51.1087C72.119 50.8119 71.1772 50.7624 70.1859 50.8119C69.2442 50.8613 68.2528 50.9108 67.3111 50.8119C65.378 50.614 63.5936 49.476 62.5527 47.8433C61.4622 46.2106 61.0162 44.281 60.4214 42.4504C60.124 41.5599 59.777 40.6198 59.3309 39.7787C58.8848 38.9376 58.29 38.146 57.5465 37.6018L57.6456 37.4534Z" fill="#8FAED6"/>
<path d="M58.4883 37.0574C60.1735 37.9479 61.264 39.6301 61.9084 41.4112C62.2553 42.3018 62.4536 43.1924 62.6519 44.0829C62.8501 44.9735 63.0979 45.8641 63.5936 46.7052C64.0397 47.4968 64.5354 48.3379 65.2293 48.9316C65.9232 49.5748 66.8154 49.8716 67.7572 50.0201C68.6989 50.119 69.5911 50.119 70.5329 50.218C70.979 50.2674 71.4747 50.3169 71.9208 50.4159C72.3668 50.5643 72.8129 50.7622 73.1103 51.1085C72.7634 50.7622 72.3668 50.5643 71.9208 50.4653C71.4747 50.3664 71.0286 50.3169 70.5329 50.2674C69.5911 50.218 68.6494 50.218 67.7572 50.119C66.8154 50.0201 65.9232 49.7232 65.2293 49.08C64.5354 48.4368 64.0397 47.6452 63.5936 46.8536C63.0979 46.062 62.8501 45.1219 62.6519 44.2314C62.4536 43.3408 62.2058 42.4008 61.9084 41.5597C61.264 39.828 60.1735 38.1953 58.5378 37.3542L58.4883 37.0574Z" fill="#8FAED6"/>
<path d="M59.0335 36.9585C60.7188 37.5522 62.1562 38.8881 62.8006 40.5702C63.4945 42.2029 63.5936 44.0335 64.4362 45.5673C65.2789 47.1011 66.6172 48.3874 68.2033 49.1296C68.9963 49.5254 69.8885 49.6738 70.7312 49.9212C71.1277 50.0696 71.5738 50.218 71.9703 50.3665C72.3668 50.5149 72.8129 50.7128 73.0608 51.1086C72.8129 50.7128 72.4164 50.5149 71.9703 50.3665C71.5738 50.218 71.1277 50.0696 70.7312 49.9707C69.8885 49.7233 68.9963 49.5749 68.2033 49.179C66.5676 48.4369 65.2293 47.2 64.3371 45.6663C63.4449 44.083 63.2962 42.2524 62.6519 40.6692C62.0075 39.0365 60.6196 37.7501 58.9839 37.2059L59.0335 36.9585Z" fill="#8FAED6"/>
<path d="M59.8762 35.1278C61.3632 35.9689 62.9988 36.4637 64.6841 36.6121C66.3694 36.81 68.1042 36.711 69.7894 36.4637C71.4747 36.2163 73.1599 35.8205 74.7956 35.4741C75.6383 35.2762 76.4809 35.1278 77.3235 35.0289C78.1661 34.9794 79.0583 35.0289 79.901 35.1278C79.0583 34.9794 78.2157 34.9794 77.3235 35.0289C76.4809 35.0783 75.6383 35.2762 74.7956 35.4741C73.1599 35.8699 71.4747 36.2658 69.7894 36.5131C68.1042 36.7605 66.3694 36.8595 64.6841 36.711C62.9988 36.5131 61.264 36.0678 59.777 35.2268L59.8762 35.1278Z" fill="#8FAED6"/>
<path d="M60.3223 36.3152C61.0162 36.7605 61.8588 37.0079 62.6519 37.2552C63.4449 37.5026 64.2876 37.651 65.1302 37.7995C66.8154 38.0468 68.5007 38.1953 70.186 37.9479C71.8712 37.7005 73.4573 37.1068 75.0435 36.5131C75.8365 36.2162 76.58 35.8699 77.4226 35.5731C78.2157 35.2762 79.1079 35.1278 79.901 35.3257C79.0583 35.0783 78.2157 35.2762 77.4226 35.5731C76.6296 35.8699 75.8861 36.2162 75.093 36.5131C73.5069 37.1563 71.9208 37.75 70.2355 37.9974C68.5503 38.2942 66.8155 38.1458 65.1798 37.8984C64.3371 37.7995 63.4945 37.6016 62.7014 37.4037C61.9084 37.1563 61.0658 36.9089 60.3223 36.4636V36.3152Z" fill="#8FAED6"/>
<path d="M60.0744 36.7111C61.3136 37.9975 62.9493 38.8385 64.6841 39.3333C66.4189 39.8281 68.2529 39.927 69.9877 39.4323C70.8799 39.1849 71.6729 38.7891 72.466 38.3933C73.2591 37.9975 74.0521 37.5027 74.8452 37.0574C76.3817 36.1669 78.067 35.3258 79.9009 35.2268C78.067 35.3258 76.4313 36.2163 74.8947 37.1069C74.1017 37.5522 73.3582 37.9975 72.5156 38.4427C71.7225 38.8385 70.9294 39.2838 70.0372 39.5312C68.3024 40.026 66.4189 39.927 64.6345 39.4817C62.8997 38.987 61.2144 38.1954 59.9257 36.8595L60.0744 36.7111Z" fill="#8FAED6"/>
<path d="M61.2144 38.2448C61.8092 38.8385 62.5527 39.2838 63.3458 39.6302C64.1388 39.9765 64.9815 40.1744 65.8241 40.3228C66.6667 40.4713 67.5589 40.5702 68.4015 40.5702C69.2442 40.5702 70.1364 40.4218 70.9294 40.1744C72.6147 39.6796 73.953 38.5417 75.3408 37.5027C76.7287 36.4637 78.2157 35.4247 79.9505 35.2268C78.2157 35.4742 76.7287 36.5132 75.3904 37.5522C74.0521 38.5912 72.6642 39.7291 70.979 40.2733C70.1364 40.5207 69.2937 40.6692 68.4015 40.6692C67.5094 40.6692 66.6667 40.6197 65.8241 40.4713C64.9815 40.3228 64.1388 40.0754 63.2962 39.7786C62.5032 39.4323 61.7101 38.987 61.0657 38.3933L61.2144 38.2448Z" fill="#8FAED6"/>
</g>
<path opacity="0.1" d="M46.9394 40.2239C50.6568 40.3723 54.3743 39.2344 57.3483 37.008C53.1352 37.2059 49.0212 37.2554 45.0558 35.8206C45.2045 37.5027 45.8985 38.987 46.9394 40.2239Z" fill="white"/>
<path opacity="0.62" d="M41.5862 37.6513C43.6679 37.9976 45.6506 38.6903 47.4845 39.7293C46.9393 40.0756 46.2454 40.224 45.601 40.224C45.0062 40.1746 44.4114 40.0261 43.8662 39.7787C43.0236 39.4324 42.2305 39.0366 41.487 38.5419C41.2888 38.3934 40.5453 38.0471 40.5453 37.7502C40.4957 37.3544 41.3879 37.6018 41.5862 37.6513Z" fill="white"/>
<g opacity="0.38">
<path opacity="0.38" d="M53.8786 32.1099C54.0769 32.1594 54.2751 32.3078 54.3247 32.5057C54.176 32.6542 53.9282 32.6542 53.7299 32.6542C53.4325 32.6047 53.1351 32.5057 52.8873 32.3078C52.7882 32.2584 52.689 32.1594 52.7386 32.0605C52.7882 32.011 52.8377 32.011 52.8873 31.9615C53.2838 31.8626 53.7299 31.9615 54.0273 32.2089" fill="white"/>
<path opacity="0.38" d="M45.601 29.4381C45.601 29.5371 45.5019 29.636 45.4028 29.6855C45.3036 29.735 45.1549 29.6855 45.0558 29.6855C44.9567 29.6855 44.808 29.636 44.7088 29.5866C44.6593 29.5371 44.5601 29.5371 44.5106 29.4876C44.461 29.4381 44.4114 29.3392 44.4114 29.2897C44.5106 28.8939 45.601 28.9929 45.601 29.4381Z" fill="white"/>
<path opacity="0.38" d="M52.2925 30.7741C52.2925 30.8235 52.2429 30.873 52.1934 30.873C52.1438 30.873 52.0942 30.873 52.0447 30.873C51.9951 30.873 51.9455 30.873 51.896 30.8235C51.8464 30.8235 51.8464 30.8235 51.7968 30.7741C51.7968 30.7741 51.7473 30.7246 51.7473 30.6751C51.8464 30.5762 52.2925 30.5762 52.2925 30.7741Z" fill="white"/>
<path opacity="0.38" d="M49.6655 31.3676C49.6655 31.4171 49.6159 31.4666 49.5663 31.4666C49.5168 31.4666 49.4672 31.4666 49.4176 31.4666C49.3681 31.4666 49.3185 31.4666 49.2689 31.4171C49.2194 31.4171 49.2194 31.3676 49.1698 31.3676C49.1698 31.3676 49.1202 31.3182 49.1202 31.2687C49.2194 31.1202 49.6655 31.1697 49.6655 31.3676Z" fill="white"/>
<path opacity="0.38" d="M50.4089 30.7245C50.4089 30.774 50.3594 30.8234 50.3098 30.8234C50.2602 30.8234 50.2107 30.8234 50.1611 30.8234C50.1115 30.8234 50.062 30.8234 50.0124 30.774C49.9628 30.774 49.9628 30.7245 49.9133 30.7245C49.9133 30.7245 49.8637 30.675 49.8637 30.6255C49.9628 30.5266 50.4089 30.5266 50.4089 30.7245Z" fill="white"/>
<path opacity="0.38" d="M47.1376 29.3392C47.1376 29.3887 47.088 29.4382 47.0384 29.4382C46.9889 29.4382 46.9393 29.4382 46.8897 29.4382C46.8402 29.4382 46.7906 29.4382 46.741 29.3887C46.6915 29.3887 46.6915 29.3392 46.6419 29.3392C46.6419 29.3392 46.5923 29.2898 46.5923 29.2403C46.6915 29.1413 47.1376 29.1413 47.1376 29.3392Z" fill="white"/>
<path opacity="0.38" d="M42.8253 29.8339C42.8253 29.8834 42.7758 29.9329 42.7262 29.9329C42.6766 29.9329 42.6271 29.9329 42.5775 29.9329C42.5279 29.9329 42.4784 29.9329 42.4288 29.8834C42.3792 29.8834 42.3792 29.8339 42.3297 29.8339C42.3297 29.8339 42.2801 29.7845 42.2801 29.735C42.3792 29.5866 42.8253 29.636 42.8253 29.8339Z" fill="white"/>
<path opacity="0.38" d="M51.1524 31.0708V31.1203C51.1524 31.1203 51.1029 31.1203 51.1029 31.1697H51.0533H51.0037C51.0037 31.1697 50.9542 31.1697 50.9542 31.1203C50.9542 31.0708 51.1524 31.0213 51.1524 31.0708Z" fill="white"/>
<path opacity="0.38" d="M51.896 32.1593V32.2088C51.896 32.2088 51.8464 32.2088 51.8464 32.2582H51.7968H51.7473C51.7473 32.2582 51.6977 32.2582 51.6977 32.2088C51.6977 32.1593 51.896 32.0603 51.896 32.1593Z" fill="white"/>
<path opacity="0.38" d="M49.4672 29.6855V29.735C49.4672 29.735 49.4176 29.735 49.4176 29.7844H49.3681H49.3185C49.3185 29.7844 49.2689 29.7844 49.2689 29.735C49.2689 29.735 49.4176 29.636 49.4672 29.6855Z" fill="white"/>
<path opacity="0.38" d="M45.9976 28.7455V28.7949C45.9976 28.7949 45.948 28.7949 45.948 28.8444H45.8984H45.8489C45.8489 28.8444 45.7993 28.8444 45.7993 28.7949C45.7993 28.7455 45.948 28.6465 45.9976 28.7455Z" fill="white"/>
<path opacity="0.38" d="M46.8897 30.3286V30.3781C46.8897 30.3781 46.8402 30.3781 46.8402 30.4276H46.7906H46.741C46.741 30.4276 46.6915 30.4276 46.6915 30.3781C46.6915 30.3286 46.8897 30.2791 46.8897 30.3286Z" fill="white"/>
<path opacity="0.38" d="M48.4263 29.2402C48.4263 29.2897 48.3768 29.3391 48.3272 29.3391C48.2776 29.3391 48.2281 29.3391 48.1785 29.3391C48.1289 29.3391 48.0794 29.3391 48.0298 29.2897C47.9802 29.2897 47.9802 29.2897 47.9307 29.2402C47.9307 29.2402 47.8811 29.1907 47.8811 29.1412C47.9802 28.9928 48.4263 29.0423 48.4263 29.2402Z" fill="white"/>
<path opacity="0.38" d="M44.0149 28.9929C44.0149 29.0423 43.9653 29.0918 43.9158 29.0918C43.8662 29.0918 43.8166 29.0918 43.7671 29.0918C43.7175 29.0918 43.6679 29.0918 43.6184 29.0423C43.5688 29.0423 43.5688 29.0423 43.5192 28.9929C43.5192 28.9929 43.4697 28.9434 43.4697 28.8939C43.5688 28.7455 44.0149 28.795 44.0149 28.9929Z" fill="white"/>
<path opacity="0.38" d="M44.2132 30.0814C44.2132 30.1308 44.2132 30.1309 44.1636 30.1309C44.114 30.1309 44.114 30.1309 44.0645 30.1309C44.0149 30.1309 44.0149 30.1308 43.9653 30.0814C43.9653 30.0814 43.9158 30.0814 43.9158 30.0319V29.9824C43.9158 29.9824 44.2132 29.9824 44.2132 30.0814Z" fill="white"/>
<path opacity="0.38" d="M48.4759 30.3781C48.4759 30.4276 48.4263 30.4771 48.3768 30.4771C48.3272 30.4771 48.2776 30.4771 48.2281 30.4771C48.1785 30.4771 48.1289 30.4771 48.0794 30.4276C48.0298 30.4276 48.0298 30.3781 47.9802 30.3781C47.9802 30.3781 47.9307 30.3286 47.9307 30.2792C48.0298 30.1307 48.4759 30.1802 48.4759 30.3781Z" fill="white"/>
<path opacity="0.38" d="M50.9542 29.9329C50.9542 30.0318 50.9046 30.0813 50.8055 30.0813C50.7559 30.0813 50.6568 30.0813 50.5577 30.0813C50.4585 30.0813 50.409 30.0318 50.3098 30.0318C50.2603 30.0318 50.2107 29.9824 50.1611 29.9824C50.1116 29.9329 50.1116 29.8834 50.1116 29.8339C50.2107 29.5865 50.9542 29.636 50.9542 29.9329Z" fill="white"/>
</g>
<path opacity="0.42" d="M36.7287 30.8235C38.5626 31.4172 39.8514 33.05 39.7027 34.6827C39.6035 36.3154 38.86 38.0965 36.9765 38.4923C36.0843 38.6902 34.3991 37.7502 33.6556 37.3544C32.5156 36.7112 31.4251 35.9196 30.8303 34.8806C30.6816 34.6332 30.5825 34.3858 30.632 34.1384C30.6816 33.7426 31.0286 33.4458 31.3755 33.1984C32.2677 32.5552 33.2095 31.9615 34.2008 31.4667C34.5973 31.2688 35.0434 31.0709 35.5391 30.9225C36.0348 30.8235 36.2826 30.6751 36.7287 30.8235Z" fill="#B2D2FF"/>
<path d="M33.3582 33.7426C33.3582 34.4847 33.9529 35.0784 34.6964 35.0784C35.4399 35.0784 36.0347 34.4847 36.0347 33.7426C36.0347 33.0004 35.4399 32.4067 34.6964 32.4067C33.9529 32.4067 33.3582 33.0004 33.3582 33.7426Z" fill="#ECDAB4"/>
<path d="M33.3582 33.6931C33.3582 34.4352 33.9529 34.9795 34.6469 34.9795C35.3408 34.9795 35.9356 34.3858 35.9356 33.6931C35.9356 32.951 35.3408 32.4067 34.6469 32.4067C33.9529 32.4067 33.3582 33.0004 33.3582 33.6931Z" fill="#ECDBB6"/>
<path d="M33.4077 33.6931C33.4077 34.3858 34.0025 34.9795 34.6964 34.9795C35.3904 34.9795 35.9852 34.3858 35.9852 33.6931C35.9852 33.0004 35.3904 32.4067 34.6964 32.4067C33.9529 32.4067 33.4077 33.0004 33.4077 33.6931Z" fill="#EDDCB7"/>
<path d="M33.4077 33.6931C33.4077 34.3858 34.0025 34.9795 34.6964 34.9795C35.3904 34.9795 35.9852 34.3858 35.9852 33.6931C35.9852 33.0004 35.3904 32.4067 34.6964 32.4067C33.9529 32.4067 33.4077 33.0004 33.4077 33.6931Z" fill="#EDDDB9"/>
<path d="M33.4077 33.6931C33.4077 34.3858 33.9529 34.9795 34.6964 34.9795C35.3904 34.9795 35.9852 34.4352 35.9852 33.6931C35.9852 33.0004 35.4399 32.4067 34.6964 32.4067C34.0025 32.4562 33.4077 33.0004 33.4077 33.6931Z" fill="#EEDDBB"/>
<path d="M33.4077 33.6932C33.4077 34.3859 33.9529 34.9301 34.6469 34.9301C35.3408 34.9301 35.886 34.3859 35.886 33.6932C35.886 33.0005 35.3408 32.4563 34.6469 32.4563C34.0025 32.4563 33.4077 33.0005 33.4077 33.6932Z" fill="#EEDEBD"/>
<path d="M33.4573 33.6932C33.4573 34.3859 34.0025 34.9301 34.6964 34.9301C35.3904 34.9301 35.9356 34.3859 35.9356 33.6932C35.9356 33.0005 35.3904 32.4563 34.6964 32.4563C34.0025 32.4563 33.4573 33.0005 33.4573 33.6932Z" fill="#EFDFBE"/>
<path d="M33.4573 33.6932C33.4573 34.3859 34.0025 34.9301 34.6964 34.9301C35.3904 34.9301 35.9356 34.3859 35.9356 33.6932C35.9356 33.0005 35.3904 32.4563 34.6964 32.4563C34.0025 32.4563 33.4573 33.0005 33.4573 33.6932Z" fill="#EFE0C0"/>
<path d="M33.4573 33.6932C33.4573 34.3859 34.0025 34.9301 34.6964 34.9301C35.3904 34.9301 35.9356 34.3859 35.9356 33.6932C35.9356 33.0005 35.3904 32.4563 34.6964 32.4563C34.0025 32.4563 33.4573 33.0005 33.4573 33.6932Z" fill="#F0E1C2"/>
<path d="M33.4573 33.693C33.4573 34.3857 34.0025 34.8804 34.6469 34.8804C35.3408 34.8804 35.8365 34.3362 35.8365 33.693C35.8365 33.0003 35.2912 32.5056 34.6469 32.5056C34.0025 32.4561 33.4573 33.0003 33.4573 33.693Z" fill="#F0E2C4"/>
<path d="M33.4573 33.693C33.4573 34.3362 34.0025 34.8804 34.6469 34.8804C35.2912 34.8804 35.8365 34.3362 35.8365 33.693C35.8365 33.0498 35.2912 32.5056 34.6469 32.5056C34.0025 32.4561 33.4573 33.0003 33.4573 33.693Z" fill="#F0E3C5"/>
<path d="M33.5068 33.693C33.5068 34.3362 34.0521 34.8805 34.6964 34.8805C35.3408 34.8805 35.886 34.3362 35.886 33.693C35.886 33.0499 35.3408 32.5056 34.6964 32.5056C34.0025 32.5056 33.5068 33.0004 33.5068 33.693Z" fill="#F1E3C7"/>
<path d="M33.5068 33.693C33.5068 34.3362 34.0521 34.8805 34.6964 34.8805C35.3408 34.8805 35.886 34.3362 35.886 33.693C35.886 33.0499 35.3408 32.5056 34.6964 32.5056C34.0521 32.5056 33.5068 33.0004 33.5068 33.693Z" fill="#F1E4C9"/>
<path d="M33.5068 33.6437C33.5068 34.2869 34.0521 34.8311 34.6964 34.8311C35.3408 34.8311 35.886 34.2869 35.886 33.6437C35.886 33.0005 35.3408 32.4563 34.6964 32.4563C34.0521 32.5058 33.5068 33.0005 33.5068 33.6437Z" fill="#F2E5CB"/>
<path d="M33.5068 33.6436C33.5068 34.2867 34.0025 34.7815 34.6469 34.7815C35.2912 34.7815 35.7869 34.2867 35.7869 33.6436C35.7869 33.0004 35.2912 32.5056 34.6469 32.5056C34.0521 32.5056 33.5068 33.0004 33.5068 33.6436Z" fill="#F2E6CC"/>
<path d="M33.5564 33.6436C33.5564 34.2867 34.0521 34.7815 34.6964 34.7815C35.3408 34.7815 35.8364 34.2867 35.8364 33.6436C35.8364 33.0004 35.3408 32.5056 34.6964 32.5056C34.0521 32.5056 33.5564 33.0499 33.5564 33.6436Z" fill="#F3E7CE"/>
<path d="M33.5564 33.6436C33.5564 34.2867 34.0521 34.7815 34.6964 34.7815C35.3408 34.7815 35.8364 34.2867 35.8364 33.6436C35.8364 33.0004 35.3408 32.5056 34.6964 32.5056C34.0521 32.5056 33.5564 33.0499 33.5564 33.6436Z" fill="#F3E8D0"/>
<path d="M33.5564 33.6436C33.5564 34.2373 34.0521 34.7815 34.6964 34.7815C35.2912 34.7815 35.8364 34.2867 35.8364 33.6436C35.8364 33.0499 35.3408 32.5056 34.6964 32.5056C34.0521 32.5056 33.5564 33.0499 33.5564 33.6436Z" fill="#F4E9D2"/>
<path d="M33.5564 33.6436C33.5564 34.2374 34.0521 34.7321 34.6469 34.7321C35.2417 34.7321 35.7373 34.2374 35.7373 33.6436C35.7373 33.0499 35.2417 32.5552 34.6469 32.5552C34.0521 32.5552 33.5564 33.0499 33.5564 33.6436Z" fill="#F4E9D3"/>
<path d="M33.5564 33.6436C33.5564 34.2374 34.0521 34.7321 34.6469 34.7321C35.2417 34.7321 35.7373 34.2374 35.7373 33.6436C35.7373 33.0499 35.2417 32.5552 34.6469 32.5552C34.0521 32.5552 33.5564 33.0499 33.5564 33.6436Z" fill="#F4EAD5"/>
<path d="M33.606 33.6436C33.606 34.2374 34.1016 34.7321 34.6964 34.7321C35.2912 34.7321 35.7869 34.2374 35.7869 33.6436C35.7869 33.0499 35.2912 32.5552 34.6964 32.5552C34.1016 32.5552 33.606 33.0499 33.606 33.6436Z" fill="#F5EBD7"/>
<path d="M33.606 33.6436C33.606 34.2374 34.1016 34.7321 34.6964 34.7321C35.2912 34.7321 35.7869 34.2374 35.7869 33.6436C35.7869 33.0499 35.2912 32.5552 34.6964 32.5552C34.1016 32.5552 33.606 33.0499 33.606 33.6436Z" fill="#F5ECD9"/>
<path d="M33.606 33.6437C33.606 34.2374 34.1016 34.6827 34.6468 34.6827C35.2416 34.6827 35.6877 34.188 35.6877 33.6437C35.6877 33.05 35.1921 32.6047 34.6468 32.6047C34.1016 32.5553 33.606 33.05 33.606 33.6437Z" fill="#F6EDDA"/>
<path d="M33.606 33.6437C33.606 34.2374 34.0521 34.6827 34.6468 34.6827C35.2416 34.6827 35.6877 34.2374 35.6877 33.6437C35.6877 33.05 35.2416 32.6047 34.6468 32.6047C34.1016 32.5553 33.606 33.05 33.606 33.6437Z" fill="#F6EEDC"/>
<path d="M33.6555 33.5942C33.6555 34.1879 34.1016 34.6332 34.6964 34.6332C35.2912 34.6332 35.7373 34.1879 35.7373 33.5942C35.7373 33.0005 35.2912 32.5552 34.6964 32.5552C34.1016 32.6047 33.6555 33.0499 33.6555 33.5942Z" fill="#F7EFDE"/>
<path d="M33.6555 33.5942C33.6555 34.1384 34.1016 34.6332 34.6964 34.6332C35.2416 34.6332 35.7373 34.1879 35.7373 33.5942C35.7373 33.0499 35.2912 32.5552 34.6964 32.5552C34.1016 32.6047 33.6555 33.0499 33.6555 33.5942Z" fill="#F7F0E0"/>
<path d="M33.6555 33.5942C33.6555 34.1384 34.1016 34.6332 34.6964 34.6332C35.2416 34.6332 35.7373 34.1879 35.7373 33.5942C35.7373 33.0499 35.2912 32.5552 34.6964 32.5552C34.1016 32.6047 33.6555 33.0499 33.6555 33.5942Z" fill="#F7F0E1"/>
<path d="M33.6555 33.5943C33.6555 34.1385 34.1016 34.5838 34.6468 34.5838C35.1921 34.5838 35.6382 34.1385 35.6382 33.5943C35.6382 33.05 35.1921 32.6047 34.6468 32.6047C34.1016 32.6047 33.6555 33.05 33.6555 33.5943Z" fill="#F8F1E3"/>
<path d="M33.6555 33.5943C33.6555 34.1385 34.1016 34.5838 34.6468 34.5838C35.1921 34.5838 35.6382 34.1385 35.6382 33.5943C35.6382 33.05 35.1921 32.6047 34.6468 32.6047C34.1016 32.6047 33.6555 33.05 33.6555 33.5943Z" fill="#F8F2E5"/>
<path d="M33.7051 33.5943C33.7051 34.1385 34.1512 34.5838 34.6964 34.5838C35.2416 34.5838 35.6877 34.1385 35.6877 33.5943C35.6877 33.05 35.2416 32.6047 34.6964 32.6047C34.1512 32.6047 33.7051 33.05 33.7051 33.5943Z" fill="#F9F3E7"/>
<path d="M33.7051 33.5943C33.7051 34.1385 34.1512 34.5838 34.6964 34.5838C35.2416 34.5838 35.6877 34.1385 35.6877 33.5943C35.6877 33.05 35.2416 32.6047 34.6964 32.6047C34.1512 32.6047 33.7051 33.05 33.7051 33.5943Z" fill="#F9F4E8"/>
<path d="M33.7051 33.5941C33.7051 34.1383 34.1512 34.5341 34.6468 34.5341C35.1921 34.5341 35.5886 34.0889 35.5886 33.5941C35.5886 33.0499 35.1425 32.6541 34.6468 32.6541C34.1512 32.6541 33.7051 33.0499 33.7051 33.5941Z" fill="#FAF5EA"/>
<path d="M34.8319 34.522C35.3467 34.4477 35.7036 33.9709 35.6291 33.457C35.5546 32.9432 35.0769 32.5869 34.5622 32.6613C34.0474 32.7356 33.6905 33.2124 33.765 33.7263C33.8395 34.2401 34.3171 34.5963 34.8319 34.522Z" fill="#FAF6EC"/>
<path d="M34.7827 34.5301C35.2975 34.4557 35.6544 33.9789 35.5799 33.4651C35.5054 32.9513 35.0278 32.595 34.513 32.6693C33.9982 32.7437 33.6413 33.2205 33.7158 33.7343C33.7903 34.2481 34.268 34.6044 34.7827 34.5301Z" fill="#FBF6EE"/>
<path d="M34.7858 34.5278C35.3006 34.4534 35.6575 33.9765 35.5829 33.4627C35.5084 32.9489 35.0307 32.5927 34.5159 32.667C34.0012 32.7414 33.6443 33.2183 33.7188 33.7321C33.7933 34.2459 34.2711 34.6022 34.7858 34.5278Z" fill="#FBF7EF"/>
<path d="M34.7782 34.4801C35.2659 34.4097 35.604 33.9579 35.5334 33.4711C35.4628 32.9843 35.0102 32.6469 34.5225 32.7174C34.0349 32.7878 33.6968 33.2396 33.7674 33.7264C33.838 34.2131 34.2906 34.5506 34.7782 34.4801Z" fill="#FBF8F1"/>
<path d="M34.7737 34.4298C35.2613 34.3592 35.5994 33.9074 35.5287 33.4207C35.4581 32.9339 35.0054 32.5964 34.5178 32.667C34.0301 32.7375 33.692 33.1893 33.7627 33.6761C33.8334 34.1629 34.286 34.5003 34.7737 34.4298Z" fill="#FCF9F3"/>
<path d="M34.7723 34.4322C35.26 34.3617 35.598 33.9099 35.5274 33.4231C35.4567 32.9363 35.0041 32.5989 34.5164 32.6694C34.0288 32.7399 33.6907 33.1917 33.7614 33.6785C33.832 34.1653 34.2846 34.5027 34.7723 34.4322Z" fill="#FCFAF5"/>
<path d="M34.7702 34.429C35.2578 34.3584 35.5958 33.9066 35.5251 33.4199C35.4544 32.9332 35.0018 32.5958 34.5141 32.6664C34.0265 32.737 33.6885 33.1888 33.7593 33.6755C33.83 34.1622 34.2826 34.4996 34.7702 34.429Z" fill="#FDFBF6"/>
<path d="M34.7665 34.3788C35.227 34.312 35.5461 33.8853 35.4792 33.4256C35.4124 32.9659 34.9848 32.6473 34.5243 32.7141C34.0638 32.7808 33.7446 33.2076 33.8115 33.6673C33.8784 34.127 34.3059 34.4455 34.7665 34.3788Z" fill="#FDFCF8"/>
<path d="M34.6468 34.3858C35.1122 34.3858 35.4895 34.0092 35.4895 33.5447C35.4895 33.0802 35.1122 32.7036 34.6468 32.7036C34.1815 32.7036 33.8042 33.0802 33.8042 33.5447C33.8042 34.0092 34.1815 34.3858 34.6468 34.3858Z" fill="#FEFCFA"/>
<path d="M34.6468 34.3858C35.1122 34.3858 35.4895 34.0092 35.4895 33.5447C35.4895 33.0802 35.1122 32.7036 34.6468 32.7036C34.1815 32.7036 33.8042 33.0802 33.8042 33.5447C33.8042 34.0092 34.1815 34.3858 34.6468 34.3858Z" fill="#FEFDFC"/>
<path d="M34.6468 34.3858C35.1122 34.3858 35.4895 34.0092 35.4895 33.5447C35.4895 33.0802 35.1122 32.7036 34.6468 32.7036C34.1815 32.7036 33.8042 33.0802 33.8042 33.5447C33.8042 34.0092 34.1815 34.3858 34.6468 34.3858Z" fill="#FFFEFD"/>
<path d="M34.6468 34.3858C35.1122 34.3858 35.4895 34.0092 35.4895 33.5447C35.4895 33.0802 35.1122 32.7036 34.6468 32.7036C34.1815 32.7036 33.8042 33.0802 33.8042 33.5447C33.8042 34.0092 34.1815 34.3858 34.6468 34.3858Z" fill="white"/>
<path d="M33.8042 33.4458C33.7547 33.8416 34.0521 34.1385 34.4486 34.1879C34.8451 34.2374 35.1921 33.9406 35.2417 33.5942C35.2912 33.2479 34.9938 32.9016 34.5973 32.8521C34.2008 32.8026 33.8538 33.0995 33.8042 33.4458Z" fill="#130F0E"/>
<path d="M34.0521 33.2973C34.0521 33.3962 34.1512 33.4952 34.2503 33.4952C34.3495 33.4952 34.4486 33.3962 34.4486 33.2973C34.4486 33.1983 34.3495 33.0994 34.2503 33.0994C34.1512 33.0994 34.0521 33.1983 34.0521 33.2973Z" fill="white"/>
<path opacity="0.1" d="M35.6383 36.2658C35.7374 36.2658 35.8861 36.2658 35.9852 36.3153C36.0844 36.4143 36.1339 36.5627 36.1339 36.7111C36.0844 36.9585 35.8861 37.2059 35.6383 37.3048C35.3904 37.4038 35.093 37.4038 34.8452 37.3543C34.4487 37.3048 31.9208 35.87 32.5652 35.3753C32.7138 35.2763 33.6556 36.0185 33.9034 36.1174C34.4982 36.2658 35.093 36.3153 35.6383 36.2658Z" fill="white"/>
<path opacity="0.42" d="M38.5626 33.2477C38.86 33.792 38.9592 34.4352 38.9592 35.0289C38.9592 35.2763 38.9096 35.5236 38.7609 35.7215C38.6122 35.9194 38.3644 36.0679 38.1165 36.0184C37.8687 35.9689 37.6704 35.7215 37.6209 35.4742C37.5713 35.2268 37.5713 34.9794 37.5713 34.732C37.5217 34.1383 37.373 33.5446 37.1252 33.0004C36.9765 32.753 36.0843 31.7635 36.1834 31.5656C36.4313 30.9224 38.4139 33.0004 38.5626 33.2477Z" fill="#8FAED6"/>
<path opacity="0.42" d="M53.5812 31.2193C52.2925 30.1803 50.5577 29.3392 49.0211 28.8444C47.1872 28.2507 44.461 28.2507 42.5279 28.5971C39.5044 29.1908 37.2739 30.3782 34.3495 31.3182C39.9009 29.5866 46.3941 31.0709 47.8315 31.5656C49.9133 32.2088 51.7968 33.3467 53.7795 34.1878C54.8699 34.6331 56.01 34.9795 57.1995 35.1279C58.0917 35.2268 59.43 35.3258 60.2231 34.831C59.9257 34.6331 59.43 34.6826 59.0831 34.6331C58.3891 34.5342 57.4969 33.9405 56.9022 33.6436C55.4647 33.0499 54.8204 32.2088 53.5812 31.2193Z" fill="#B2D2FF"/>
</g>
<defs>
<linearGradient id="paint0_linear_178_3720" x1="40.161" y1="18.5399" x2="36.4995" y2="35.0898" gradientUnits="userSpaceOnUse">
<stop offset="0.2668" stop-color="#EAA628"/>
<stop offset="0.5984" stop-color="#FFD78C"/>
<stop offset="1" stop-color="#FFF5E3"/>
</linearGradient>
<linearGradient id="paint1_linear_178_3720" x1="26.719" y1="15.5504" x2="23.0575" y2="32.1003" gradientUnits="userSpaceOnUse">
<stop offset="0.2668" stop-color="#EAA628"/>
<stop offset="0.5984" stop-color="#FFD78C"/>
<stop offset="1" stop-color="#FFF5E3"/>
</linearGradient>
<linearGradient id="paint2_linear_178_3720" x1="33.2131" y1="17.0029" x2="29.5516" y2="33.5527" gradientUnits="userSpaceOnUse">
<stop offset="0.2668" stop-color="#EAA628"/>
<stop offset="0.5984" stop-color="#FFD78C"/>
<stop offset="1" stop-color="#FFF5E3"/>
</linearGradient>
<linearGradient id="paint3_linear_178_3720" x1="27.4776" y1="11.2845" x2="21.0382" y2="3.47809" gradientUnits="userSpaceOnUse">
<stop offset="0.2668" stop-color="#EAA628"/>
<stop offset="0.5984" stop-color="#FFD78C"/>
<stop offset="1" stop-color="#FFF5E3"/>
</linearGradient>
<linearGradient id="paint4_linear_178_3720" x1="22.0106" y1="21.5188" x2="0.907525" y2="25.7986" gradientUnits="userSpaceOnUse">
<stop offset="0.2668" stop-color="#EAA628"/>
<stop offset="0.5984" stop-color="#FFD78C"/>
<stop offset="1" stop-color="#FFF5E3"/>
</linearGradient>
<radialGradient id="paint5_radial_178_3720" cx="0" cy="0" r="1" gradientUnits="userSpaceOnUse" gradientTransform="translate(27.5643 9.92946) scale(26.1709 26.1232)">
<stop stop-color="#E17921"/>
<stop offset="0.474" stop-color="#EAA628"/>
<stop offset="0.9281" stop-color="#EAA628"/>
</radialGradient>
<linearGradient id="paint6_linear_178_3720" x1="40.5562" y1="15.3075" x2="51.765" y2="15.968" gradientUnits="userSpaceOnUse">
<stop offset="0.3387" stop-color="#EAA628"/>
<stop offset="1" stop-color="white" stop-opacity="0"/>
</linearGradient>
<linearGradient id="paint7_linear_178_3720" x1="41.0602" y1="14.6225" x2="43.8877" y2="14.6225" gradientUnits="userSpaceOnUse">
<stop stop-color="#E17521"/>
<stop offset="1" stop-color="#EAA628"/>
</linearGradient>
<linearGradient id="paint8_linear_178_3720" x1="19.8577" y1="12.5421" x2="47.4306" y2="12.5421" gradientUnits="userSpaceOnUse">
<stop offset="0.3387" stop-color="#EAA628"/>
<stop offset="1" stop-color="white" stop-opacity="0"/>
</linearGradient>
<linearGradient id="paint9_linear_178_3720" x1="39.8571" y1="37.7" x2="43.5187" y2="54.2499" gradientUnits="userSpaceOnUse">
<stop offset="0.1718" stop-color="#8FAED6"/>
<stop offset="0.4531" stop-color="#B2D2FF"/>
<stop offset="1" stop-color="white"/>
</linearGradient>
<linearGradient id="paint10_linear_178_3720" x1="53.299" y1="34.7104" x2="56.9606" y2="51.2604" gradientUnits="userSpaceOnUse">
<stop offset="0.1718" stop-color="#8FAED6"/>
<stop offset="0.4531" stop-color="#B2D2FF"/>
<stop offset="1" stop-color="white"/>
</linearGradient>
<linearGradient id="paint11_linear_178_3720" x1="44.7126" y1="46.0977" x2="52.1252" y2="46.0977" gradientUnits="userSpaceOnUse">
<stop offset="0.1718" stop-color="#8FAED6"/>
<stop offset="0.4531" stop-color="#B2D2FF"/>
<stop offset="1" stop-color="white"/>
</linearGradient>
<linearGradient id="paint12_linear_178_3720" x1="52.5406" y1="30.4446" x2="58.9799" y2="22.6382" gradientUnits="userSpaceOnUse">
<stop offset="0.1718" stop-color="#8FAED6"/>
<stop offset="0.4531" stop-color="#B2D2FF"/>
<stop offset="1" stop-color="white"/>
</linearGradient>
<linearGradient id="paint13_linear_178_3720" x1="58.0075" y1="40.6789" x2="79.1106" y2="44.9586" gradientUnits="userSpaceOnUse">
<stop offset="0.1718" stop-color="#8FAED6"/>
<stop offset="0.4531" stop-color="#B2D2FF"/>
<stop offset="1" stop-color="white"/>
</linearGradient>
<radialGradient id="paint14_radial_178_3720" cx="0" cy="0" r="1" gradientUnits="userSpaceOnUse" gradientTransform="translate(52.4539 29.0894) rotate(180) scale(26.1709 26.1232)">
<stop offset="0.2571" stop-color="#78A1D6"/>
<stop offset="0.5264" stop-color="#8FAED6"/>
<stop offset="1" stop-color="#B2D2FF"/>
</radialGradient>
<clipPath id="clip0_178_3720">
<rect width="80" height="52.4444" fill="white"/>
</clipPath>
</defs>
</svg>
