<svg width="70" height="70" viewBox="0 0 70 70" fill="none" xmlns="http://www.w3.org/2000/svg">
<g clip-path="url(#clip0_178_2098)">
<path d="M10.1962 60.8915L9.18384 59.8874L64.0702 5.09229L65.0826 6.09638L10.1962 60.8915Z" fill="url(#paint0_radial_178_2098)"/>
<path d="M61.6116 4.23156L70 0L65.7335 8.31967L61.6116 4.23156Z" fill="url(#paint1_radial_178_2098)"/>
<path d="M50.2583 6.74174C48.5227 6.45485 45.9194 6.16797 41.219 7.02862C36.5186 7.961 31.1674 10.8298 28.3471 11.4036C25.5269 11.9774 24.3698 10.1126 24.2252 8.89337C24.2252 8.39133 24.2975 7.88928 24.6591 7.38723C25.4545 6.45485 26.3946 6.45485 26.9008 6.81346C26.3223 6.74174 25.7438 7.02862 25.4545 7.45895C25.1653 7.961 25.1653 8.60649 25.4545 9.03682C25.7438 9.46715 26.3946 9.75403 26.9731 9.68231C27.1178 9.68231 27.2624 9.61059 27.407 9.53887C27.5517 9.46715 27.624 9.3237 27.7686 9.25198C27.9855 9.03682 28.1302 8.82165 28.2025 8.53477C28.4194 7.961 28.2748 7.24379 27.8409 6.81346C27.407 6.38313 26.6839 6.09624 26.1054 6.16797C25.0207 6.31141 24.4422 6.74174 23.5021 8.03272C23.2128 8.60649 23.0682 9.3237 23.1405 9.96919C23.2851 11.1167 24.5145 12.9098 27.1901 13.1249C29.2149 13.2684 37.8203 11.045 45.124 11.045C52.3554 11.045 54.3802 15.9221 54.3802 15.9221L58.936 11.4036C59.0083 11.4753 56.188 7.961 50.2583 6.74174Z" fill="url(#paint2_radial_178_2098)"/>
<path d="M63.6364 19.9386C63.9979 21.6599 64.2872 24.2419 63.4194 28.9038C62.5517 33.5656 59.6591 38.873 59.0806 41.6702C58.5021 44.539 60.4546 45.6148 61.6116 45.7583C62.1178 45.7583 62.624 45.6148 63.1302 45.3279C64.0703 44.4673 64.0703 43.6066 63.7087 43.1046C63.781 43.6783 63.4917 44.2521 63.0579 44.539C62.5517 44.8259 61.9008 44.8259 61.467 44.539C60.9608 44.2521 60.7438 43.6066 60.8161 43.1046C60.8161 42.9611 60.8884 42.8177 60.9608 42.6743C61.0331 42.5308 61.1777 42.4591 61.25 42.3156C61.467 42.1005 61.6839 41.957 61.9732 41.8853C62.5517 41.6702 63.2748 41.8136 63.781 42.2439C64.2149 42.6743 64.5041 43.3915 64.4318 43.9652C64.2872 45.0411 63.9256 45.6866 62.5517 46.5472C61.9732 46.8341 61.3223 46.9775 60.5992 46.9058C59.4422 46.7624 57.6343 45.6148 57.4174 42.8894C57.1281 40.8095 59.2975 32.2029 59.2975 25.0308C59.2975 17.8587 54.3079 15.8505 54.3079 15.8505L58.8637 11.332C58.8637 11.332 62.407 14.0574 63.6364 19.9386Z" fill="url(#paint3_radial_178_2098)"/>
<path d="M60.3099 45.2562C60.2376 45.1845 60.2376 45.1845 60.1653 45.1128C60.2376 45.1845 60.2376 45.2562 60.3099 45.2562Z" fill="url(#paint4_radial_178_2098)"/>
<path d="M58.2851 44.6106L24.9483 11.834L24.6591 12.1209L57.9958 44.9692L58.2851 44.6106Z" fill="url(#paint5_radial_178_2098)"/>
<path d="M20.3202 48.7705L6.86983 62.1824L0 62.4693L14.3182 48.1968L20.3202 48.7705Z" fill="url(#paint6_radial_178_2098)"/>
<path d="M21.3326 49.7747L7.88222 63.1865L7.66528 70.0001L21.9835 55.7275L21.3326 49.7747Z" fill="url(#paint7_radial_178_2098)"/>
<path d="M56.2603 12.6946C53.9463 10.9016 51.1984 9.46716 48.2335 9.252C45.3409 8.96511 42.5207 9.39544 39.6281 9.75405C42.2314 8.46306 45.4132 7.74585 48.5227 7.74585C51.6322 7.74585 55.2479 9.32372 57.4174 11.4754C56.9112 12.0491 56.6942 12.2643 56.2603 12.6946Z" fill="#FFD78C"/>
<path d="M18.2231 50.7069L12.5103 49.918" stroke="#8FAED6" stroke-width="0.3173" stroke-miterlimit="10"/>
<path d="M17.6446 51.3525L11.8595 50.6353" stroke="#8FAED6" stroke-width="0.3173" stroke-miterlimit="10"/>
<path d="M16.9937 51.998L11.2086 51.2808" stroke="#8FAED6" stroke-width="0.3173" stroke-miterlimit="10"/>
<path d="M16.4153 52.5718L10.5579 51.9263" stroke="#8FAED6" stroke-width="0.3173" stroke-miterlimit="10"/>
<path d="M15.8368 53.2171L9.83472 52.6433" stroke="#8FAED6" stroke-width="0.3173" stroke-miterlimit="10"/>
<path d="M15.1859 53.7909L9.18384 53.2888" stroke="#8FAED6" stroke-width="0.3173" stroke-miterlimit="10"/>
<path d="M14.6073 54.4364L8.53296 53.9343" stroke="#8FAED6" stroke-width="0.3173" stroke-miterlimit="10"/>
<path d="M13.9566 55.0102L7.8822 54.5798" stroke="#8FAED6" stroke-width="0.3173" stroke-miterlimit="10"/>
<path d="M13.378 55.6557L7.23132 55.2971" stroke="#8FAED6" stroke-width="0.3173" stroke-miterlimit="10"/>
<path d="M12.7272 56.2295L6.50818 55.9426" stroke="#8FAED6" stroke-width="0.3173" stroke-miterlimit="10"/>
<path d="M12.1487 56.875L5.85742 56.5881" stroke="#8FAED6" stroke-width="0.3173" stroke-miterlimit="10"/>
<path d="M11.4979 57.4486L5.20654 57.3052" stroke="#8FAED6" stroke-width="0.3173" stroke-miterlimit="10"/>
<path d="M10.9194 58.0941L4.55579 57.9507" stroke="#8FAED6" stroke-width="0.3173" stroke-miterlimit="10"/>
<path d="M10.2685 58.6679L3.90491 58.5962" stroke="#8FAED6" stroke-width="0.3173" stroke-miterlimit="10"/>
<path d="M9.69003 59.3134L3.18176 59.2417" stroke="#8FAED6" stroke-width="0.3173" stroke-miterlimit="10"/>
<path d="M9.11158 59.8872L2.53101 59.9589" stroke="#8FAED6" stroke-width="0.3173" stroke-miterlimit="10"/>
<path d="M8.4607 60.5327L1.88013 60.6044" stroke="#8FAED6" stroke-width="0.3173" stroke-miterlimit="10"/>
<path d="M19.3079 51.7827L20.1756 57.4487" stroke="#8FAED6" stroke-width="0.3173" stroke-miterlimit="10"/>
<path d="M18.7294 52.4282L19.4525 58.0942" stroke="#8FAED6" stroke-width="0.3173" stroke-miterlimit="10"/>
<path d="M18.0785 53.002L18.8016 58.8114" stroke="#8FAED6" stroke-width="0.3173" stroke-miterlimit="10"/>
<path d="M17.5 53.6475L18.1508 59.4569" stroke="#8FAED6" stroke-width="0.3173" stroke-miterlimit="10"/>
<path d="M16.8491 54.2212L17.4999 60.1023" stroke="#8FAED6" stroke-width="0.3173" stroke-miterlimit="10"/>
<path d="M16.2706 54.8667L16.8491 60.8196" stroke="#8FAED6" stroke-width="0.3173" stroke-miterlimit="10"/>
<path d="M15.6199 55.4404L16.1261 61.465" stroke="#8FAED6" stroke-width="0.3173" stroke-miterlimit="10"/>
<path d="M15.0413 56.0859L15.4751 62.1105" stroke="#8FAED6" stroke-width="0.3173" stroke-miterlimit="10"/>
<path d="M14.3905 56.6597L14.8244 62.756" stroke="#8FAED6" stroke-width="0.3173" stroke-miterlimit="10"/>
<path d="M13.812 57.3052L14.1736 63.4732" stroke="#8FAED6" stroke-width="0.3173" stroke-miterlimit="10"/>
<path d="M13.1611 57.8789L13.5227 64.1187" stroke="#8FAED6" stroke-width="0.3173" stroke-miterlimit="10"/>
<path d="M12.5826 58.5244L12.7996 64.7642" stroke="#8FAED6" stroke-width="0.3173" stroke-miterlimit="10"/>
<path d="M11.9318 59.0984L12.1487 65.4099" stroke="#8FAED6" stroke-width="0.3173" stroke-miterlimit="10"/>
<path d="M11.3533 59.7439L11.4979 66.1271" stroke="#8FAED6" stroke-width="0.3173" stroke-miterlimit="10"/>
<path d="M10.7748 60.3176L10.8471 66.7725" stroke="#8FAED6" stroke-width="0.3173" stroke-miterlimit="10"/>
<path d="M10.124 60.9631L10.1963 67.4181" stroke="#8FAED6" stroke-width="0.3173" stroke-miterlimit="10"/>
<path d="M9.54546 61.5369L9.47314 68.1352" stroke="#8FAED6" stroke-width="0.3173" stroke-miterlimit="10"/>
<path d="M24.0083 27.254L24.6591 26.1064L25.3099 27.254C25.8884 28.3298 26.8285 29.2622 27.9132 29.836L29.0702 30.4814L27.9132 31.1269C26.8285 31.7007 25.8884 32.6331 25.3099 33.7089L24.6591 34.8564L24.0083 33.7089C23.4297 32.6331 22.4897 31.7007 21.405 31.1269L20.2479 30.4814L21.405 29.836C22.4897 29.2622 23.4297 28.3298 24.0083 27.254Z" fill="white"/>
<path d="M43.0992 41.383L43.4608 40.7375L43.8223 41.383C44.1839 41.9568 44.6178 42.4589 45.2686 42.8175L45.9194 43.1761L45.2686 43.5347C44.6901 43.8933 44.1839 44.3236 43.8223 44.9691L43.4608 45.6146L43.0992 44.9691C42.7376 44.3953 42.3037 43.8933 41.6529 43.5347L41.0021 43.1761L41.6529 42.8175C42.3037 42.4589 42.7376 41.9568 43.0992 41.383Z" fill="white"/>
</g>
<defs>
<radialGradient id="paint0_radial_178_2098" cx="0" cy="0" r="1" gradientUnits="userSpaceOnUse" gradientTransform="translate(37.1292 32.9817) rotate(44.5455) scale(27.4211 27.4185)">
<stop stop-color="#E17921"/>
<stop offset="0.474" stop-color="#EAA628"/>
<stop offset="0.9281" stop-color="#EAA628"/>
</radialGradient>
<radialGradient id="paint1_radial_178_2098" cx="0" cy="0" r="1" gradientUnits="userSpaceOnUse" gradientTransform="translate(44.7346 22.3227) rotate(179.784) scale(22.2781 22.0955)">
<stop stop-color="#E17921"/>
<stop offset="0.474" stop-color="#EAA628"/>
<stop offset="0.9281" stop-color="#EAA628"/>
</radialGradient>
<radialGradient id="paint2_radial_178_2098" cx="0" cy="0" r="1" gradientUnits="userSpaceOnUse" gradientTransform="translate(5.82212 7.60921) rotate(44.5454) scale(72.3232 72.3162)">
<stop stop-color="#E17921"/>
<stop offset="0.474" stop-color="#EAA628"/>
<stop offset="0.9281" stop-color="#EAA628"/>
</radialGradient>
<radialGradient id="paint3_radial_178_2098" cx="0" cy="0" r="1" gradientUnits="userSpaceOnUse" gradientTransform="translate(63.1317 64.0159) rotate(-135.455) scale(72.3241 72.3171)">
<stop stop-color="#E17921"/>
<stop offset="0.474" stop-color="#EAA628"/>
<stop offset="0.9281" stop-color="#EAA628"/>
</radialGradient>
<radialGradient id="paint4_radial_178_2098" cx="0" cy="0" r="1" gradientUnits="userSpaceOnUse" gradientTransform="translate(63.0559 63.9124) rotate(-135.456) scale(72.0688 72.0618)">
<stop stop-color="#E17921"/>
<stop offset="0.474" stop-color="#EAA628"/>
<stop offset="0.9281" stop-color="#EAA628"/>
</radialGradient>
<radialGradient id="paint5_radial_178_2098" cx="0" cy="0" r="1" gradientUnits="userSpaceOnUse" gradientTransform="translate(9.13743 -2.84017) rotate(44.5455) scale(119.124 119.113)">
<stop stop-color="#E17921"/>
<stop offset="0.474" stop-color="#EAA628"/>
<stop offset="0.9281" stop-color="#EAA628"/>
</radialGradient>
<radialGradient id="paint6_radial_178_2098" cx="0" cy="0" r="1" gradientUnits="userSpaceOnUse" gradientTransform="translate(-8.2348 67.6507) rotate(44.5454) scale(20.3547 20.3527)">
<stop offset="0.2571" stop-color="#78A1D6"/>
<stop offset="0.5264" stop-color="#8FAED6"/>
<stop offset="1" stop-color="#B2D2FF"/>
</radialGradient>
<radialGradient id="paint7_radial_178_2098" cx="0" cy="0" r="1" gradientUnits="userSpaceOnUse" gradientTransform="translate(2.49521 78.2115) rotate(-135.455) scale(20.3548 20.3529)">
<stop offset="0.2571" stop-color="#78A1D6"/>
<stop offset="0.5264" stop-color="#8FAED6"/>
<stop offset="1" stop-color="#B2D2FF"/>
</radialGradient>
<clipPath id="clip0_178_2098">
<rect width="70" height="70" fill="white"/>
</clipPath>
</defs>
</svg>
