<svg width="43" height="80" viewBox="0 0 43 80" fill="none" xmlns="http://www.w3.org/2000/svg">
<g clip-path="url(#clip0_178_1930)">
<path d="M20.1429 19.6241C20.2143 19.839 20.2857 19.9822 20.5 20.0538H20.5714L20.6429 19.9822C20.6429 19.7673 20.5714 19.4809 20.5 19.266C20.4286 18.8363 20.5 18.3349 20.7143 17.9052C20.8572 17.6903 20.5714 17.762 20.5 17.8336C20.3572 17.9768 20.2857 18.1917 20.2143 18.3349C20.0714 18.7646 20.0714 19.1944 20.1429 19.6241Z" fill="url(#paint0_radial_178_1930)"/>
<path d="M22.2143 19.6241C22.1428 19.839 22.0714 20.0538 21.8571 20.0538H21.7857L21.7143 19.9822C21.7143 19.7673 21.7857 19.4809 21.8571 19.266C21.9286 18.8363 21.8571 18.3349 21.6428 17.9052C21.5 17.6903 21.7857 17.762 21.8571 17.8336C22 17.9768 22.0714 18.1917 22.1428 18.3349C22.2857 18.7646 22.3571 19.1944 22.2143 19.6241Z" fill="url(#paint1_radial_178_1930)"/>
<path d="M36.2859 4.22569C36.8573 6.58917 37.143 9.02426 37.2859 11.4594C37.2859 11.8891 37.2859 12.3904 37.143 12.8201C36.9287 13.2499 36.5001 13.5363 36.0716 13.3931C35.7859 13.3215 35.5716 13.1066 35.4287 12.8918C35.0001 12.3904 34.5716 11.8891 34.3573 11.2445C34.0001 10.1702 34.5716 8.95264 34.5001 7.80671C34.4287 7.01889 34.0716 6.30268 33.7144 5.58648C33.143 4.44055 32.5716 3.29463 31.7144 2.36356C31.3573 2.00546 31.0001 1.64736 30.9287 1.14601C31.3573 1.07439 31.7859 1.4325 32.0716 1.71898C33.7144 3.36625 34.8573 5.44324 35.3573 7.73509C35.3573 7.87833 35.4287 8.02157 35.5716 8.02157C35.7144 8.09319 35.8573 7.80671 35.8573 7.66347C36.143 5.3 35.4287 2.8649 33.9287 1.00277C33.7144 0.716291 33.2859 -0.0715332 34.0001 -0.0715332C34.4287 -0.0715332 34.9287 0.787912 35.0716 1.07439C35.7144 2.07708 36.0001 3.15139 36.2859 4.22569Z" fill="url(#paint2_radial_178_1930)"/>
<path opacity="0.1" d="M36.643 12.5336C36.7859 12.3188 36.8573 12.1039 36.8573 11.889C37.0002 11.0296 37.0002 10.1701 36.8573 9.38232C36.8573 10.385 36.7144 11.3161 36.3573 12.2471C36.2144 12.6052 36.0716 12.8917 35.8573 13.1066C35.9287 13.1066 36.3573 12.8917 36.643 12.5336Z" fill="white"/>
<path d="M33.0715 19.1943C32.6429 19.4808 32.2143 19.6957 31.7143 19.5524C31.1429 19.4092 30.7858 18.8362 30.7858 18.1917C30.7858 17.6187 31.0715 17.0457 31.4286 16.616C32.0001 15.9714 32.6429 15.3985 33.3572 14.8971C34.1429 14.3242 35.0001 13.8228 35.7858 13.2499C36.6429 12.7485 36.6429 13.3931 36.5001 14.0377C36.3572 14.7539 36.1429 15.3985 35.7858 16.043C35.2143 17.4038 34.2858 18.4781 33.0715 19.1943Z" fill="url(#paint3_radial_178_1930)"/>
<path opacity="0.1" d="M31.6429 19.1226C32.7857 19.051 33.8572 18.3348 34.5715 17.4037C35.2857 16.4727 35.7857 15.3984 36.1429 14.2524C35.6429 15.1835 35.0715 16.1862 34.2857 16.9024C33.4286 17.6186 32.4286 18.0483 31.3572 17.9767C31.3572 18.3348 31.5715 18.8361 31.6429 19.1226Z" fill="white"/>
<path d="M28.7858 20.9848C27.8573 21.3429 26.7858 21.4861 25.7858 21.6294C25.143 21.701 24.2858 21.7726 23.9287 21.1996C23.7144 20.8415 23.7144 20.4118 23.8573 20.0537C24.0001 19.6956 24.3573 19.4091 24.643 19.1226C25.7144 18.3348 27.143 18.0483 28.5001 18.0483C29.0001 18.0483 29.5001 18.0483 30.0001 18.1916C30.2858 18.2632 30.643 18.4781 30.8573 18.7645C31.143 19.1226 30.9287 19.3375 30.643 19.6956C30.143 20.2686 29.5001 20.6983 28.7858 20.9848Z" fill="url(#paint4_radial_178_1930)"/>
<path opacity="0.1" d="M29.8572 19.5525C28.5715 20.8417 26.6429 21.4862 24.8572 21.2714C24.4287 21.1998 24.2858 20.6984 24.1429 20.3403C24.2144 20.4119 27.2144 20.6984 29.8572 19.5525Z" fill="white"/>
<path d="M28.2144 39.1047C29.2858 41.0385 29.9287 43.1871 30.0715 45.4073C30.0715 45.7654 30.0001 46.2668 29.6429 46.2668C29.5001 46.2668 29.3572 46.1951 29.2144 46.0519C28.5715 45.4789 28.2858 44.6911 28.0715 43.8317C27.5001 41.9695 27.0001 40.1074 26.5001 38.1737C26.3572 37.6007 26.5001 36.8845 27.1429 37.5291C27.5715 37.9588 27.9287 38.5318 28.2144 39.1047Z" fill="url(#paint5_radial_178_1930)"/>
<path opacity="0.1" d="M29.6429 45.1926C29.6429 43.402 29.1429 41.5399 28.2144 40.0359C28.3572 41.898 28.9286 43.4737 29.6429 45.1926Z" fill="white"/>
<path d="M32.1429 46.1951C33.0001 46.5532 33.7858 47.341 34.2144 48.2005C34.2858 48.3437 34.3572 48.487 34.2858 48.5586C34.2144 48.8451 33.7858 48.7734 33.5715 48.7018C32.4287 48.3437 31.0001 47.8424 30.1429 46.8397C29.9287 46.5532 29.7144 46.0519 30.1429 45.837C30.6429 45.6221 31.6429 45.9802 32.1429 46.1951Z" fill="url(#paint6_radial_178_1930)"/>
<path opacity="0.1" d="M31.0001 46.1952C32.1429 46.3384 33.2143 47.0546 33.7858 48.0573C33.1429 47.6276 31.1429 46.3384 30.7858 46.1952C30.8572 46.1952 30.9286 46.1235 31.0001 46.1952Z" fill="white"/>
<path d="M42.4287 45.7654C42.5715 45.837 42.5715 46.0518 42.3572 46.1235C41.5001 46.1951 40.7144 46.1951 39.8572 46.2667C37.7144 46.4816 35.643 47.4126 34.0715 48.845C34.2858 47.9856 34.7144 47.1261 35.4287 46.5532C36.3572 45.837 37.5001 45.4073 38.5715 45.1924C39.2858 45.0492 40.0715 45.0492 40.7858 45.1924C41.4287 45.3356 41.9287 45.4789 42.4287 45.7654Z" fill="url(#paint7_radial_178_1930)"/>
<path opacity="0.1" d="M37.1429 46.1234C37.7858 45.5505 38.6429 45.264 39.5001 45.1924C40.3572 45.1207 41.2144 45.4072 41.9287 45.8369C40.2858 45.5505 38.7858 45.5505 37.1429 46.1234Z" fill="white"/>
<path d="M27.643 32.3009C28.8573 34.0914 29.7144 36.24 30.0716 38.3887C30.143 38.7468 30.0716 39.2481 29.7144 39.3197C29.5716 39.3197 29.4287 39.2481 29.2858 39.1765C28.5716 38.6751 28.2144 37.8873 27.9287 37.0995C27.2144 35.309 26.5001 33.4469 25.8573 31.6563C25.643 31.0834 25.7144 30.3672 26.4287 30.9401C26.9287 31.2982 27.2858 31.7996 27.643 32.3009Z" fill="url(#paint8_radial_178_1930)"/>
<path opacity="0.1" d="M29.6429 38.2454C29.5001 36.4549 28.8572 34.6643 27.7144 33.2319C28.0715 35.0941 28.7858 36.5981 29.6429 38.2454Z" fill="white"/>
<path d="M32.2144 39.0332C33.143 39.3196 33.9287 39.9642 34.4287 40.8237C34.5001 40.9669 34.5716 41.1101 34.5001 41.1818C34.4287 41.4682 34.0716 41.4682 33.7858 41.3966C32.643 41.1101 31.143 40.752 30.2144 39.8926C29.9287 39.6061 29.7144 39.1048 30.143 38.8899C30.643 38.6034 31.7144 38.8899 32.2144 39.0332Z" fill="url(#paint9_radial_178_1930)"/>
<path opacity="0.1" d="M31.0716 39.1047C32.2144 39.1764 33.3573 39.7493 34.0002 40.6804C33.2859 40.3223 31.2144 39.1764 30.8573 39.1047C30.9287 39.1764 31.0002 39.1047 31.0716 39.1047Z" fill="white"/>
<path d="M42.4287 37.6724C42.5716 37.744 42.5716 37.9589 42.4287 38.0305C41.643 38.1737 40.7859 38.2454 39.9287 38.3886C37.7859 38.7467 35.7859 39.8926 34.3573 41.4683C34.5002 40.5372 34.8573 39.7494 35.5002 39.1048C36.3573 38.317 37.4287 37.8156 38.5002 37.4575C39.2144 37.2427 40.0002 37.1711 40.7144 37.2427C41.4287 37.3143 41.8573 37.3859 42.4287 37.6724Z" fill="url(#paint10_radial_178_1930)"/>
<path opacity="0.1" d="M37.2145 38.4601C37.8573 37.8872 38.643 37.4575 39.5002 37.3142C40.3573 37.171 41.2145 37.3142 42.0002 37.7439C40.2859 37.6007 38.7859 37.7439 37.2145 38.4601Z" fill="white"/>
<path d="M27.643 27.5738C29.0001 29.2927 29.9287 31.3697 30.4287 33.5183C30.5001 33.8764 30.5001 34.3778 30.143 34.4494C30.0001 34.4494 29.8573 34.3778 29.7144 34.3062C29.0001 33.8764 28.5716 33.0886 28.2144 32.3008C27.3573 30.5819 26.5716 28.7914 25.7858 27.0009C25.5716 26.4279 25.5716 25.7833 26.2858 26.2847C26.8573 26.5712 27.2858 27.0725 27.643 27.5738Z" fill="url(#paint11_radial_178_1930)"/>
<path opacity="0.1" d="M30.0002 33.3751C29.7145 31.5846 29.0002 29.8657 27.7859 28.5049C28.2145 30.367 29.0002 31.7994 30.0002 33.3751Z" fill="white"/>
<path d="M32.5716 34.0197C33.5002 34.3062 34.3573 34.8791 34.8573 35.667C34.9287 35.8102 35.0002 35.8818 35.0002 36.0251C34.9287 36.3116 34.5716 36.3116 34.2859 36.3116C33.0716 36.0967 31.5716 35.8102 30.643 35.0224C30.3573 34.8075 30.0716 34.3062 30.5002 34.0197C31.0002 33.6616 32.0716 33.8765 32.5716 34.0197Z" fill="url(#paint12_radial_178_1930)"/>
<path opacity="0.1" d="M31.5002 34.1628C32.643 34.1628 33.7859 34.6642 34.5002 35.5953C33.7859 35.2371 31.643 34.3061 31.2859 34.2345C31.3573 34.1628 31.4287 34.1628 31.5002 34.1628Z" fill="white"/>
<path d="M42.7144 32.0144C42.8573 32.086 42.8573 32.3008 42.7144 32.3725C41.9287 32.5873 41.0716 32.6589 40.2859 32.8738C38.2144 33.3751 36.2859 34.5927 34.9287 36.3116C35.0001 35.3805 35.2859 34.5211 35.9287 33.8765C36.7144 33.017 37.7859 32.4441 38.8573 32.0144C39.5716 31.7279 40.2859 31.6562 41.0716 31.6562C41.7144 31.7279 42.143 31.7995 42.7144 32.0144Z" fill="url(#paint13_radial_178_1930)"/>
<path opacity="0.1" d="M37.5715 33.1603C38.143 32.5158 38.9287 32.086 39.7858 31.8712C40.643 31.7279 41.5001 31.7995 42.2858 32.1577C40.5715 32.086 39.0715 32.3725 37.5715 33.1603Z" fill="white"/>
<path d="M26.0002 23.3483C27.2145 24.2793 28.2145 25.4253 28.9287 26.786C29.0716 27.0009 29.143 27.359 28.9287 27.4306C28.8573 27.5023 28.7145 27.4306 28.643 27.4306C28.0716 27.2874 27.643 26.786 27.2859 26.3563C26.4287 25.3536 25.5716 24.2793 24.7859 23.205C24.5002 22.8469 24.4287 22.4172 25.0002 22.6321C25.2859 22.8469 25.643 23.0618 26.0002 23.3483Z" fill="url(#paint14_radial_178_1930)"/>
<path opacity="0.1" d="M28.5716 26.8577C28.0716 25.7118 27.2859 24.7091 26.2145 23.9929C26.8573 25.0672 27.643 25.9267 28.5716 26.8577Z" fill="white"/>
<path d="M30.3574 26.7861C31.0002 26.7861 31.7145 27.0726 32.2145 27.5023C32.2859 27.574 32.3574 27.6456 32.3574 27.7172C32.3574 27.9321 32.1431 28.0037 31.9288 28.0037C31.0716 28.0753 30.0716 28.1469 29.2859 27.7888C29.0716 27.6456 28.7859 27.4307 29.0002 27.1442C29.2859 26.8578 30.0002 26.7861 30.3574 26.7861Z" fill="url(#paint15_radial_178_1930)"/>
<path opacity="0.1" d="M29.6431 27.0725C30.4288 26.8577 31.2859 27.0009 31.9288 27.5022C31.3574 27.4306 29.7859 27.1441 29.5717 27.1441L29.6431 27.0725Z" fill="white"/>
<path d="M36.7859 23.6348C36.9288 23.6348 36.9288 23.778 36.8573 23.8496C36.3573 24.1361 35.7859 24.351 35.2859 24.6375C34.0002 25.3537 32.9288 26.4996 32.2859 27.8604C32.143 27.2158 32.2145 26.6428 32.5002 26.0699C32.8573 25.3537 33.5002 24.7807 34.143 24.351C34.5716 24.0645 35.0716 23.8496 35.5716 23.7064C36.0002 23.6348 36.3573 23.6348 36.7859 23.6348Z" fill="url(#paint16_radial_178_1930)"/>
<path opacity="0.1" d="M33.5717 25.3536C33.8574 24.8522 34.2859 24.4225 34.7859 24.136C35.2859 23.8496 35.9288 23.7779 36.5002 23.8496C35.3574 24.0644 34.4288 24.4941 33.5717 25.3536Z" fill="white"/>
<path d="M6.57153 4.2256C6.0001 6.6607 5.64296 9.02417 5.57153 11.4593C5.57153 11.889 5.57153 12.3903 5.71439 12.8201C5.92868 13.2498 6.35725 13.5363 6.78582 13.393C7.07153 13.3214 7.28582 13.1065 7.42868 12.8917C7.85725 12.3903 8.28582 11.889 8.5001 11.2444C8.85725 10.1701 8.28582 8.95255 8.35725 7.80663C8.42868 7.0188 8.78582 6.3026 9.14296 5.58639C9.71439 4.44047 10.2858 3.29454 11.143 2.36347C11.5001 2.00537 11.8572 1.64727 11.9287 1.14593C11.5001 1.07431 11.0715 1.43241 10.7858 1.71889C9.14296 3.36616 8.0001 5.44315 7.5001 7.735C7.5001 7.87825 7.42868 8.02149 7.28582 8.02149C7.14296 8.09311 7.07153 7.87825 7.0001 7.66338C6.71439 5.37153 7.42868 2.86482 8.92868 1.07431C9.14296 0.787825 9.57153 0 8.85725 0C8.42868 0 7.92868 0.859445 7.78582 1.14593C7.14296 2.07699 6.78582 3.1513 6.57153 4.2256Z" fill="url(#paint17_radial_178_1930)"/>
<path opacity="0.1" d="M6.21437 12.5336C6.07152 12.3188 6.00009 12.1039 6.00009 11.889C5.85723 11.0296 5.85723 10.1701 6.00009 9.38232C6.00009 10.385 6.14294 11.3161 6.50009 12.2471C6.64294 12.6052 6.7858 12.8917 7.00009 13.1066C6.92866 13.1066 6.50009 12.8917 6.21437 12.5336Z" fill="white"/>
<path d="M9.71436 19.1943C10.1429 19.4808 10.5715 19.6957 11.0715 19.5524C11.6429 19.4092 12.0001 18.8362 12.0001 18.1917C12.0001 17.6187 11.7144 17.0457 11.3572 16.616C10.7858 15.9714 10.1429 15.3985 9.42864 14.8971C8.64293 14.3242 7.78579 13.8228 7.00007 13.2499C6.14293 12.7485 6.14293 13.3931 6.28579 14.0377C6.42865 14.7539 6.64293 15.3985 7.00007 16.043C7.64293 17.4038 8.5715 18.4781 9.71436 19.1943Z" fill="url(#paint18_radial_178_1930)"/>
<path opacity="0.1" d="M11.1429 19.1226C10.0001 19.051 8.92866 18.3348 8.21437 17.4037C7.50009 16.4727 7.00009 15.3984 6.64294 14.2524C7.14294 15.1835 7.71437 16.1862 8.50009 16.9024C9.35723 17.6186 10.3572 18.0483 11.4287 17.9767C11.5001 18.3348 11.2858 18.8361 11.1429 19.1226Z" fill="white"/>
<path d="M14.0716 20.9848C15.0002 21.3429 16.0716 21.4861 17.0716 21.6294C17.7144 21.701 18.5716 21.7726 18.9287 21.1996C19.143 20.8415 19.143 20.4118 19.0002 20.0537C18.8573 19.6956 18.5002 19.4091 18.2144 19.1226C17.143 18.3348 15.7144 18.0483 14.3573 18.0483C13.8573 18.0483 13.3573 18.0483 12.8573 18.1916C12.5716 18.2632 12.2144 18.4781 12.0002 18.7645C11.7144 19.1226 11.9287 19.3375 12.2144 19.6956C12.7144 20.2686 13.3573 20.6983 14.0716 20.9848Z" fill="url(#paint19_radial_178_1930)"/>
<path opacity="0.1" d="M12.9287 19.5525C14.2144 20.8417 16.143 21.4862 17.9287 21.2714C18.3573 21.1998 18.5001 20.6984 18.643 20.3403C18.5716 20.4119 15.5716 20.6984 12.9287 19.5525Z" fill="white"/>
<path d="M14.6429 39.1047C13.5715 41.0385 12.9286 43.1871 12.7858 45.4073C12.7858 45.7654 12.8572 46.2668 13.2143 46.2668C13.3572 46.2668 13.5001 46.1951 13.6429 46.0519C14.2858 45.4789 14.5715 44.6911 14.7858 43.8317C15.3572 41.9695 15.8572 40.1074 16.3572 38.1737C16.5001 37.6007 16.3572 36.8845 15.7143 37.5291C15.2858 37.9588 14.9286 38.5318 14.6429 39.1047Z" fill="url(#paint20_radial_178_1930)"/>
<path opacity="0.1" d="M13.1429 45.1926C13.1429 43.402 13.6429 41.5399 14.5715 40.0359C14.5001 41.898 13.9287 43.4737 13.1429 45.1926Z" fill="white"/>
<path d="M10.7144 46.1951C9.85729 46.5532 9.07158 47.341 8.64301 48.2005C8.57158 48.3437 8.50015 48.487 8.57158 48.5586C8.64301 48.8451 9.07158 48.7734 9.28586 48.7018C10.4287 48.3437 11.8573 47.8424 12.7144 46.8397C12.9287 46.5532 13.143 46.0519 12.7144 45.837C12.2144 45.6221 11.2144 45.9802 10.7144 46.1951Z" fill="url(#paint21_radial_178_1930)"/>
<path opacity="0.1" d="M11.8572 46.1952C10.7144 46.3384 9.64296 47.0546 9.07153 48.0573C9.71439 47.6276 11.7144 46.3384 12.0715 46.1952C12.0001 46.1952 11.9287 46.1235 11.8572 46.1952Z" fill="white"/>
<path d="M0.428664 45.7654C0.285807 45.837 0.285807 46.0518 0.500093 46.1235C1.35724 46.1951 2.14295 46.1951 3.00009 46.2667C5.14295 46.4816 7.21438 47.4126 8.78581 48.845C8.57152 47.9856 8.14295 47.1261 7.42866 46.5532C6.50009 45.837 5.35724 45.4073 4.28581 45.1924C3.57152 45.0492 2.78581 45.0492 2.07152 45.1924C1.35724 45.3356 0.928664 45.4789 0.428664 45.7654Z" fill="url(#paint22_radial_178_1930)"/>
<path opacity="0.1" d="M5.64289 46.1234C5.00003 45.5505 4.14289 45.264 3.28575 45.1924C2.42861 45.1207 1.57146 45.4072 0.857178 45.8369C2.50003 45.5505 4.07146 45.5505 5.64289 46.1234Z" fill="white"/>
<path d="M15.1429 32.3009C13.9286 34.0914 13.0715 36.24 12.7143 38.3887C12.6429 38.7468 12.7143 39.2481 13.0715 39.3197C13.2143 39.3197 13.3572 39.2481 13.5001 39.1765C14.2143 38.6751 14.5715 37.8873 14.8572 37.0995C15.5715 35.309 16.2858 33.4469 16.9286 31.6563C17.1429 31.0834 17.0715 30.3672 16.3572 30.9401C15.9286 31.2982 15.5001 31.7996 15.1429 32.3009Z" fill="url(#paint23_radial_178_1930)"/>
<path opacity="0.1" d="M13.1429 38.2454C13.2858 36.4549 13.9287 34.6643 15.0715 33.2319C14.7858 35.0941 14.0715 36.5981 13.1429 38.2454Z" fill="white"/>
<path d="M10.6429 39.0332C9.71437 39.3196 8.92865 39.9642 8.42865 40.8237C8.35722 40.9669 8.28579 41.1101 8.35722 41.1818C8.42865 41.4682 8.78579 41.4682 9.07151 41.3966C10.2144 41.1101 11.7144 40.752 12.6429 39.8926C12.9287 39.6061 13.1429 39.1048 12.7144 38.8899C12.2144 38.6034 11.1429 38.8899 10.6429 39.0332Z" fill="url(#paint24_radial_178_1930)"/>
<path opacity="0.1" d="M11.7857 39.1047C10.6429 39.1764 9.50003 39.7493 8.85718 40.6804C9.57146 40.3223 11.6429 39.1764 12 39.1047C11.8572 39.1764 11.8572 39.1047 11.7857 39.1047Z" fill="white"/>
<path d="M0.428676 37.6724C0.285819 37.744 0.285819 37.9589 0.428676 38.0305C1.21439 38.1737 2.07153 38.2454 2.92868 38.3886C5.07153 38.7467 7.07153 39.8926 8.5001 41.4683C8.35725 40.5372 8.0001 39.7494 7.35725 39.1048C6.5001 38.317 5.42868 37.8156 4.35725 37.4575C3.64296 37.2427 2.85725 37.1711 2.14296 37.2427C1.42868 37.3143 0.928676 37.3859 0.428676 37.6724Z" fill="url(#paint25_radial_178_1930)"/>
<path opacity="0.1" d="M5.64301 38.4601C5.00016 37.8872 4.21444 37.4575 3.3573 37.3142C2.50016 37.171 1.64301 37.3142 0.8573 37.7439C2.57159 37.6007 4.07159 37.7439 5.64301 38.4601Z" fill="white"/>
<path d="M15.1429 27.5738C13.7857 29.2927 12.8571 31.3697 12.3571 33.5183C12.2857 33.8764 12.2857 34.3778 12.6429 34.4494C12.7857 34.4494 12.9286 34.3778 13.0714 34.3062C13.7857 33.8764 14.2143 33.0886 14.5714 32.3008C15.4286 30.5819 16.2143 28.7914 17 27.0009C17.2143 26.4279 17.2143 25.7833 16.5 26.2847C16 26.5712 15.5714 27.0725 15.1429 27.5738Z" fill="url(#paint26_radial_178_1930)"/>
<path opacity="0.1" d="M12.7858 33.3751C13.0715 31.5846 13.7858 29.8657 15.0001 28.5049C14.5715 30.367 13.7858 31.7994 12.7858 33.3751Z" fill="white"/>
<path d="M10.2143 34.0197C9.28577 34.3062 8.42862 34.8791 7.92862 35.667C7.8572 35.8102 7.78577 35.8818 7.78577 36.0251C7.8572 36.3116 8.21434 36.3116 8.50005 36.3116C9.71434 36.0967 11.2143 35.8102 12.1429 35.0224C12.4286 34.8075 12.7143 34.3062 12.2858 34.0197C11.7858 33.6616 10.7858 33.8765 10.2143 34.0197Z" fill="url(#paint27_radial_178_1930)"/>
<path opacity="0.1" d="M11.3572 34.1628C10.2143 34.1628 9.07146 34.6642 8.35718 35.5953C9.07146 35.2371 11.2143 34.3061 11.5715 34.2345C11.5 34.1628 11.4286 34.1628 11.3572 34.1628Z" fill="white"/>
<path d="M0.142909 32.0144C5.2318e-05 32.086 5.2318e-05 32.3008 0.142909 32.3725C0.928624 32.5873 1.78577 32.6589 2.57148 32.8738C4.64291 33.3751 6.57148 34.5927 7.92862 36.3116C7.8572 35.3805 7.57148 34.5211 6.92862 33.8765C6.14291 33.017 5.07148 32.4441 4.00005 32.0144C3.28577 31.7279 2.57148 31.6562 1.78577 31.6562C1.14291 31.7279 0.642909 31.7995 0.142909 32.0144Z" fill="url(#paint28_radial_178_1930)"/>
<path opacity="0.1" d="M5.21429 33.1603C4.64286 32.5158 3.85714 32.086 3 31.8712C2.14286 31.7279 1.28571 31.7995 0.5 32.1577C2.21429 32.086 3.78571 32.3725 5.21429 33.1603Z" fill="white"/>
<path d="M16.6429 23.3483C15.4286 24.2793 14.4286 25.4253 13.7143 26.786C13.5715 27.0009 13.5001 27.359 13.7143 27.4306C13.7858 27.5023 13.9286 27.4306 14.0001 27.4306C14.5715 27.2874 15.0001 26.786 15.3572 26.3563C16.2143 25.3536 17.0715 24.2793 17.8572 23.205C18.1429 22.8469 18.2143 22.4172 17.6429 22.6321C17.3572 22.8469 17.0001 23.0618 16.6429 23.3483Z" fill="url(#paint29_radial_178_1930)"/>
<path opacity="0.1" d="M14.0715 26.8577C14.5715 25.7118 15.3572 24.7091 16.4287 23.9929C15.7858 25.0672 15.0001 25.9267 14.0715 26.8577Z" fill="white"/>
<path d="M12.2144 26.7861C11.5715 26.7861 10.8572 27.0726 10.3572 27.5023C10.2858 27.574 10.2144 27.6456 10.2144 27.7172C10.2144 27.9321 10.4286 28.0037 10.6429 28.0037C11.5001 28.0753 12.5001 28.1469 13.2858 27.7888C13.5001 27.6456 13.7858 27.4307 13.5715 27.1442C13.3572 26.8578 12.6429 26.7861 12.2144 26.7861Z" fill="url(#paint30_radial_178_1930)"/>
<path opacity="0.1" d="M12.9287 27.0725C12.1429 26.8577 11.2858 27.0009 10.6429 27.5022C11.2144 27.4306 12.7858 27.1441 13.0001 27.1441C13.0001 27.1441 13.0001 27.0725 12.9287 27.0725Z" fill="white"/>
<path d="M5.85724 23.6348C5.71438 23.6348 5.71438 23.8496 5.78581 23.8496C6.28581 24.1361 6.85724 24.351 7.35724 24.6375C8.64295 25.3537 9.71438 26.4996 10.3572 27.8604C10.5001 27.2158 10.4287 26.6428 10.143 26.0699C9.78581 25.3537 9.14295 24.7807 8.5001 24.351C8.07152 24.0645 7.57152 23.8496 7.07152 23.7064C6.57152 23.6348 6.21438 23.6348 5.85724 23.6348Z" fill="url(#paint31_radial_178_1930)"/>
<path opacity="0.1" d="M9.07152 25.3536C8.7858 24.8522 8.35723 24.4225 7.85723 24.136C7.35723 23.8496 6.71437 23.7779 6.14294 23.8496C7.21437 24.0644 8.21437 24.4941 9.07152 25.3536Z" fill="white"/>
<path d="M18.8572 50.4925C20 51.3519 21.6429 51.5668 22.9286 50.8506C23.9286 50.3492 24.6429 49.3465 25.0715 48.2722C25.2857 47.7709 25.5 47.1979 25.5 46.625C25.5 46.052 25.3572 45.479 24.9286 45.0493C24.4286 44.548 23.7143 44.4763 23.0715 44.4047C21.5715 44.2615 19.2143 43.9034 17.9286 44.7628C16.7857 45.479 17 47.1979 17.3572 48.2722C17.6429 49.1317 18.1429 49.9195 18.8572 50.4925Z" fill="url(#paint32_radial_178_1930)"/>
<path opacity="0.42" d="M18.2144 44.6196C17.7144 44.7629 17.2858 45.1926 17.2144 45.6223C17.7858 45.7656 18.3572 45.6939 18.9286 45.6939C19.8572 45.6223 20.7858 45.6223 21.7858 45.6223C22.8572 45.6223 24.0715 45.6939 24.9286 46.3385C25.0715 46.4101 25.2858 46.5534 25.4286 46.4101C25.4286 46.4101 25.4286 46.3385 25.4286 46.2669C25.4286 45.6939 25.0001 45.121 24.5001 44.8345C24.0001 44.548 23.3572 44.4048 22.7858 44.3331C21.1429 44.1183 19.3572 44.0467 17.8572 44.7629" fill="#EA8328"/>
<path opacity="0.1" d="M18.0715 48.7019C18.3572 49.2749 18.7858 49.8478 19.2143 50.3492C19.3572 50.564 19.5715 50.8505 19.8572 50.8505C20 50.4208 19.8572 49.9911 19.7143 49.5613C19.6429 49.1316 19.5715 48.7019 19.5 48.2722C19.5 47.8424 19.5 47.3411 19.2858 46.9114C19.0715 46.41 18.5715 46.0519 18 46.0519C17.1429 45.9803 17.8572 48.2722 18.0715 48.7019Z" fill="white"/>
<path d="M16.4286 41.9697C16.3572 42.4711 16.3572 43.0441 16.5714 43.5454C16.8572 44.0467 17.3572 44.4765 17.8572 44.6913C18.4286 44.9062 19 44.9778 19.5714 45.0494C21.1429 45.1927 22.6429 45.1927 24.2143 44.9778C24.5 44.9062 24.7857 44.9062 25.0714 44.7629C25.5 44.5481 25.7857 44.19 26 43.7603C26.2857 43.1873 26.5 42.5427 26.5714 41.8981C26.5714 41.6116 26.5714 41.2535 26.4286 40.9671C26.2143 40.5373 25.7143 40.3941 25.2143 40.2509C23.8572 39.8928 22.3572 39.7495 20.9286 39.7495C20.2143 39.7495 19.4286 39.7495 18.7143 39.8211C18.2143 39.8928 17.3572 39.8928 16.9286 40.1792C16.5 40.4657 16.5 41.4684 16.4286 41.9697Z" fill="#EAA017"/>
<path opacity="0.42" d="M16.5715 40.8954C16.5715 40.8954 16.5 41.1818 17.1429 41.1102C19.4286 40.8954 21.1429 41.1102 23.4286 41.3967C24.1429 41.4683 25.4286 41.7548 26 42.1845C26.0715 42.1845 26.0715 42.2561 26.1429 42.2561C26.2857 42.2561 26.3572 42.1845 26.4286 42.0413C26.7143 41.4683 26.2857 40.8237 25.7857 40.5373C25.2143 40.1792 24.5 40.0359 23.7857 39.8927C21.9286 39.6062 20.0715 39.7494 18.2143 39.7494C16.7857 39.8211 16.5715 40.8954 16.5715 40.8954Z" fill="#EA8328"/>
<path opacity="0.1" d="M16.7858 42.8292C16.8572 43.2589 17.0715 43.7602 17.4286 44.0467C17.5715 44.19 17.7858 44.2616 18.0001 44.2616C18.0715 44.2616 18.0715 44.2616 18.0715 44.19V44.1183C18.0715 43.6886 17.7858 43.2589 17.6429 42.8292C17.5715 42.4711 17.5715 42.113 17.5001 41.7549C17.4286 41.6116 17.3572 41.4684 17.2858 41.3968C16.6429 40.967 16.7143 42.5427 16.7858 42.8292Z" fill="white"/>
<path d="M16 39.1764C16 39.3912 16 39.6061 16.0714 39.821C16.2143 40.1074 16.4286 40.2507 16.7143 40.3939C17.8571 40.9669 19.2857 40.8236 20.5714 40.8236C21.2857 40.8236 22 40.8953 22.7857 40.9669C23.9286 41.0385 25.0714 40.9669 26.2143 40.9669C26.4286 40.9669 26.5714 40.9669 26.7857 40.8236C27 40.6804 27 40.3939 27.0714 40.1791C27.1429 39.6777 27.1429 39.1764 27.2143 38.6034C27.2143 38.2453 27.2143 37.8872 27 37.6007C26.7857 37.3859 26.5 37.2426 26.2143 37.0994C24.3571 36.4548 22.1429 36.598 20.2143 36.598C19.0714 36.598 18.4286 36.8129 17.2857 36.8129C16.4286 36.8845 16.0714 38.5318 16 39.1764Z" fill="url(#paint33_radial_178_1930)"/>
<path opacity="0.42" d="M25.5001 37.0994C26.0715 37.171 26.5715 37.3859 27.0001 37.744C27.1429 37.8872 27.2143 38.0305 27.2143 38.1737C27.2143 38.3169 27.0715 38.5318 26.9286 38.5318C26.8572 38.5318 26.7858 38.4602 26.6429 38.4602C25.2143 37.744 23.5001 37.5291 21.8572 37.5291C20.2143 37.5291 18.5715 37.744 17.0001 37.6007C16.3572 37.5291 16.5001 37.0278 17.0001 36.8845C17.5001 36.6697 18.2143 36.6697 18.7858 36.6697C20.2143 36.5981 21.4286 36.6697 22.8572 36.8845C23.5715 36.9562 24.6429 37.0278 25.5001 37.0994Z" fill="#EA8328"/>
<path opacity="0.1" d="M16.3572 39.1048C16.3572 39.248 16.3572 39.3913 16.3572 39.5345C16.4286 39.6778 16.5 39.821 16.5715 39.9642C16.7143 40.1791 16.9286 40.3224 17.1429 40.3224C17.2857 40.3224 17.4286 40.2507 17.4286 40.1075C17.4286 40.0359 17.3572 39.9643 17.2857 39.8926C16.9286 39.5345 16.7143 39.0332 16.8572 38.5318C16.9286 38.317 17 37.6724 16.5715 37.9589C16.3572 38.1737 16.3572 38.8183 16.3572 39.1048Z" fill="white"/>
<path d="M16.7143 36.598C16.8572 36.7413 17.0715 36.8129 17.2143 36.8129C19.0715 37.2426 21 37.3142 22.9286 37.3858C23.5 37.3858 24.1429 37.4575 24.7143 37.3858C25.1429 37.3858 25.5 37.3142 25.8572 37.171C26 37.0994 26.2143 37.0277 26.3572 36.8845C26.5715 36.6696 26.6429 36.2399 26.6429 35.9534C26.6429 35.3089 26.5715 34.6643 26.1429 34.2345C25.7858 33.8764 25.2143 33.7332 24.7143 33.59C22.9286 33.2319 21.0715 33.0886 19.2143 33.0886C18.4286 33.0886 17.1429 33.0886 16.7143 33.9481C16.5 34.5927 16.1429 36.0967 16.7143 36.598Z" fill="#EAA017"/>
<path opacity="0.42" d="M25 33.59C25.3572 33.6616 25.7143 33.8048 26 34.0197C26.2857 34.2346 26.5715 34.521 26.6429 34.8075C26.7143 34.9508 26.7143 35.1656 26.5 35.2372C26.4286 35.2372 26.3572 35.2372 26.2143 35.1656C24.8572 34.4494 23.2857 34.1629 21.7857 34.0913C20.8572 34.0197 19.8572 33.9481 18.9286 33.9481C18.4286 33.9481 18 33.9481 17.5 33.9481C17.4286 33.9481 16.8572 34.0197 16.8572 33.9481C16.7857 33.8048 17.1429 33.59 17.2143 33.59C17.7857 33.1602 18.7143 33.1602 19.3572 33.0886C20.2857 33.017 21.1429 33.017 22.0715 33.0886C23.0715 33.1602 24.0715 33.3751 25 33.59Z" fill="#EA8328"/>
<path opacity="0.1" d="M17 35.7385C17 35.8817 16.9286 36.0966 17.0715 36.2398C17.1429 36.3831 17.4286 36.4547 17.5715 36.5263C17.7857 36.5979 18.0715 36.6696 18.2858 36.4547C18.4286 36.3831 18.4286 36.2398 18.5 36.0966C18.6429 35.6669 18.7857 35.2372 18.7857 34.8074C18.7857 34.6642 18.7858 34.521 18.7143 34.3777C18.5 33.948 17.8572 33.8764 17.5 34.1629C17.2143 34.521 17.0715 35.3088 17 35.7385Z" fill="white"/>
<path d="M16.6428 32.086C16.6428 32.3725 16.6428 32.7306 16.7857 32.9454C17.0714 33.4468 17.7143 33.5184 18.2143 33.59C20 33.7333 21.7143 33.5184 23.5 33.8049C23.9285 33.8765 24.3571 33.9481 24.7857 33.9481C25.2143 33.8765 25.6428 33.7333 25.9285 33.3752C26.0714 33.0887 26.1428 32.8022 26.2143 32.4441C26.2857 31.7279 26.2143 31.0117 26 30.3671C25.7857 29.7225 25.3571 29.0779 24.7857 28.7198C24.3571 28.4334 23.8571 28.3617 23.2857 28.2185C21.9285 28.0036 20.5 27.932 19.0714 28.0753C18.5714 28.1469 17.9285 28.1469 17.5 28.5766C17.2143 28.8631 17.1428 29.2928 17.0714 29.6509C16.8571 30.4387 16.6428 31.2266 16.6428 32.086Z" fill="url(#paint34_radial_178_1930)"/>
<path opacity="0.42" d="M25 28.863C23.7857 28.2185 22.5714 28.5049 21.1429 28.4333C19.7857 28.3617 18.3572 28.5766 17.0714 29.2212C17 29.3644 16.9286 29.5793 16.9286 29.7225C18.4286 29.2928 19.8572 29.436 21.3572 29.5793C22.8572 29.7941 24.3572 30.0806 25.8572 30.0806C25.9286 30.009 25.5 29.0779 25 28.863Z" fill="#EA8328"/>
<path opacity="0.1" d="M17.1428 32.086C17.0714 32.3725 17.0714 32.7306 17.3571 32.9455C17.6428 33.1604 18 32.9455 18.2857 33.0171C18.4285 33.0887 18.6428 33.1604 18.7857 33.0887C18.9285 33.0171 19 32.9455 19 32.8023C19.2143 32.3009 19.3571 31.7279 19.4285 31.2266C19.5 30.8685 19.5 30.3672 19.2143 30.0807C19.0714 29.9374 18.8571 29.8658 18.6428 29.8658C18.5 29.8658 18.2857 29.7942 18.0714 29.8658C17.4285 30.0807 17.2143 31.5131 17.1428 32.086Z" fill="white"/>
<path d="M21.2143 19.9106C20.5714 19.9106 19.9285 20.0538 19.5 20.1971C19.0714 20.3403 18.7143 20.6268 18.6428 21.1281C18.1428 23.0619 16.6428 28.6483 16.8571 29.0064C17.0714 29.5077 18.3571 29.0064 20.7857 28.7915C23.2143 28.5767 25.6428 29.2929 26.1428 29.0064C26.6428 28.7199 24.2143 21.1281 23.7143 20.4119C23.1428 19.6957 21.7857 19.9106 21.2143 19.9106Z" fill="url(#paint35_radial_178_1930)"/>
<path opacity="0.1" d="M19.5714 21.1281C19.2857 21.3429 19.1428 21.6294 18.9999 21.9875C18.6428 22.7754 18.4285 23.6348 18.2857 24.4942C18.2142 24.7091 18.2142 24.924 18.2142 25.1388C18.2142 25.3537 18.3571 25.5685 18.5714 25.6402C18.7857 25.7118 19.0714 25.6402 19.2857 25.4969C19.4999 25.3537 19.6428 25.1388 19.7857 24.924C20.2857 24.4226 20.9285 24.2078 21.4999 23.778C22.0714 23.4199 22.5714 22.7037 22.4285 22.0591C22.3571 21.6294 21.9999 21.3429 21.6428 21.1281C20.9999 20.9848 20.1428 20.6984 19.5714 21.1281Z" fill="white"/>
<path d="M25.4286 72.9098C26.3572 73.053 27.2143 73.5543 27.8572 74.1989C28.5 74.8435 29 75.703 29.4286 76.4908C29.6429 76.9205 29.9286 77.3502 30 77.8516C30.0715 78.3529 30 78.9259 29.7143 79.284C29.2858 79.8569 28.5 79.9286 27.7858 79.9286C25.7143 79.8569 23.7143 78.8542 22.3572 77.3502C22 76.9205 21.7143 76.4908 21.5715 75.9894C21 74.0557 23.7858 72.6949 25.4286 72.9098Z" fill="url(#paint36_radial_178_1930)"/>
<path opacity="0.42" d="M21.4286 75.4166C21.4286 75.5598 21.4286 75.703 21.5714 75.8463C21.7857 76.0611 22.0714 75.9895 22.3572 75.9179C22.8572 75.7747 23.2857 75.5598 23.7143 75.4166C24.9286 75.0585 26.2143 74.9868 27.4286 75.2017C27.7143 75.2733 28.0714 75.2733 28.1429 74.9868C28.2143 74.772 28.0714 74.6287 28 74.4139C27.2143 73.4828 26.4286 73.1963 25.2857 73.0531C24.1429 72.9098 23.2143 73.0531 22.4286 73.7693C21.8572 74.199 21.4286 74.7004 21.4286 75.4166Z" fill="#EA8328"/>
<path d="M27.5715 63.8139C28.0715 65.0314 29.0715 65.9625 30.1429 66.6787C30.7858 67.1084 31.5 67.3949 32.2143 67.3949C32.9286 67.3949 33.7858 67.1084 34.1429 66.5354C34.5715 65.8909 34.5 64.8882 34.0715 64.2436C33.5715 63.599 32.7858 63.1693 32 63.026C31.2143 62.8828 30.3572 63.026 29.5715 63.2409C29.3572 63.3125 29.1429 63.3841 28.9286 63.3125C28.7858 63.3125 28.6429 63.2409 28.5 63.1693C28.1429 63.026 27.7858 62.8112 27.5715 62.4531C27.5 62.2382 27.5 61.9517 27.5 61.6653C27.5715 61.0207 27.7143 60.3761 28.1429 59.8747C28.2858 59.6599 28.8572 59.445 28.5715 59.1585C28.2858 58.9437 28 59.3018 27.8572 59.5166C27 60.7342 27 62.4531 27.5715 63.8139Z" fill="url(#paint37_radial_178_1930)"/>
<path opacity="0.42" d="M31.2143 67.1801C31.7143 67.3233 32.2143 67.4665 32.7858 67.3949C33.2858 67.3233 33.7858 67.1084 34.1429 66.6787C34.5 66.249 34.5715 65.676 34.4286 65.1747C34.3572 65.0314 34.2858 64.9598 34.2143 64.8882C34 64.745 33.7143 64.745 33.5 64.8166C33.2858 64.8882 33.0715 65.1031 32.8572 65.2463C32.5 65.6044 32.0715 65.8909 31.5715 66.0341C31.0715 66.1774 30.5 66.1774 30.0715 65.9625C29.8572 65.8909 29.7143 65.7476 29.5715 65.6044C29.3572 65.5328 29.0715 65.5328 29.1429 65.8193C29.2143 66.0341 29.5715 66.249 29.7858 66.3922C30.1429 66.6787 30.7143 66.9652 31.2143 67.1801Z" fill="#EA8328"/>
<path d="M19.5715 67.8246C19.0715 69.4002 19.0715 71.1191 19.5 72.6948C19.6429 73.1245 19.7857 73.6258 20.2143 73.9123C20.5715 74.1988 21.0715 74.1988 21.5 74.1988C22.2857 74.1988 23.0715 73.9839 23.7143 73.5542C24.3572 73.1245 24.9286 72.4799 25.2143 71.7637C25.4286 71.0475 25.4286 70.2597 25.2857 69.5435C25.1429 68.6124 24.8572 67.7529 24.3572 66.9651C24.1429 66.6786 23.9286 66.3922 23.6429 66.1057C23.0715 65.6043 21.7857 65.1746 21 65.4611C20.2857 65.7476 19.7857 67.1084 19.5715 67.8246Z" fill="#EAA017"/>
<path opacity="0.1" d="M19.9286 72.1218C19.9286 72.4082 20 72.7663 20.2143 72.9096C20.3572 73.0528 20.5715 73.0528 20.7858 73.1244C21.1429 73.1961 21.4286 73.2677 21.7858 73.2677C22.0715 71.6204 22.2143 69.9015 22.2858 68.1826C22.2858 67.4664 22.2858 66.5354 21.7143 66.034C21.0715 65.5327 20.7858 66.034 20.6429 66.607C20.0715 68.4691 19.7858 70.2596 19.9286 72.1218Z" fill="white"/>
<path d="M28.5715 72.4083C28.3572 74.3421 29.0001 76.2042 30.0001 77.8515C30.1429 78.138 30.4286 78.4961 30.7858 78.4961C31.2143 78.4961 31.5001 78.138 31.7143 77.8515C32.2858 76.9204 32.7143 75.8461 33.0715 74.7718C33.7143 72.9813 34.2143 71.1192 33.7858 69.257C33.5001 68.2544 32.6429 66.8936 31.3572 67.2517C30.9286 67.3949 30.6429 67.6098 30.3572 67.8963C29.9286 68.4692 29.5001 69.257 29.2143 69.9016C29.0001 70.6894 28.7143 71.6205 28.5715 72.4083Z" fill="#EAA017"/>
<path opacity="0.1" d="M29.0714 74.3421C29.1429 74.557 29.2143 74.8435 29.3571 75.0583C29.5 75.2732 29.7857 75.4164 30 75.3448C30.1429 74.7002 29.8571 74.0556 29.7857 73.4827C29.6429 72.7665 29.7143 71.9786 30 71.2624C30.2857 70.4746 30.7857 69.83 31 69.0422C31.4286 67.6098 30.5 68.8273 30.2143 69.4003C29.2857 70.8327 28.7857 72.5516 29.0714 74.3421Z" fill="white"/>
<path d="M19.0714 63.3842C19.0714 63.6706 19.1429 63.9571 19.2143 64.172C19.2857 64.3868 19.4286 64.5301 19.6429 64.6733C20.1429 65.1031 20.7857 65.2463 21.3571 65.3179C22.3571 65.4612 23.5 65.4612 24.2857 64.745C25 64.1004 25.2143 63.0977 25.2143 62.095C25.2143 61.2355 25.0714 60.3045 24.7143 59.5167C24.3571 58.7288 23.7143 58.0126 22.8571 57.7262C19.7143 56.5802 18.9286 61.1639 19.0714 63.3842Z" fill="url(#paint38_radial_178_1930)"/>
<path opacity="0.42" d="M20.2857 59.1587C20.3571 59.2303 20.5 59.3019 20.5714 59.3019C21.2857 59.5168 22.0714 59.3735 22.7857 59.4451C23.2143 59.5168 23.5714 59.66 23.9286 59.8749C24.2143 60.0897 24.5714 60.3762 24.9286 60.3046C25 60.1613 24.9286 59.9465 24.7857 59.8032C24.6428 59.5884 24.5 59.4451 24.4286 59.2303C24.2143 58.9438 24 58.6573 23.7143 58.4425C23.1428 57.9411 22.2857 57.583 21.5 57.6546C21 57.6546 19.8571 58.5857 20.2857 59.1587Z" fill="#EA8328"/>
<path opacity="0.1" d="M19.5714 62.0951C19.5714 62.5248 19.5714 63.0261 19.7143 63.4559C20 64.1004 20.6428 64.6018 21.4286 64.6734C21.5714 64.6734 21.7857 64.6734 21.8571 64.4585C21.9286 64.2437 21.7143 64.1004 21.5 63.9572C20.9286 63.5991 20.5714 63.0261 20.3571 62.3815C20.1428 61.737 20.1428 61.0924 20.2143 60.3762C20.2143 60.2329 20.2857 59.7316 20.1428 59.66C19.9286 59.5884 19.8571 60.1613 19.8571 60.3046C19.6428 60.9491 19.5714 61.5221 19.5714 62.0951Z" fill="white"/>
<path d="M18.7858 54.002C18.6429 54.9331 18.5715 56.0074 19.2143 56.7236C19.5715 57.0817 20.0001 57.2965 20.5001 57.4398C21.4286 57.7263 22.3572 57.7263 23.2858 57.5114C23.7143 57.4398 24.1429 57.2249 24.5001 56.9384C25.0001 56.4371 25.1429 55.7209 25.0715 55.0763C25.0715 54.1452 24.7858 53.2858 24.5001 52.4264C24.3572 51.925 24.0715 51.3521 23.6429 51.0656C23.2858 50.8507 22.8572 50.8507 22.4286 50.8507C21.6429 50.8507 20.4286 50.7791 19.7858 51.2804C19.0715 51.8534 18.9286 53.1426 18.7858 54.002Z" fill="#EAA017"/>
<path opacity="0.42" d="M19.0715 52.7127C19.0715 52.7843 19.0715 52.856 19.0715 52.9276C19.0715 52.9992 19.143 52.9992 19.2144 52.9992C19.5001 53.0708 19.7144 52.9992 20.0001 52.9992C21.3572 52.856 22.7858 53.0708 24.0715 53.6438C24.2144 53.7154 24.4287 53.787 24.5715 53.6438C24.643 53.5722 24.643 53.4289 24.643 53.3573C24.643 53.0708 24.5001 52.7127 24.4287 52.4262C24.2858 51.9965 24.0715 51.6384 23.7144 51.3519C23.0715 50.8506 22.2144 50.8506 21.4287 50.8506C20.7858 50.9222 20.2144 50.9222 19.7144 51.4236C19.4287 51.8533 19.143 52.2114 19.0715 52.7127Z" fill="#EA8328"/>
<path d="M20.7857 21.4861C20.7857 21.701 20.5714 21.9158 20.3572 21.9158C20.1429 21.9158 19.9286 21.701 19.9286 21.4861C19.9286 21.2713 20.1429 21.0564 20.3572 21.0564C20.5714 21.0564 20.7857 21.1996 20.7857 21.4861Z" fill="#1C0003"/>
<path d="M20.3572 21.1997C20.3572 21.2713 20.3572 21.2713 20.3572 21.3429C20.2858 21.3429 20.2858 21.3429 20.2144 21.3429C20.2144 21.2713 20.2144 21.2713 20.2144 21.1997C20.2858 21.1997 20.3572 21.1997 20.3572 21.1997Z" fill="white"/>
<path d="M20.4286 21.9159C20.4286 21.9159 20.6429 21.7727 20.6429 21.5578C20.6429 21.4146 20.6429 21.2713 20.5714 21.1997C20.6429 21.1997 20.6429 21.2713 20.7143 21.3429C20.7857 21.4146 20.7857 21.5578 20.7857 21.6294C20.7857 21.7011 20.7143 21.7727 20.6429 21.8443C20.5714 21.8443 20.5 21.9159 20.4286 21.9159Z" fill="#303030"/>
<path d="M22.7858 21.7727C22.6429 21.9876 22.3572 21.9876 22.1429 21.8444C21.9286 21.7011 21.9286 21.4146 22.0715 21.1998C22.2143 20.9849 22.5001 20.9849 22.7143 21.1282C22.8572 21.2714 22.9286 21.5579 22.7858 21.7727Z" fill="#1C0003"/>
<path d="M22.5714 21.2713C22.5714 21.3429 22.5 21.3429 22.5 21.3429C22.4286 21.3429 22.4286 21.2713 22.4286 21.2713C22.4286 21.1997 22.5 21.1997 22.5 21.1997C22.5714 21.1997 22.5714 21.2713 22.5714 21.2713Z" fill="white"/>
<path d="M22.2144 21.8444C22.2144 21.8444 22.5001 21.8444 22.6429 21.7011C22.7144 21.6295 22.7858 21.4863 22.7858 21.343C22.7858 21.4146 22.8572 21.4863 22.7858 21.5579C22.7858 21.6295 22.7144 21.7727 22.6429 21.8444C22.5715 21.916 22.5001 21.916 22.3572 21.916C22.3572 21.916 22.2858 21.916 22.2144 21.8444Z" fill="#303030"/>
<path opacity="0.1" d="M29.9286 64.0288C30.5 64.0288 31.1429 63.8139 31.7143 63.8139C32.4286 63.7423 33.0714 63.9572 33.7143 64.2437C33.3571 63.5991 32.6429 63.1694 31.8571 63.0977C31.2143 63.0261 30.6429 63.3126 30 63.4558C29.5 63.5991 29 63.5991 28.5 63.5275C28.5714 63.9572 29.5714 64.0288 29.9286 64.0288Z" fill="white"/>
<path opacity="0.42" d="M21.2858 24.3511C21.2858 25.2105 21.1429 26.07 21.0001 26.9294C20.9286 27.4308 20.7858 27.8605 20.4286 28.2902C19.8572 28.9348 18.9286 29.078 18.0715 29.1497C17.8572 29.1497 17.5715 29.2213 17.3572 29.1497C17.1429 29.078 16.9286 28.9348 16.7858 28.7199C16.7858 28.9348 16.9286 29.1497 17.1429 29.2213C17.3572 29.2929 17.5715 29.2929 17.7858 29.2929C19.5715 29.1497 21.2858 28.4335 23.0715 28.6483C23.7143 28.7199 24.4286 28.9348 25.0715 29.0064C25.4286 29.078 25.8572 29.1497 26.2143 29.0064C25.6429 28.8632 25.0715 28.7916 24.5715 28.6483C24.0715 28.5051 23.5001 28.4335 23.0001 28.2186C22.5001 28.0037 22.0715 27.6456 21.7858 27.1443C21.5715 26.7146 21.5715 26.2132 21.5001 25.7119C21.5001 25.2105 21.4286 24.6376 21.4286 24.1362C21.4286 24.4943 21.3572 24.7808 21.2143 25.0673" fill="#EA8328"/>
</g>
<defs>
<radialGradient id="paint0_radial_178_1930" cx="0" cy="0" r="1" gradientUnits="userSpaceOnUse" gradientTransform="translate(20.945 20.4513) scale(3.11086 3.11921)">
<stop stop-color="#E17921"/>
<stop offset="0.474" stop-color="#EAA628"/>
<stop offset="0.9281" stop-color="#EAA628"/>
</radialGradient>
<radialGradient id="paint1_radial_178_1930" cx="0" cy="0" r="1" gradientUnits="userSpaceOnUse" gradientTransform="translate(21.4138 20.4513) rotate(180) scale(3.11086 3.11921)">
<stop stop-color="#E17921"/>
<stop offset="0.474" stop-color="#EAA628"/>
<stop offset="0.9281" stop-color="#EAA628"/>
</radialGradient>
<radialGradient id="paint2_radial_178_1930" cx="0" cy="0" r="1" gradientUnits="userSpaceOnUse" gradientTransform="translate(34.0825 6.72467) rotate(180) scale(5.25364 5.26775)">
<stop stop-color="#E17921"/>
<stop offset="0.474" stop-color="#EAA628"/>
<stop offset="0.9281" stop-color="#EAA628"/>
</radialGradient>
<radialGradient id="paint3_radial_178_1930" cx="0" cy="0" r="1" gradientUnits="userSpaceOnUse" gradientTransform="translate(31.0541 19.7199) rotate(180) scale(9.72929 9.75542)">
<stop stop-color="#E17921"/>
<stop offset="0.474" stop-color="#EAA628"/>
<stop offset="0.9281" stop-color="#EAA628"/>
</radialGradient>
<radialGradient id="paint4_radial_178_1930" cx="0" cy="0" r="1" gradientUnits="userSpaceOnUse" gradientTransform="translate(24.2365 21.6004) rotate(180) scale(10.4128 10.4408)">
<stop stop-color="#E17921"/>
<stop offset="0.474" stop-color="#EAA628"/>
<stop offset="0.9281" stop-color="#EAA628"/>
</radialGradient>
<radialGradient id="paint5_radial_178_1930" cx="0" cy="0" r="1" gradientUnits="userSpaceOnUse" gradientTransform="translate(27.2808 37.9034) rotate(174.499) scale(8.89769 8.92114)">
<stop stop-color="#E17921"/>
<stop offset="0.474" stop-color="#EAA628"/>
<stop offset="0.9281" stop-color="#EAA628"/>
</radialGradient>
<radialGradient id="paint6_radial_178_1930" cx="0" cy="0" r="1" gradientUnits="userSpaceOnUse" gradientTransform="translate(29.729 46.332) rotate(180) scale(7.74414 7.76494)">
<stop stop-color="#E17921"/>
<stop offset="0.474" stop-color="#EAA628"/>
<stop offset="0.9281" stop-color="#EAA628"/>
</radialGradient>
<radialGradient id="paint7_radial_178_1930" cx="0" cy="0" r="1" gradientUnits="userSpaceOnUse" gradientTransform="translate(33.1636 50.9675) rotate(-176.24) scale(11.2841 11.3141)">
<stop stop-color="#E17921"/>
<stop offset="0.474" stop-color="#EAA628"/>
<stop offset="0.9281" stop-color="#EAA628"/>
</radialGradient>
<radialGradient id="paint8_radial_178_1930" cx="0" cy="0" r="1" gradientUnits="userSpaceOnUse" gradientTransform="translate(26.6128 31.2234) rotate(169.171) scale(8.89834 8.92055)">
<stop stop-color="#E17921"/>
<stop offset="0.474" stop-color="#EAA628"/>
<stop offset="0.9281" stop-color="#EAA628"/>
</radialGradient>
<radialGradient id="paint9_radial_178_1930" cx="0" cy="0" r="1" gradientUnits="userSpaceOnUse" gradientTransform="translate(29.8292 39.3882) rotate(174.673) scale(7.74408 7.76452)">
<stop stop-color="#E17921"/>
<stop offset="0.474" stop-color="#EAA628"/>
<stop offset="0.9281" stop-color="#EAA628"/>
</radialGradient>
<radialGradient id="paint10_radial_178_1930" cx="0" cy="0" r="1" gradientUnits="userSpaceOnUse" gradientTransform="translate(33.677 43.6849) rotate(178.431) scale(11.2841 11.3143)">
<stop stop-color="#E17921"/>
<stop offset="0.474" stop-color="#EAA628"/>
<stop offset="0.9281" stop-color="#EAA628"/>
</radialGradient>
<radialGradient id="paint11_radial_178_1930" cx="0" cy="0" r="1" gradientUnits="userSpaceOnUse" gradientTransform="translate(26.5556 26.5544) rotate(165.675) scale(8.89889 8.91987)">
<stop stop-color="#E17921"/>
<stop offset="0.474" stop-color="#EAA628"/>
<stop offset="0.9281" stop-color="#EAA628"/>
</radialGradient>
<radialGradient id="paint12_radial_178_1930" cx="0" cy="0" r="1" gradientUnits="userSpaceOnUse" gradientTransform="translate(30.2614 34.5079) rotate(171.176) scale(7.74422 7.76404)">
<stop stop-color="#E17921"/>
<stop offset="0.474" stop-color="#EAA628"/>
<stop offset="0.9281" stop-color="#EAA628"/>
</radialGradient>
<radialGradient id="paint13_radial_178_1930" cx="0" cy="0" r="1" gradientUnits="userSpaceOnUse" gradientTransform="translate(34.3631 38.5618) rotate(174.932) scale(11.2842 11.3141)">
<stop stop-color="#E17921"/>
<stop offset="0.474" stop-color="#EAA628"/>
<stop offset="0.9281" stop-color="#EAA628"/>
</radialGradient>
<radialGradient id="paint14_radial_178_1930" cx="0" cy="0" r="1" gradientUnits="userSpaceOnUse" gradientTransform="translate(25.0524 22.8667) rotate(150.904) scale(6.13409 6.14278)">
<stop stop-color="#E17921"/>
<stop offset="0.474" stop-color="#EAA628"/>
<stop offset="0.9281" stop-color="#EAA628"/>
</radialGradient>
<radialGradient id="paint15_radial_178_1930" cx="0" cy="0" r="1" gradientUnits="userSpaceOnUse" gradientTransform="translate(28.9122 27.5149) rotate(156.404) scale(5.33747 5.34721)">
<stop stop-color="#E17921"/>
<stop offset="0.474" stop-color="#EAA628"/>
<stop offset="0.9281" stop-color="#EAA628"/>
</radialGradient>
<radialGradient id="paint16_radial_178_1930" cx="0" cy="0" r="1" gradientUnits="userSpaceOnUse" gradientTransform="translate(32.3539 29.4951) rotate(160.159) scale(7.77703 7.79311)">
<stop stop-color="#E17921"/>
<stop offset="0.474" stop-color="#EAA628"/>
<stop offset="0.9281" stop-color="#EAA628"/>
</radialGradient>
<radialGradient id="paint17_radial_178_1930" cx="0" cy="0" r="1" gradientUnits="userSpaceOnUse" gradientTransform="translate(8.75375 6.72458) scale(5.25364 5.26775)">
<stop stop-color="#E17921"/>
<stop offset="0.474" stop-color="#EAA628"/>
<stop offset="0.9281" stop-color="#EAA628"/>
</radialGradient>
<radialGradient id="paint18_radial_178_1930" cx="0" cy="0" r="1" gradientUnits="userSpaceOnUse" gradientTransform="translate(11.7821 19.7199) scale(9.72936 9.75549)">
<stop stop-color="#E17921"/>
<stop offset="0.474" stop-color="#EAA628"/>
<stop offset="0.9281" stop-color="#EAA628"/>
</radialGradient>
<radialGradient id="paint19_radial_178_1930" cx="0" cy="0" r="1" gradientUnits="userSpaceOnUse" gradientTransform="translate(18.5997 21.6004) scale(10.4127 10.4407)">
<stop stop-color="#E17921"/>
<stop offset="0.474" stop-color="#EAA628"/>
<stop offset="0.9281" stop-color="#EAA628"/>
</radialGradient>
<radialGradient id="paint20_radial_178_1930" cx="0" cy="0" r="1" gradientUnits="userSpaceOnUse" gradientTransform="translate(15.5553 37.9034) rotate(5.50061) scale(8.89769 8.92114)">
<stop stop-color="#E17921"/>
<stop offset="0.474" stop-color="#EAA628"/>
<stop offset="0.9281" stop-color="#EAA628"/>
</radialGradient>
<radialGradient id="paint21_radial_178_1930" cx="0" cy="0" r="1" gradientUnits="userSpaceOnUse" gradientTransform="translate(13.1072 46.332) scale(7.74414 7.76494)">
<stop stop-color="#E17921"/>
<stop offset="0.474" stop-color="#EAA628"/>
<stop offset="0.9281" stop-color="#EAA628"/>
</radialGradient>
<radialGradient id="paint22_radial_178_1930" cx="0" cy="0" r="1" gradientUnits="userSpaceOnUse" gradientTransform="translate(9.67256 50.9675) rotate(-3.75971) scale(11.2841 11.3141)">
<stop stop-color="#E17921"/>
<stop offset="0.474" stop-color="#EAA628"/>
<stop offset="0.9281" stop-color="#EAA628"/>
</radialGradient>
<radialGradient id="paint23_radial_178_1930" cx="0" cy="0" r="1" gradientUnits="userSpaceOnUse" gradientTransform="translate(16.2233 31.2234) rotate(10.8292) scale(8.89834 8.92055)">
<stop stop-color="#E17921"/>
<stop offset="0.474" stop-color="#EAA628"/>
<stop offset="0.9281" stop-color="#EAA628"/>
</radialGradient>
<radialGradient id="paint24_radial_178_1930" cx="0" cy="0" r="1" gradientUnits="userSpaceOnUse" gradientTransform="translate(13.0071 39.3882) rotate(5.32741) scale(7.74408 7.76452)">
<stop stop-color="#E17921"/>
<stop offset="0.474" stop-color="#EAA628"/>
<stop offset="0.9281" stop-color="#EAA628"/>
</radialGradient>
<radialGradient id="paint25_radial_178_1930" cx="0" cy="0" r="1" gradientUnits="userSpaceOnUse" gradientTransform="translate(9.15906 43.6849) rotate(1.56861) scale(11.2841 11.3143)">
<stop stop-color="#E17921"/>
<stop offset="0.474" stop-color="#EAA628"/>
<stop offset="0.9281" stop-color="#EAA628"/>
</radialGradient>
<radialGradient id="paint26_radial_178_1930" cx="0" cy="0" r="1" gradientUnits="userSpaceOnUse" gradientTransform="translate(16.2805 26.5543) rotate(14.3246) scale(8.89889 8.91987)">
<stop stop-color="#E17921"/>
<stop offset="0.474" stop-color="#EAA628"/>
<stop offset="0.9281" stop-color="#EAA628"/>
</radialGradient>
<radialGradient id="paint27_radial_178_1930" cx="0" cy="0" r="1" gradientUnits="userSpaceOnUse" gradientTransform="translate(12.5747 34.5078) rotate(8.82432) scale(7.74422 7.76404)">
<stop stop-color="#E17921"/>
<stop offset="0.474" stop-color="#EAA628"/>
<stop offset="0.9281" stop-color="#EAA628"/>
</radialGradient>
<radialGradient id="paint28_radial_178_1930" cx="0" cy="0" r="1" gradientUnits="userSpaceOnUse" gradientTransform="translate(8.47301 38.5618) rotate(5.06787) scale(11.2842 11.3141)">
<stop stop-color="#E17921"/>
<stop offset="0.474" stop-color="#EAA628"/>
<stop offset="0.9281" stop-color="#EAA628"/>
</radialGradient>
<radialGradient id="paint29_radial_178_1930" cx="0" cy="0" r="1" gradientUnits="userSpaceOnUse" gradientTransform="translate(17.5647 22.8667) rotate(29.0959) scale(6.13402 6.14271)">
<stop stop-color="#E17921"/>
<stop offset="0.474" stop-color="#EAA628"/>
<stop offset="0.9281" stop-color="#EAA628"/>
</radialGradient>
<radialGradient id="paint30_radial_178_1930" cx="0" cy="0" r="1" gradientUnits="userSpaceOnUse" gradientTransform="translate(13.7049 27.5148) rotate(23.5964) scale(5.33747 5.34721)">
<stop stop-color="#E17921"/>
<stop offset="0.474" stop-color="#EAA628"/>
<stop offset="0.9281" stop-color="#EAA628"/>
</radialGradient>
<radialGradient id="paint31_radial_178_1930" cx="0" cy="0" r="1" gradientUnits="userSpaceOnUse" gradientTransform="translate(10.2633 29.4951) rotate(19.8412) scale(7.77703 7.79312)">
<stop stop-color="#E17921"/>
<stop offset="0.474" stop-color="#EAA628"/>
<stop offset="0.9281" stop-color="#EAA628"/>
</radialGradient>
<radialGradient id="paint32_radial_178_1930" cx="0" cy="0" r="1" gradientUnits="userSpaceOnUse" gradientTransform="translate(26.3028 51.0149) scale(18.5822 18.6321)">
<stop stop-color="#E17921"/>
<stop offset="0.474" stop-color="#EAA628"/>
<stop offset="0.9281" stop-color="#EAA628"/>
</radialGradient>
<radialGradient id="paint33_radial_178_1930" cx="0" cy="0" r="1" gradientUnits="userSpaceOnUse" gradientTransform="translate(27.1914 42.0318) scale(27.7283 27.8028)">
<stop stop-color="#E17921"/>
<stop offset="0.474" stop-color="#EAA628"/>
<stop offset="0.9281" stop-color="#EAA628"/>
</radialGradient>
<radialGradient id="paint34_radial_178_1930" cx="0" cy="0" r="1" gradientUnits="userSpaceOnUse" gradientTransform="translate(28.9643 37.3057) scale(27.3896 27.4631)">
<stop stop-color="#E17921"/>
<stop offset="0.474" stop-color="#EAA628"/>
<stop offset="0.9281" stop-color="#EAA628"/>
</radialGradient>
<radialGradient id="paint35_radial_178_1930" cx="0" cy="0" r="1" gradientUnits="userSpaceOnUse" gradientTransform="translate(25.3805 29.2449) scale(21.3132 21.3705)">
<stop stop-color="#E17921"/>
<stop offset="0.474" stop-color="#EAA628"/>
<stop offset="0.9281" stop-color="#EAA628"/>
</radialGradient>
<radialGradient id="paint36_radial_178_1930" cx="0" cy="0" r="1" gradientUnits="userSpaceOnUse" gradientTransform="translate(32.1343 78.4407) scale(19.589 19.6416)">
<stop stop-color="#E17921"/>
<stop offset="0.474" stop-color="#EAA628"/>
<stop offset="0.9281" stop-color="#EAA628"/>
</radialGradient>
<radialGradient id="paint37_radial_178_1930" cx="0" cy="0" r="1" gradientUnits="userSpaceOnUse" gradientTransform="translate(27.0465 56.4925) scale(19.5027 19.5551)">
<stop stop-color="#E17921"/>
<stop offset="0.474" stop-color="#EAA628"/>
<stop offset="0.9281" stop-color="#EAA628"/>
</radialGradient>
<radialGradient id="paint38_radial_178_1930" cx="0" cy="0" r="1" gradientUnits="userSpaceOnUse" gradientTransform="translate(26.2183 65.5091) scale(23.4262 23.4891)">
<stop stop-color="#E17921"/>
<stop offset="0.474" stop-color="#EAA628"/>
<stop offset="0.9281" stop-color="#EAA628"/>
</radialGradient>
<clipPath id="clip0_178_1930">
<rect width="42.8571" height="80" fill="white"/>
</clipPath>
</defs>
</svg>
