<svg width="80" height="83" viewBox="0 0 80 83" fill="none" xmlns="http://www.w3.org/2000/svg">
<g clip-path="url(#clip0_178_1837)">
<path d="M27.8462 39.7455C23.8462 40.8854 19.6923 41.5693 15.5385 41.7213C10.9231 41.9493 5.84615 41.4173 2.61538 38.1496C0.615385 36.0977 -0.307692 33.0579 0.0769232 30.2461C0.461539 27.4343 2.07692 24.7744 4.46154 23.1025C3.46154 25.3824 2.61538 28.0422 3.76923 30.2461C4.69231 32.146 6.76923 33.2859 8.92308 33.7418C11.1538 34.2738 13.5385 34.1978 15.8462 34.0458C19.8462 33.7418 23.8462 32.9819 27.6923 31.842C27.3846 34.7298 27.6923 36.9336 27.8462 39.7455Z" fill="url(#paint0_radial_178_1837)"/>
<path d="M73.9231 45.597C73.0769 42.1772 70.6923 39.0614 67.4616 37.5415C66.5385 37.1616 65.6154 36.8576 64.6154 36.7056C62.8462 31.4619 58.9231 27.0542 53.9231 24.6224C48.6154 22.1146 43.5385 22.1146 37.7692 23.2545C34.1539 24.0144 30.6923 25.5343 27.6923 27.8142C25.7692 29.2581 24.0769 31.082 23.3077 33.2858C22.3077 36.4016 23.3077 39.6694 23.8462 42.8612C23.6154 42.7852 23.3077 42.7852 22.9231 42.7852C20.5385 43.0892 17.3077 46.205 16.3846 48.2569C16 49.1688 15.8462 50.1567 15.6923 51.1447C15.5385 52.5886 15.4616 53.9565 15.5385 55.4004C16.6154 55.0964 17.7692 54.7164 18.8462 54.2605C20.8462 53.3485 22.4616 51.8286 23.6154 49.9287C23.6154 50.0807 23.6154 50.2327 23.6154 50.3847C23.6923 51.8286 24.6154 53.1205 25.6154 54.1085C26.6923 55.0964 27.8462 56.0083 28.7692 57.1483C30.6154 59.5801 30.7692 62.8479 30.3846 65.8877C30.1539 67.4836 29.8462 69.0795 30 70.6754C30.1539 72.2713 30.7692 73.9432 32.1539 74.7791C33.6154 75.6911 35.5385 75.4631 37.1539 75.9191C38.1539 76.223 39 76.679 40 76.983C41 77.211 42.1539 77.211 42.8462 76.527C45.1539 76.071 47.2308 75.919 49.2308 74.6271C50.4616 73.7912 51.4616 72.2713 52.5385 71.2834C53.3846 70.5234 54.2308 69.6875 54.5385 68.6235C54.8462 67.6356 54.6154 66.5717 54.3077 65.5837C54.1539 65.1278 53.9231 64.6718 54 64.2158C54 63.2279 54.9231 62.4679 55.7692 61.936C58.3846 60.0361 60.8462 57.9842 62.9231 55.5524C64.2308 54.0325 65.4616 52.3606 65.9231 50.4607C66.1539 49.3968 66.1539 48.3328 66.0769 47.2689C66.0769 46.737 66.0769 46.129 66 45.597C68.6154 45.445 71.3077 45.0651 73.9231 45.597Z" fill="url(#paint1_radial_178_1837)"/>
<path d="M44.4615 53.6525C44.4615 52.2846 44.4615 50.9926 44.4615 49.6247C44.4615 49.2448 44.4615 48.8648 44.6923 48.5608C44.8462 48.3328 45.1539 48.1808 45.3846 48.0288C46.9231 47.1929 48.4615 46.3569 50.0769 45.521C49.8462 45.749 49.6154 46.2049 49.3077 46.4329C49.3077 46.7369 49.3077 47.0409 49.3077 47.3449C49.3077 47.7249 49.3077 48.1048 49.2308 48.4088C49.0769 49.2448 48.5385 50.0047 47.8462 50.5367C47.1539 51.0686 46.3077 51.3726 45.4615 51.5246C45.1539 52.2846 44.7692 52.9685 44.4615 53.6525Z" fill="#27292D"/>
<path d="M48.5384 46.8889C48.6923 47.7249 48.5384 48.5608 48.0769 49.2448C47.6154 49.9287 46.923 50.4607 46.1538 50.7647C45.7692 50.9167 45.3077 50.9926 44.8461 50.9926C44.5384 50.1567 44.7692 49.0928 45.4615 48.4088C45.6923 48.1808 45.923 48.0288 46.2307 47.8769C47 47.5729 47.7692 47.1929 48.5384 46.8889Z" fill="url(#paint2_radial_178_1837)"/>
<path d="M46.3847 49.0928C46.7693 49.1688 47.077 49.0168 47.3847 48.7888C47.4616 48.7128 47.5385 48.6368 47.6154 48.4849C47.6924 48.4089 47.6923 48.2569 47.6923 48.1809C47.6923 47.9529 47.6154 47.7249 47.4616 47.5729C47.3077 47.4209 47.077 47.3449 46.9231 47.4209C46.6924 47.4209 46.5385 47.4969 46.3847 47.5729C46.077 47.7249 45.6154 47.8009 45.6924 48.2569C45.6924 48.7128 46.077 49.0168 46.3847 49.0928Z" fill="#27292D"/>
<path d="M47.8461 47.801C48 47.953 48 48.1809 47.8461 48.3329C47.6923 48.4849 47.4615 48.4089 47.3076 48.2569C47.1538 48.1049 47.1538 47.877 47.3076 47.725C47.4615 47.649 47.7692 47.649 47.8461 47.801Z" fill="white"/>
<path d="M44 73.1833C45.9231 72.8033 47.8462 72.8033 49.8462 72.9553C48.7693 73.1833 47.6923 73.3353 46.6923 73.5633C46.1539 73.6393 45.6923 73.7913 45.1539 73.8672C43.6154 74.1712 39.8462 75.3871 38.1539 76.1471C38 74.7792 43 73.4113 44 73.1833Z" fill="black"/>
<path d="M34.5384 75.9949C37.923 76.2989 40.1538 74.475 40.8461 74.1711C43.3076 73.1071 47 73.4871 49.6153 72.8032C52.1538 72.1192 54.0769 70.4473 54.6923 67.9395C55.3076 65.4316 53.3846 62.2398 50.7692 61.7839C49.0769 61.4799 46.6923 62.2398 45.2307 63.2278C43.7692 64.2157 42.1538 65.3556 40.4615 65.8876C37.3846 66.8755 32.4615 65.6596 30.3076 68.6994C27.6153 72.4992 30.923 75.691 34.5384 75.9949Z" fill="white"/>
<path d="M33.7692 69.8396C33.4615 70.2955 33.5384 70.9795 34 71.2075C34.4615 71.4355 34.9231 71.1315 35.3846 70.9035C35.6923 70.7515 36 70.5235 36.3846 70.3715C36.6154 70.2955 37.2307 70.2195 37.3846 70.0676C37.6923 69.8396 37.5384 69.6876 37.0769 69.4596C36.2307 68.9276 34.4615 68.9276 33.7692 69.8396Z" fill="black"/>
<path d="M46.6923 66.6477C47.1538 66.8757 47.4615 67.4836 47.2308 67.9396C47 68.3196 46.3846 68.3956 45.9231 68.3956C45.5384 68.3956 45.1538 68.3956 44.8461 68.4716C44.6154 68.5475 44.0769 68.7755 43.8461 68.7755C43.4615 68.6995 43.5384 68.5475 43.7692 68.0916C44.1538 67.1036 45.6154 66.1917 46.6923 66.6477Z" fill="black"/>
<path d="M74 0C76.8461 4.78769 76.6923 11.1713 73.4615 15.807C70.2308 20.5187 64.6154 22.9505 59.2308 24.9264C55.3846 26.2943 51.3077 27.5862 47.2308 27.6622C46.6923 28.8021 46.7692 30.474 47 31.6899C47.3077 33.4378 48 35.1857 49.2308 36.5536C50.4615 37.8455 52.3846 38.6815 54.1538 38.3015C58.6923 37.3896 63.0769 35.6417 67.0769 33.2858C69.8461 31.6139 72.6154 29.7901 74.8462 27.5102C77.1538 25.2304 79 22.4185 79.6923 19.2268C80.4615 15.883 79.8461 12.3872 78.9231 9.11941C77.9231 5.47164 76.9231 2.27985 74 0Z" fill="url(#paint3_radial_178_1837)"/>
<path d="M41.9231 46.2051C40.8461 47.573 40.3846 49.3209 40.2307 50.9927C39.9231 54.0325 40.3077 57.1483 41.3077 60.0362C41 55.4765 40.8461 50.6128 43.4615 46.889C44.4615 45.5211 45.7692 44.3812 46.7692 42.9373C47.8461 41.3414 48.7692 38.7575 48.1538 36.8577C47.5384 38.0736 47.5384 39.5935 46.9231 40.8094C45.8461 43.1653 43.5384 44.2292 41.9231 46.2051Z" fill="#27292D"/>
<path d="M75.7692 17.1748C75.5385 20.2146 73.6154 22.9504 71.4615 25.1543C69.4615 27.2062 67.2308 29.106 64.7692 30.6259C64.1538 31.0059 60.1539 32.9818 60.0769 31.5379C60 30.3979 64.3846 29.334 65.2308 28.954C70.0769 26.5222 74.5385 22.5705 75.7692 17.1748Z" fill="white"/>
<path d="M16 38.7574C12.6923 39.2894 9.2308 39.3653 6.2308 37.8454C3.30772 36.4015 1.00003 33.1338 1.53849 29.866C2.15387 33.0578 4.2308 36.2496 7.38464 37.0855C8.30772 37.3895 9.38464 37.3895 10.3846 37.3895C12.6154 37.3895 14.8462 37.1615 17.077 36.7055C16.6154 37.5415 15.9231 37.8454 16 38.7574Z" fill="white"/>
<path opacity="0.45" d="M34.1538 47.8769C35.4615 50.6887 36.1538 53.7285 36.2307 56.8443C37.7692 51.9047 33.5384 46.661 34.5384 41.5693C34.7692 40.3534 35.3077 39.2135 35.6154 38.0736C36.6923 34.7298 36.7692 30.854 35.5384 27.5103C35.9231 30.93 35.6154 33.2859 34 36.3257C31.6154 40.8854 32 43.2412 34.1538 47.8769Z" fill="white"/>
<path d="M30.2307 52.9686C28.5384 50.6128 26.6923 49.3209 25.2307 46.737C24.3846 45.2931 24.3076 44.1532 23.6923 42.6333C24.3076 45.1411 24.3846 46.737 25.5384 49.0929C27.3076 52.7406 31.8461 56.3124 31.923 60.4161C32.3846 57.8323 31.7692 55.0965 30.2307 52.9686Z" fill="#27292D"/>
<path d="M57.9999 43.1651C59.923 44.153 62.1538 44.609 64.3076 44.609C67.1538 44.609 70.1538 43.773 72.8461 44.685C71.6922 43.3931 69.923 42.8611 68.2307 42.6331C66.5384 42.4811 64.7692 42.6331 63.0769 42.5571C61.3076 42.4811 59.5384 42.1771 57.7692 41.7972C56.923 41.6452 55.9999 41.4172 55.2307 41.1892C56.0769 42.0252 56.9999 42.6331 57.9999 43.1651Z" fill="#27292D"/>
<path d="M63.9231 82.7586C62.2308 76.375 62.6154 69.4594 65 63.3038C67.3847 57.1482 71.7693 51.7526 77.3077 48.0288C73.5385 53.5005 69.6923 59.2001 67 65.2797C64.3077 71.3593 63.4616 76.147 63.9231 82.7586Z" fill="url(#paint4_radial_178_1837)"/>
<path d="M18.7692 63.6837L19.4615 62.4678L20.1538 63.6837C20.7692 64.8236 21.7692 65.8116 22.923 66.4195L24.1538 67.1035L22.923 67.7874C21.7692 68.3954 20.7692 69.3833 20.1538 70.5233L19.4615 71.7392L18.7692 70.5233C18.1538 69.3833 17.1538 68.3954 15.9999 67.7874L14.7692 67.1035L15.9999 66.4195C17.1538 65.8116 18.1538 64.8996 18.7692 63.6837Z" fill="white"/>
<path d="M7.84613 57.8322L8.23074 57.1482L8.61536 57.8322C8.99997 58.4401 9.46151 58.9721 10.1538 59.3521L10.8461 59.732L10.0769 60.036C9.46151 60.416 8.92305 60.872 8.53843 61.5559L8.15382 62.2399L7.84613 61.5559C7.46151 60.9479 6.99997 60.416 6.30766 60.036L5.61536 59.656L6.30766 59.2761C6.99997 58.9721 7.53843 58.4401 7.84613 57.8322Z" fill="white"/>
</g>
<defs>
<radialGradient id="paint0_radial_178_1837" cx="0" cy="0" r="1" gradientUnits="userSpaceOnUse" gradientTransform="translate(13.9255 32.472) scale(11.895 11.7515)">
<stop offset="0.0539864" stop-color="#548BEB"/>
<stop offset="0.4648" stop-color="#78A1D6"/>
<stop offset="1" stop-color="#8FAED6"/>
</radialGradient>
<radialGradient id="paint1_radial_178_1837" cx="0" cy="0" r="1" gradientUnits="userSpaceOnUse" gradientTransform="translate(40.3699 5.73784) scale(83.8892 82.8772)">
<stop offset="0.1679" stop-color="#EA8928"/>
<stop offset="0.474" stop-color="#EAA628"/>
<stop offset="0.9281" stop-color="#EAA628"/>
</radialGradient>
<radialGradient id="paint2_radial_178_1837" cx="0" cy="0" r="1" gradientUnits="userSpaceOnUse" gradientTransform="translate(44.2928 49.7755) rotate(-40.4068) scale(12.4888 12.4655)">
<stop offset="0.1679" stop-color="#EA8928"/>
<stop offset="0.474" stop-color="#EAA628"/>
<stop offset="0.9281" stop-color="#EAA628"/>
</radialGradient>
<radialGradient id="paint3_radial_178_1837" cx="0" cy="0" r="1" gradientUnits="userSpaceOnUse" gradientTransform="translate(63.3876 19.167) scale(18.0485 17.8307)">
<stop offset="0.0539864" stop-color="#548BEB"/>
<stop offset="0.4648" stop-color="#78A1D6"/>
<stop offset="1" stop-color="#8FAED6"/>
</radialGradient>
<radialGradient id="paint4_radial_178_1837" cx="0" cy="0" r="1" gradientUnits="userSpaceOnUse" gradientTransform="translate(70.4188 65.4158) rotate(-5.22129) scale(13.3637 13.2051)">
<stop offset="0.1679" stop-color="#EA8928"/>
<stop offset="0.474" stop-color="#EAA628"/>
<stop offset="0.9281" stop-color="#EAA628"/>
</radialGradient>
<clipPath id="clip0_178_1837">
<rect width="80" height="82.7586" fill="white"/>
</clipPath>
</defs>
</svg>
