<svg width="72" height="80" viewBox="0 0 72 80" fill="none" xmlns="http://www.w3.org/2000/svg">
<g clip-path="url(#clip0_178_3645)">
<path d="M41.2353 23.0636C40.548 26.024 39.1048 28.8467 36.6994 30.7056C34.294 32.5644 30.9265 33.2529 28.1774 32.0137C25.4284 30.7744 23.6415 27.4009 24.6037 24.5782C22.5419 27.4698 21.4423 31.0498 22.0609 34.4921C22.7481 37.9345 25.4971 41.0326 29.0021 41.5145C30.2392 41.7211 31.545 41.5145 32.782 41.2391C34.3627 40.8949 35.8747 40.3441 37.2492 39.518C41.8538 36.9018 44.5341 31.6694 45.0152 26.4371C45.4963 21.2047 43.9156 15.9035 41.6476 11.1531C42.7472 13.6316 41.7851 20.5851 41.2353 23.0636Z" fill="url(#paint0_radial_178_3645)"/>
<path d="M27.4902 15.1462C27.4214 16.7985 27.9025 18.4508 29.1396 19.5524C29.6207 19.9654 30.5141 20.5851 30.9264 21.067C31.4075 21.5489 31.7511 22.2374 31.8886 22.9258C31.9573 23.6143 31.8199 24.3716 31.3388 24.9224C31.6824 25.3355 32.2322 25.6109 32.782 25.542C33.0569 25.8863 33.0569 26.5059 32.7133 26.919C32.9195 27.332 33.4693 27.4697 33.8129 27.2632C33.7442 27.4697 33.7442 27.6763 33.6755 27.8828C33.6755 27.9517 33.6755 28.0205 33.6755 28.0205C33.6755 28.1582 33.8816 28.2271 34.0191 28.2271C34.1565 28.2271 34.294 28.0894 34.4314 28.0894C34.8438 28.0205 35.2561 28.3647 35.4623 28.7778C35.6685 29.1909 35.8059 29.604 36.1496 29.8794C36.6307 30.2925 37.4554 30.2236 37.9364 29.8105C38.4175 29.3974 38.8299 28.8467 39.1048 28.2959C39.4484 27.6763 39.7233 27.0567 39.6546 26.437C43.0221 31.1875 38.8299 37.1083 38.4862 37.5214L50.6507 34.4233C52.2313 28.0205 51.6128 21.067 48.1078 13.9758C47.4893 12.7365 45.6337 9.9138 44.5341 9.01879C43.4345 8.05493 42.06 7.43531 40.6855 6.95338C37.7303 6.05838 34.4314 6.12722 31.7511 7.7107C29.0708 9.29418 27.6963 11.4284 27.4902 15.1462Z" fill="white"/>
<path d="M39.4484 22.2375C40.3419 21.2048 40.8917 19.8967 41.0978 18.5198C41.1666 18.1067 41.1666 17.6247 40.9604 17.2117C40.7542 16.7986 40.4106 16.5232 39.9295 16.5232C39.5171 16.5232 39.1048 16.7986 38.8299 17.074C38.2801 17.6247 37.9365 18.3821 37.8677 19.1394C38.6237 20.3098 39.1048 20.9982 39.4484 22.2375Z" fill="white"/>
<path d="M35.5998 20.4475C35.4623 20.9983 35.1187 21.5491 34.6376 21.8244C34.1566 22.0998 33.4006 22.031 33.0569 21.5491C33.2631 22.031 33.6755 22.4441 34.1566 22.4441C34.6376 22.4441 35.1874 22.1687 35.4623 21.7556C35.7372 21.3425 35.806 20.7917 35.6685 20.241C35.7372 20.4475 35.7372 20.3787 35.5998 20.4475Z" fill="#27292D"/>
<path d="M60.7533 61.3424C62.5402 62.1686 62.1966 65.3355 60.341 66.0928C58.4167 66.7813 56.2174 65.4044 55.5302 63.4766C54.9117 61.5489 55.4615 59.4147 56.5611 57.7624C57.6607 56.0412 59.1726 54.7331 60.5472 53.2185C63.2962 50.3269 65.5641 46.6092 65.4267 42.6161C65.3579 40.6884 64.6707 38.7606 63.9147 36.9706C62.4027 33.5971 60.4097 30.3613 57.9356 27.5386C57.7981 27.3321 57.6607 27.1255 57.5232 26.9878C56.7672 25.8174 55.9425 24.647 55.1866 23.4766C53.0561 17.9001 52.5063 10.74 49.9634 7.77957C47.4893 4.81916 45.4275 2.8226 41.5789 2.47837C37.6616 2.20298 32.301 2.68491 27.6963 8.39919C26.528 9.84498 25.6346 11.7727 25.9782 13.6316C26.3218 15.2839 27.5589 16.6608 27.7651 18.3131C27.9025 19.277 27.6963 19.5524 26.8029 20.0343C28.3149 19.3458 29.9643 18.4508 30.5828 16.9362C31.4075 14.6643 29.5519 12.0481 30.3079 9.70728C30.4454 9.22536 30.7203 8.74343 30.9952 8.33035C31.6137 14.1135 36.2183 19.277 41.2353 22.4439C43.5032 23.8209 46.7333 25.1978 49.826 26.2305C49.826 26.2994 49.8947 26.4371 49.8947 26.5059C50.1696 28.0894 49.826 29.8106 49.2762 31.3252C47.0082 37.4526 41.1666 41.4457 37.5928 46.8157C30.9952 56.6608 31.4763 69.8794 37.4554 80.0687C35.05 72.9087 36.4932 64.5782 41.1666 58.6574C44.809 53.9069 50.1009 50.9465 54.3619 46.8157C57.1109 44.1307 59.5163 40.5507 60.2035 36.8329C60.1348 38.4853 59.8599 40.0687 59.3101 41.5834C58.0043 44.8192 55.0491 47.0223 53.1935 49.9138C50.4445 54.2512 48.7951 60.4474 51.6816 65.129C54.2244 69.2598 60.7533 71.0498 63.9147 66.4371C64.7394 65.2667 65.083 63.6143 64.3958 62.3063C63.7085 61.067 61.8529 60.4474 60.7533 61.3424Z" fill="url(#paint1_radial_178_3645)"/>
<path opacity="0.45" d="M54.9117 25.8174C53.0561 24.3716 51.8877 22.2373 51.063 20.0342C50.2383 17.8311 49.6198 15.4903 48.5889 13.4249C46.1148 8.67451 41.1666 5.30102 35.806 4.88794C40.2731 7.29758 42.5411 11.9103 45.2214 16.1788C47.9704 20.5162 49.9634 24.647 54.9117 25.8174Z" fill="white"/>
<path opacity="0.45" d="M44.5341 21.4112C38.2801 19.2769 33.538 13.3561 32.8508 6.74683C34.5002 9.77609 36.0809 12.8053 38.1426 15.5592C40.2731 18.2442 41.4415 19.8966 44.5341 21.4112Z" fill="white"/>
<path opacity="0.45" d="M34.5689 66.4371C34.6376 61.6867 35.8747 56.6609 39.311 53.3562C40.6167 52.117 42.1974 51.1531 43.7094 50.1204C46.5959 48.1239 49.2762 45.8519 51.6816 43.3046C54.087 40.7572 56.2862 37.3837 55.4615 34.0103C52.3688 39.2426 46.1835 41.9965 41.7851 46.1961C36.6994 51.0843 33.6755 59.4147 34.5689 66.4371Z" fill="white"/>
<path opacity="0.45" d="M53.5372 64.4405C52.0252 62.4439 51.6129 59.7589 52.0252 57.3493C52.4376 54.8708 53.5372 52.5989 54.7055 50.3958C53.1936 53.6316 52.9874 57.6247 52.9187 61.2047C52.9187 62.7882 52.6438 63.1324 53.5372 64.4405Z" fill="white"/>
<path d="M21.7173 1.51465C12.1644 7.02239 5.97912 17.969 6.1853 29.0534C6.39148 40.1377 12.9891 50.809 22.7482 55.9725" stroke="url(#paint2_radial_178_3645)" stroke-width="0.7611" stroke-miterlimit="10"/>
<path d="M22.6793 0.0688279C20.4801 -0.206559 18.1435 1.03268 16.7689 2.8227C16.4253 3.23578 15.7381 4.8881 17.1126 5.57657C19.3118 6.74697 22.9542 3.09809 22.6793 0.0688279Z" fill="url(#paint3_radial_178_3645)"/>
<path d="M10.7899 1.23926C9.48408 3.02927 9.41536 5.7143 10.3088 7.77971C10.515 8.33048 11.6146 9.63857 12.8516 8.81241C14.9821 7.43547 13.5389 2.4785 10.7899 1.23926Z" fill="url(#paint4_radial_178_3645)"/>
<path d="M21.03 11.5662C20.1365 9.50076 17.8686 8.12383 15.6006 7.84844C15.0508 7.77959 13.3327 8.05498 13.4014 9.56961C13.5389 12.1169 18.5558 13.3562 21.03 11.5662Z" fill="url(#paint5_radial_178_3645)"/>
<path d="M6.11655 7.16016C5.01695 9.15671 5.36057 11.7729 6.52891 13.7006C6.80381 14.1825 8.04087 15.3529 9.2092 14.3891C11.1335 12.7367 9.00303 8.05516 6.11655 7.16016Z" fill="url(#paint6_radial_178_3645)"/>
<path d="M17.3875 17.2117C16.4941 15.1463 14.2261 13.7693 11.9582 13.4939C11.4084 13.4251 9.69024 13.7005 9.75896 15.2151C9.89641 17.7624 14.9134 18.9328 17.3875 17.2117Z" fill="url(#paint7_radial_178_3645)"/>
<path d="M2.68021 14.5955C1.8555 16.6609 2.40531 19.277 3.77982 21.0671C4.12345 21.549 5.49796 22.5817 6.52884 21.4801C8.24698 19.6213 5.63541 15.1462 2.68021 14.5955Z" fill="url(#paint8_radial_178_3645)"/>
<path d="M14.9134 23.3391C13.8137 21.4114 11.4083 20.241 9.1404 20.241C8.5906 20.241 6.94119 20.654 7.14736 22.1687C7.55972 24.716 12.6454 25.4045 14.9134 23.3391Z" fill="url(#paint9_radial_178_3645)"/>
<path d="M-5.94258e-05 24.234C-0.206236 26.4371 1.09955 28.7779 2.88641 30.1548C3.36749 30.499 4.94818 31.1187 5.63543 29.7417C6.80377 27.4009 3.02386 23.8897 -5.94258e-05 24.234Z" fill="url(#paint10_radial_178_3645)"/>
<path d="M14.2262 29.1222C12.6455 27.5387 9.96518 27.1944 7.83469 27.7452C7.28488 27.8829 5.84165 28.7779 6.46018 30.1549C7.55979 32.4956 12.6455 31.7383 14.2262 29.1222Z" fill="url(#paint11_radial_178_3645)"/>
<path d="M0.0687256 35.2495C0.687255 37.3838 2.74902 39.0361 4.94824 39.5869C5.49804 39.7246 7.21618 39.7246 7.35363 38.2099C7.55981 35.6626 2.74902 33.8037 0.0687256 35.2495Z" fill="url(#paint12_radial_178_3645)"/>
<path d="M15.1195 34.4921C13.0578 33.666 10.4462 34.2856 8.65932 35.6625C8.17824 36.0068 7.14736 37.3837 8.24697 38.4164C10.1713 40.1376 14.5697 37.4526 15.1195 34.4921Z" fill="url(#paint13_radial_178_3645)"/>
<path d="M3.09253 44.5438C4.19214 46.4715 6.59753 47.6419 8.86547 47.7108C9.41528 47.7108 11.1334 47.2977 10.8585 45.7831C10.5149 43.2358 5.36047 42.5473 3.09253 44.5438Z" fill="url(#paint14_radial_178_3645)"/>
<path d="M17.5936 40.2754C15.3944 39.9312 12.989 41.1704 11.6145 42.8916C11.2709 43.3047 10.5836 44.8881 11.8894 45.6455C14.0886 46.9535 17.7311 43.3047 17.5936 40.2754Z" fill="url(#paint15_radial_178_3645)"/>
</g>
<defs>
<radialGradient id="paint0_radial_178_3645" cx="0" cy="0" r="1" gradientUnits="userSpaceOnUse" gradientTransform="translate(33.4423 26.4149) scale(13.4929 13.5167)">
<stop offset="0.1679" stop-color="#EA8928"/>
<stop offset="0.474" stop-color="#EAA628"/>
<stop offset="0.9281" stop-color="#EAA628"/>
</radialGradient>
<radialGradient id="paint1_radial_178_3645" cx="0" cy="0" r="1" gradientUnits="userSpaceOnUse" gradientTransform="translate(33.5668 -24.9828) scale(135.282 135.521)">
<stop offset="0.1679" stop-color="#EA8928"/>
<stop offset="0.474" stop-color="#EAA628"/>
<stop offset="0.9281" stop-color="#EAA628"/>
</radialGradient>
<radialGradient id="paint2_radial_178_3645" cx="0" cy="0" r="1" gradientUnits="userSpaceOnUse" gradientTransform="translate(14.4075 28.7407) scale(20.2848 20.3206)">
<stop offset="0.1679" stop-color="#EA8928"/>
<stop offset="0.474" stop-color="#EAA628"/>
<stop offset="0.9281" stop-color="#EAA628"/>
</radialGradient>
<radialGradient id="paint3_radial_178_3645" cx="0" cy="0" r="1" gradientUnits="userSpaceOnUse" gradientTransform="translate(25.5471 -5.49186) scale(33.784 33.8436)">
<stop offset="0.1679" stop-color="#EA8928"/>
<stop offset="0.474" stop-color="#EAA628"/>
<stop offset="0.9281" stop-color="#EAA628"/>
</radialGradient>
<radialGradient id="paint4_radial_178_3645" cx="0" cy="0" r="1" gradientUnits="userSpaceOnUse" gradientTransform="translate(7.35661 -3.97834) rotate(-60.8326) scale(33.8293 33.7981)">
<stop offset="0.1679" stop-color="#EA8928"/>
<stop offset="0.474" stop-color="#EAA628"/>
<stop offset="0.9281" stop-color="#EAA628"/>
</radialGradient>
<radialGradient id="paint5_radial_178_3645" cx="0" cy="0" r="1" gradientUnits="userSpaceOnUse" gradientTransform="translate(27.2342 11.1786) rotate(59.0553) scale(33.8285 33.8004)">
<stop offset="0.1679" stop-color="#EA8928"/>
<stop offset="0.474" stop-color="#EAA628"/>
<stop offset="0.9281" stop-color="#EAA628"/>
</radialGradient>
<radialGradient id="paint6_radial_178_3645" cx="0" cy="0" r="1" gradientUnits="userSpaceOnUse" gradientTransform="translate(1.97171 2.51787) rotate(-68.8221) scale(33.8353 33.7912)">
<stop offset="0.1679" stop-color="#EA8928"/>
<stop offset="0.474" stop-color="#EAA628"/>
<stop offset="0.9281" stop-color="#EAA628"/>
</radialGradient>
<radialGradient id="paint7_radial_178_3645" cx="0" cy="0" r="1" gradientUnits="userSpaceOnUse" gradientTransform="translate(23.5813 16.7898) rotate(59.0553) scale(33.8283 33.8003)">
<stop offset="0.1679" stop-color="#EA8928"/>
<stop offset="0.474" stop-color="#EAA628"/>
<stop offset="0.9281" stop-color="#EAA628"/>
</radialGradient>
<radialGradient id="paint8_radial_178_3645" cx="0" cy="0" r="1" gradientUnits="userSpaceOnUse" gradientTransform="translate(-1.92043 10.3755) rotate(-74.7595) scale(33.84 33.7886)">
<stop offset="0.1679" stop-color="#EA8928"/>
<stop offset="0.474" stop-color="#EAA628"/>
<stop offset="0.9281" stop-color="#EAA628"/>
</radialGradient>
<radialGradient id="paint9_radial_178_3645" cx="0" cy="0" r="1" gradientUnits="userSpaceOnUse" gradientTransform="translate(21.0493 22.3274) rotate(53.1087) scale(33.8219 33.8053)">
<stop offset="0.1679" stop-color="#EA8928"/>
<stop offset="0.474" stop-color="#EAA628"/>
<stop offset="0.9281" stop-color="#EAA628"/>
</radialGradient>
<radialGradient id="paint10_radial_178_3645" cx="0" cy="0" r="1" gradientUnits="userSpaceOnUse" gradientTransform="translate(-5.54979 21.447) rotate(-91.1383) scale(33.8436 33.784)">
<stop offset="0.1679" stop-color="#EA8928"/>
<stop offset="0.474" stop-color="#EAA628"/>
<stop offset="0.9281" stop-color="#EAA628"/>
</radialGradient>
<radialGradient id="paint11_radial_178_3645" cx="0" cy="0" r="1" gradientUnits="userSpaceOnUse" gradientTransform="translate(19.8544 26.4136) rotate(36.7051) scale(33.8056 33.8227)">
<stop offset="0.1679" stop-color="#EA8928"/>
<stop offset="0.474" stop-color="#EAA628"/>
<stop offset="0.9281" stop-color="#EAA628"/>
</radialGradient>
<radialGradient id="paint12_radial_178_3645" cx="0" cy="0" r="1" gradientUnits="userSpaceOnUse" gradientTransform="translate(-6.13161 34.7462) rotate(-113.037) scale(33.8336 33.7922)">
<stop offset="0.1679" stop-color="#EA8928"/>
<stop offset="0.474" stop-color="#EAA628"/>
<stop offset="0.9281" stop-color="#EAA628"/>
</radialGradient>
<radialGradient id="paint13_radial_178_3645" cx="0" cy="0" r="1" gradientUnits="userSpaceOnUse" gradientTransform="translate(19.2857 29.8487) rotate(14.7503) scale(33.7877 33.8396)">
<stop offset="0.1679" stop-color="#EA8928"/>
<stop offset="0.474" stop-color="#EAA628"/>
<stop offset="0.9281" stop-color="#EAA628"/>
</radialGradient>
<radialGradient id="paint14_radial_178_3645" cx="0" cy="0" r="1" gradientUnits="userSpaceOnUse" gradientTransform="translate(-3.02845 45.5537) rotate(-126.564) scale(33.8215 33.8042)">
<stop offset="0.1679" stop-color="#EA8928"/>
<stop offset="0.474" stop-color="#EAA628"/>
<stop offset="0.9281" stop-color="#EAA628"/>
</radialGradient>
<radialGradient id="paint15_radial_178_3645" cx="0" cy="0" r="1" gradientUnits="userSpaceOnUse" gradientTransform="translate(20.538 34.8313) rotate(1.18818) scale(33.784 33.8436)">
<stop offset="0.1679" stop-color="#EA8928"/>
<stop offset="0.474" stop-color="#EAA628"/>
<stop offset="0.9281" stop-color="#EAA628"/>
</radialGradient>
<clipPath id="clip0_178_3645">
<rect width="71.8182" height="80" fill="white"/>
</clipPath>
</defs>
</svg>
